<svg width="16" height="16" viewBox="0 0 16 16" fill="none" xmlns="http://www.w3.org/2000/svg">
<g clip-path="url(#clip0_1827_4341)">
<rect width="16" height="16" rx="4" fill="white"/>
<g clip-path="url(#clip1_1827_4341)">
<path d="M5.70463 7.26959C5.31017 6.84725 4.73312 6.59363 4.11209 6.59363C2.94563 6.59363 2 7.47579 2 8.56397V10.8497C2 11.0838 2.20352 11.2737 2.45444 11.2737H5.70331V7.35182C5.70331 7.32429 5.70387 7.29694 5.70463 7.26977V7.26959Z" fill="#00D6A1"/>
<path d="M11.5672 6.22169C11.0836 5.17685 9.98054 4.5 8.7606 4.5C7.10178 4.5 5.7516 5.73275 5.70496 7.26974C5.84603 7.4207 5.96369 7.59316 6.05164 7.78319L7.66685 11.2738H13.214C13.5407 11.2738 13.7608 10.9618 13.6313 10.6819L11.5676 6.22169H11.5672Z" fill="#D8A7FF"/>
<path d="M5.70544 7.26971C5.70467 7.29706 5.7041 7.32441 5.7041 7.35176V11.2736H8.57238L8.35269 11.2335C7.8714 11.1456 7.46741 10.8419 7.27306 10.4218L6.05193 7.78298C5.96398 7.59294 5.84632 7.4205 5.70525 7.26953L5.70544 7.26971Z" fill="#0077C1"/>
</g>
</g>
<defs>
<clipPath id="clip0_1827_4341">
<rect width="16" height="16" fill="white"/>
</clipPath>
<clipPath id="clip1_1827_4341">
<rect width="12" height="7" fill="white" transform="translate(2 4.5)"/>
</clipPath>
</defs>
</svg>
