<svg width="24" height="24" viewBox="0 0 24 24" fill="none" xmlns="http://www.w3.org/2000/svg">
<g clip-path="url(#clip0_1827_4351)">
<rect width="24" height="24" rx="8" fill="white"/>
<g clip-path="url(#clip1_1827_4351)">
<path d="M8.55695 10.9044C7.96525 10.2709 7.09968 9.8905 6.16814 9.8905C4.41844 9.8905 3 11.2137 3 12.846V16.2747C3 16.6258 3.30528 16.9106 3.68166 16.9106H8.55496V11.0278C8.55496 10.9865 8.55581 10.9455 8.55695 10.9047V10.9044Z" fill="#00D6A1"/>
<path d="M17.3507 9.33254C16.6254 7.76527 14.9707 6.75 13.1408 6.75C10.6526 6.75 8.62734 8.59913 8.55737 10.9046C8.76898 11.1311 8.94547 11.3897 9.0774 11.6748L11.5002 16.9107H19.8209C20.311 16.9107 20.6411 16.4427 20.4469 16.0228L17.3513 9.33254H17.3507Z" fill="#D8A7FF"/>
<path d="M8.55815 10.9047C8.55701 10.9457 8.55615 10.9867 8.55615 11.0278V16.9106H12.8586L12.529 16.8503C11.8071 16.7185 11.2011 16.2629 10.9096 15.6329L9.0779 11.6746C8.94596 11.3895 8.76947 11.1309 8.55787 10.9044L8.55815 10.9047Z" fill="#0077C1"/>
</g>
</g>
<defs>
<clipPath id="clip0_1827_4351">
<rect width="24" height="24" fill="white"/>
</clipPath>
<clipPath id="clip1_1827_4351">
<rect width="18" height="10.5" fill="white" transform="translate(3 6.75)"/>
</clipPath>
</defs>
</svg>
