<svg width="32" height="32" viewBox="0 0 32 32" fill="none" xmlns="http://www.w3.org/2000/svg">
<g clip-path="url(#clip0_1827_4357)">
<rect width="32" height="32" rx="8" fill="white"/>
<g clip-path="url(#clip1_1827_4357)">
<path d="M11.4093 14.5393C10.6203 13.6946 9.46624 13.1874 8.22418 13.1874C5.89126 13.1874 4 14.9517 4 17.1281V21.6996C4 22.1677 4.40704 22.5475 4.90888 22.5475H11.4066V14.7038C11.4066 14.6487 11.4077 14.594 11.4093 14.5397V14.5393Z" fill="#00D6A1"/>
<path d="M23.1342 12.4433C22.1671 10.3536 19.961 8.99988 17.5211 8.99988C14.2034 8.99988 11.5031 11.4654 11.4098 14.5394C11.6919 14.8413 11.9272 15.1862 12.1032 15.5663L15.3336 22.5475H26.4278C27.0813 22.5475 27.5214 21.9235 27.2625 21.3636L23.135 12.4433H23.1342Z" fill="#D8A7FF"/>
<path d="M11.4108 14.5395C11.4093 14.5942 11.4081 14.6489 11.4081 14.7036V22.5474H17.1447L16.7053 22.4671C15.7427 22.2913 14.9348 21.6838 14.5461 20.8438L12.1038 15.5661C11.9279 15.186 11.6926 14.8411 11.4104 14.5392L11.4108 14.5395Z" fill="#0077C1"/>
</g>
</g>
<defs>
<clipPath id="clip0_1827_4357">
<rect width="32" height="32" fill="white"/>
</clipPath>
<clipPath id="clip1_1827_4357">
<rect width="24" height="14" fill="white" transform="translate(4 9)"/>
</clipPath>
</defs>
</svg>
