<svg width="64" height="64" viewBox="0 0 64 64" fill="none" xmlns="http://www.w3.org/2000/svg">
<g clip-path="url(#clip0_1827_4363)">
<rect width="64" height="64" rx="12" fill="white"/>
<g clip-path="url(#clip1_1827_4363)">
<path d="M22.8185 29.0786C21.2407 27.3892 18.9325 26.3748 16.4484 26.3748C11.7825 26.3748 8 29.9034 8 34.2561V43.3992C8 44.3355 8.81407 45.095 9.81776 45.095H22.8132V29.4075C22.8132 29.2974 22.8155 29.188 22.8185 29.0793V29.0786Z" fill="#00D6A1"/>
<path d="M46.2685 24.8867C44.3343 20.7073 39.922 17.9999 35.0422 17.9999C28.407 17.9999 23.0062 22.9309 22.8196 29.0788C23.3839 29.6827 23.8546 30.3725 24.2064 31.1326L30.6672 45.0951H52.8558C54.1626 45.0951 55.0429 43.847 54.525 42.7274L46.2702 24.8867H46.2685Z" fill="#D8A7FF"/>
<path d="M22.8216 29.0791C22.8186 29.1885 22.8163 29.2979 22.8163 29.4073V45.0948H34.2894L33.4106 44.9341C31.4855 44.5825 29.8695 43.3677 29.0921 41.6875L24.2076 31.1322C23.8558 30.372 23.3851 29.6822 22.8209 29.0784L22.8216 29.0791Z" fill="#0077C1"/>
</g>
</g>
<defs>
<clipPath id="clip0_1827_4363">
<rect width="64" height="64" fill="white"/>
</clipPath>
<clipPath id="clip1_1827_4363">
<rect width="48" height="28" fill="white" transform="translate(8 18)"/>
</clipPath>
</defs>
</svg>
