<svg width="162" height="163" viewBox="0 0 162 163" fill="none" xmlns="http://www.w3.org/2000/svg">
<g clip-path="url(#clip0_447_6296)">
<path d="M12.2205 148.637C15.8686 155.416 23.6111 158.327 23.6111 158.327C23.6111 158.327 25.439 150.245 21.7909 143.466C18.1428 136.687 10.4003 133.776 10.4003 133.776C10.4003 133.776 8.57247 141.858 12.2205 148.637Z" fill="#2F2E41"/>
<path d="M14.7282 146.406C21.3144 150.377 23.851 158.264 23.851 158.264C23.851 158.264 15.7091 159.713 9.12286 155.742C2.53658 151.772 0 143.885 0 143.885C0 143.885 8.14188 142.436 14.7282 146.406Z" fill="#0077C1"/>
<path d="M163.567 33.0942H122.474V33.6824H163.567V33.0942Z" fill="#EBF0F4"/>
<path d="M134.214 27.7997H133.627V33.2411H134.214V27.7997Z" fill="#EBF0F4"/>
<path d="M152.12 27.7997H151.533V33.2411H152.12V27.7997Z" fill="#EBF0F4"/>
<path d="M176.482 103.979H135.389V104.567H176.482V103.979Z" fill="#EBF0F4"/>
<path d="M147.13 98.685H146.543V104.126H147.13V98.685Z" fill="#EBF0F4"/>
<path d="M106.275 145.533H36.7715V145.032H105.774V120.731H42.6144L39.5462 114.326L39.997 114.109L42.9291 120.23H106.275V145.533Z" fill="#2F2E41"/>
<path d="M46.0217 157.808C48.9213 157.808 51.272 155.453 51.272 152.547C51.272 149.642 48.9213 147.286 46.0217 147.286C43.1221 147.286 40.7715 149.642 40.7715 152.547C40.7715 155.453 43.1221 157.808 46.0217 157.808Z" fill="#3F3D56"/>
<path d="M97.7737 157.808C100.673 157.808 103.024 155.453 103.024 152.547C103.024 149.642 100.673 147.286 97.7737 147.286C94.874 147.286 92.5234 149.642 92.5234 152.547C92.5234 155.453 94.874 157.808 97.7737 157.808Z" fill="#3F3D56"/>
<path d="M113.708 112.463H35.5863L18.6826 57.0976H131.116L131.014 57.4233L113.708 112.463ZM35.9562 111.962H113.341L130.435 57.5986H19.3584L35.9562 111.962Z" fill="#2F2E41"/>
<path d="M107.61 109.582H38.9927L24.1455 60.4794H122.9L122.81 60.7686L107.61 109.582Z" fill="#EBF0F4"/>
<path d="M132.517 52.1515L132.034 52.0229L135.333 39.561H154.527V40.0622H135.718L132.517 52.1515Z" fill="#2F2E41"/>
<path d="M125.498 73.8828H24.145V74.3838H125.498V73.8828Z" fill="#2F2E41"/>
<path d="M119.693 92.3422H29.7808V92.8433H119.693V92.3422Z" fill="#2F2E41"/>
<path d="M75.148 57.3481H74.6479V112.213H75.148V57.3481Z" fill="#2F2E41"/>
<path d="M97.5347 57.3324L93.9453 112.196L94.4444 112.229L98.0337 57.3652L97.5347 57.3324Z" fill="#2F2E41"/>
<path d="M52.2715 57.3316L51.7725 57.3642L55.341 112.229L55.84 112.196L52.2715 57.3316Z" fill="#2F2E41"/>
<path d="M263 158.126H0V158.714H263V158.126Z" fill="#2F2E41"/>
<path d="M58.7783 42.8002H17.6846V43.3885H58.7783V42.8002Z" fill="#EBF0F4"/>
<path d="M29.4254 37.5058H28.8384V42.9472H29.4254V37.5058Z" fill="#EBF0F4"/>
<path d="M47.3307 37.5058H46.7437V42.9472H47.3307V37.5058Z" fill="#EBF0F4"/>
<path d="M114.548 13.6816H73.4546V14.2698H114.548V13.6816Z" fill="#EBF0F4"/>
<path d="M103.394 14.123H102.807V19.5644H103.394V14.123Z" fill="#EBF0F4"/>
<path d="M85.4894 14.123H84.9023V19.5644H85.4894V14.123Z" fill="#EBF0F4"/>
<path d="M44.689 13.3876H3.59521V13.9759H44.689V13.3876Z" fill="#EBF0F4"/>
<path d="M33.5348 13.8286H32.9478V19.2699H33.5348V13.8286Z" fill="#EBF0F4"/>
<path d="M15.63 13.8286H15.043V19.2699H15.63V13.8286Z" fill="#EBF0F4"/>
</g>
<defs>
<clipPath id="clip0_447_6296">
<rect width="162" height="161.454" fill="white" transform="translate(0 0.7099)"/>
</clipPath>
</defs>
</svg>
