<svg width="56" height="56" viewBox="0 0 56 56" fill="none" xmlns="http://www.w3.org/2000/svg">
<path d="M11.6996 49.1914C10.4163 49.1914 9.31729 48.7348 8.40263 47.8217C7.48951 46.9071 7.03296 45.8081 7.03296 44.5247V11.8581C7.03296 10.5747 7.48951 9.47574 8.40263 8.56107C9.31729 7.64796 10.4163 7.19141 11.6996 7.19141H44.3663C45.6496 7.19141 46.7486 7.64796 47.6633 8.56107C48.5764 9.47574 49.033 10.5747 49.033 11.8581V44.5247C49.033 45.8081 48.5764 46.9071 47.6633 47.8217C46.7486 48.7348 45.6496 49.1914 44.3663 49.1914H11.6996ZM14.033 39.8581H42.033L33.283 28.1914L26.283 37.5247L21.033 30.5247L14.033 39.8581Z" fill="#D6DAE0"/>
</svg>
