<svg width="388" height="282" viewBox="0 0 388 282" fill="none" xmlns="http://www.w3.org/2000/svg">
<g clip-path="url(#clip0_751_5429)">
<path d="M289.312 183.626C289.926 183.654 290.447 183.179 290.475 182.564C290.49 182.235 290.36 181.917 290.119 181.694L290.042 181.39L290.073 181.317C290.717 179.795 292.471 179.083 293.992 179.728C294.715 180.034 295.288 180.612 295.589 181.338C296.491 183.513 297.639 185.692 297.922 187.992C298.047 189.009 297.994 190.039 297.767 191.038C299.886 186.411 300.986 181.381 300.993 176.291C300.994 175.013 300.923 173.737 300.781 172.467C300.664 171.427 300.501 170.393 300.293 169.368C299.157 163.801 296.719 158.584 293.178 154.144C291.464 153.208 290.078 151.769 289.207 150.02C288.891 149.391 288.668 148.72 288.544 148.027C288.738 148.052 288.934 148.068 289.128 148.081C289.188 148.084 289.251 148.087 289.311 148.091L289.334 148.092C289.943 148.119 290.458 147.647 290.486 147.038C290.498 146.767 290.41 146.502 290.24 146.292C290.157 146.189 290.073 146.087 289.99 145.984C289.863 145.825 289.733 145.67 289.606 145.511C289.592 145.496 289.578 145.48 289.565 145.463C289.419 145.283 289.273 145.105 289.128 144.924C289.394 144.511 289.752 144.164 290.173 143.912C291.634 143.055 293.65 143.649 294.706 144.972C295.707 146.369 296.033 148.141 295.596 149.804C295.235 151.21 294.637 152.545 293.828 153.751C293.907 153.852 293.989 153.951 294.068 154.052C295.517 155.917 296.779 157.919 297.837 160.03C297.58 157.665 297.887 155.273 298.734 153.05C299.591 150.978 301.199 149.233 302.615 147.442C303.661 146.098 305.597 145.858 306.939 146.905C307.583 147.408 308.002 148.146 308.103 148.957L308.111 149.036C307.901 149.155 307.695 149.281 307.494 149.414C306.8 149.878 306.614 150.817 307.077 151.512C307.312 151.864 307.684 152.101 308.103 152.166L308.134 152.171C308.059 152.93 307.926 153.682 307.737 154.42C306.632 158.589 303.839 162.108 300.033 164.129C299.909 164.193 299.789 164.256 299.665 164.316C300.729 167.333 301.395 170.475 301.649 173.664C301.793 175.545 301.784 177.435 301.624 179.314L301.633 179.248C302.039 177.158 303.153 175.271 304.787 173.908C307.214 171.912 310.642 171.177 313.26 169.573C314.066 169.055 315.138 169.289 315.655 170.096C315.877 170.441 315.969 170.854 315.915 171.262L315.905 171.332C315.514 171.491 315.134 171.674 314.767 171.881C314.557 171.999 314.351 172.125 314.149 172.259C313.456 172.723 313.269 173.662 313.732 174.356C313.968 174.709 314.34 174.946 314.758 175.011L314.789 175.015C314.811 175.018 314.83 175.022 314.852 175.025C314.186 176.619 313.25 178.086 312.086 179.362C309.179 182.484 305.116 184.269 300.854 184.296H300.851C300.278 186.787 299.449 189.211 298.375 191.53H289.533C289.502 191.432 289.473 191.33 289.444 191.232C290.263 191.283 291.085 191.234 291.891 191.086C291.235 190.28 290.579 189.468 289.923 188.662C289.908 188.647 289.895 188.631 289.882 188.614C289.549 188.202 289.213 187.792 288.88 187.38L288.88 187.379C288.862 186.115 289.007 184.854 289.311 183.626L289.312 183.626Z" fill="#F2F2F2"/>
<path d="M262.562 102.415C262.562 107.288 264.997 112.247 269.865 112.247C274.732 112.247 281.448 108.718 279.937 101.155C278.982 96.3767 276.243 93.5922 271.375 93.5922C266.508 93.5922 262.562 97.5424 262.562 102.415V102.415V102.415Z" fill="#2F2E41"/>
<path d="M282.98 172.036C281.978 170.923 282.067 169.208 283.178 168.205C283.297 168.098 283.424 168.001 283.56 167.917L281.429 158.516L286.113 160.28L287.418 168.937C288.127 170.265 287.627 171.918 286.3 172.628C285.189 173.222 283.817 172.977 282.98 172.036V172.036Z" fill="#FFB6B6"/>
<path d="M273.039 138.714L276.308 139.047C276.308 139.047 275.453 143.895 276.79 144.987C278.127 146.079 277.588 146.073 277.58 146.883C277.663 148.058 278.24 149.142 279.169 149.865C280.239 150.685 282.464 165.282 282.464 165.282L287.314 165.329C287.17 164.073 287.182 162.805 287.35 161.552C287.638 159.666 289.092 154.916 288.56 154.102C288.029 153.288 288.309 151.79 288.324 150.171C288.34 148.553 286.027 150.341 286.053 147.644C286.079 144.946 283.112 128.019 283.405 125.594C283.698 123.169 280.755 120.982 280.755 120.982L278.06 120.957L273.039 138.714V138.714Z" fill="#E6E6E6"/>
<path d="M238.338 115.949C238.03 117.334 238.902 118.708 240.286 119.016C240.434 119.049 240.584 119.069 240.735 119.075L243.357 127.824L246.398 124.182L243.442 116.433C243.408 115.006 242.225 113.876 240.8 113.91C239.607 113.939 238.589 114.781 238.338 115.949Z" fill="#FFB6B6"/>
<path d="M266.023 118.798C266.023 118.798 259.683 116.419 256.246 129.45L251.684 134.181L247.851 127.247L248.358 125.602L245.395 118.878L240.316 121.796L241.566 126.412L241.355 128.694L242.569 130.114L244.556 137.449L245.799 139.845C245.799 139.845 247.366 142.914 250.102 143.419C250.831 143.556 251.578 143.577 252.314 143.482C254.064 143.208 255.686 142.397 256.956 141.162C260.339 138.142 263.538 134.922 266.537 131.519L266.023 118.798H266.023Z" fill="#E6E6E6"/>
<path d="M274.525 140.619L274.974 142.758L275.355 150.65L260.037 148.573L258.86 139.435L260.486 136.761L274.525 140.619Z" fill="#FFB6B6"/>
<path d="M269.557 112.119C273.561 112.119 276.807 108.87 276.807 104.861C276.807 100.852 273.561 97.6028 269.557 97.6028C265.552 97.6028 262.307 100.852 262.307 104.861C262.307 108.87 265.552 112.119 269.557 112.119Z" fill="#FFB6B6"/>
<path d="M281.704 121.833C280.508 119.008 278.032 116.928 275.045 116.238L275.017 116.232L273.582 114.298L267.758 114.883L266.693 117.068L263.931 118.713H263.926L263.921 118.719L262.474 119.582L257.676 125.205L257.671 125.211C256.247 126.162 255.281 127.662 255.002 129.353C254.929 129.835 254.905 130.324 254.931 130.812C255.089 133.801 256.956 136.462 257.212 136.817L257.84 140.353L257.965 141.08L259.095 141.244L275.012 143.522L275.454 143.588L275.585 143.604L276.044 142.418V142.408L280.481 130.784L282.474 125.599C282.479 124.304 282.217 123.022 281.704 121.833Z" fill="#E6E6E6"/>
<path d="M277.144 106.764C277.078 106.753 277.012 106.74 276.947 106.729C275.816 106.528 274.685 106.331 273.558 106.127L273.454 103.568L272.088 105.86C268.972 106.895 266.056 106.31 263.314 105.019C262.409 104.589 261.531 104.104 260.685 103.568C260.095 99.9641 261.584 97.1238 265.406 96.7612C265.525 96.75 265.61 96.6505 265.714 96.5985L265.717 96.5951V96.595C265.894 96.5119 266.074 96.4323 266.253 96.3596C269.127 95.2353 272.391 95.8688 274.637 97.9869C276.905 100.297 277.849 103.602 277.144 106.764V106.764Z" fill="#2F2E41"/>
<path d="M284.286 165.299C283.965 163.154 283.439 161.046 282.714 159.003V158.998C282.107 157.27 281.351 155.599 280.454 154.003C280.451 154.003 280.449 154.001 280.449 153.998V153.998C279.157 151.592 277.473 149.42 275.465 147.572L275.252 147.347H275.198L259.827 146.97H259.668L259.494 146.965C259.494 146.965 259.428 147.156 259.303 147.517C259.298 147.54 259.291 147.561 259.281 147.582C259.237 147.725 259.183 147.888 259.117 148.069C259.079 148.189 259.035 148.315 258.992 148.451C258.943 148.599 258.888 148.752 258.833 148.916C258.408 150.189 257.785 152.036 257.021 154.326C256.907 154.675 256.786 155.036 256.661 155.413C253.746 164.195 249.057 178.545 244.964 192.146H259.483C260.891 188.069 262.387 182.255 262.387 182.255C262.971 181.561 262.938 179.676 262.938 179.676L267.501 174.878L270.787 192.146H284.575L284.679 172.927V172.763C284.786 170.268 284.655 167.768 284.286 165.299V165.299Z" fill="#CCCCCC"/>
<path d="M274.366 96.4148V96.4209C274.365 96.8008 274.414 97.1792 274.51 97.5466C274.526 97.6111 274.544 97.6785 274.565 97.7429V97.746C274.982 99.0761 275.997 100.134 277.308 100.605C277.403 100.642 277.501 100.672 277.599 100.7C277.805 100.76 278.016 100.803 278.23 100.829C278.422 100.856 278.615 100.869 278.809 100.869C278.96 100.869 279.112 100.862 279.262 100.847C279.615 100.811 279.962 100.732 280.295 100.611C280.347 100.596 280.398 100.577 280.448 100.556C280.473 100.547 280.498 100.537 280.522 100.525C282.787 99.5757 283.855 96.9673 282.907 94.6992C282.878 94.6313 282.848 94.5641 282.817 94.4977L282.813 94.4946C282.596 94.038 282.3 93.6228 281.94 93.2677C281.137 92.4671 280.784 90.4607 279.564 90.4607C279.506 90.4597 279.448 90.4617 279.39 90.4668C278.572 90.4944 277.059 92.2616 276.416 92.6787C275.938 92.981 275.524 93.3738 275.196 93.8351C274.855 94.3097 274.611 94.8478 274.479 95.4179C274.404 95.7449 274.366 96.0793 274.366 96.4148H274.366Z" fill="#2F2E41"/>
<path d="M279.794 94.866C280.484 95.6702 281.564 95.9828 282.539 96.4013C286.031 97.9348 288.541 101.095 289.247 104.846C289.516 106.351 289.481 107.909 289.907 109.376C290.33 110.843 291.377 112.283 292.881 112.537C293.898 112.711 294.918 112.318 295.874 111.93C296.401 111.718 296.927 111.506 297.453 111.292C296.904 109.913 296.356 108.534 295.809 107.155C296.689 108.457 297.711 109.655 298.858 110.727C300.744 109.966 302.632 109.205 304.521 108.444C299.873 108.461 300.666 103.944 299.626 99.4112C299.055 96.9206 294.187 95.2341 293.233 92.8645C291.742 89.1494 287.526 87.3474 283.815 88.8397C282.216 89.4827 280.898 90.6756 280.099 92.204C279.145 92.5846 279.117 94.072 279.794 94.866V94.866Z" fill="#2F2E41"/>
<path d="M260.051 148.075C257.881 148.642 256.124 150.235 255.346 152.342C255.071 152.937 255.078 153.625 255.366 154.214C255.591 154.635 256.091 154.825 256.538 154.659C256.987 154.417 257.345 154.035 257.558 153.571C257.871 152.976 258.14 152.359 258.363 151.724C258.727 150.767 259.505 149.169 258.395 148.42C257.46 147.791 256.224 148.035 255.172 147.992C254.036 147.945 252.774 147.51 252.37 146.331C251.978 145.185 252.898 144.107 253.89 143.671C255.101 143.168 256.482 143.3 257.576 144.022C258.641 144.762 259.402 145.863 259.717 147.122C259.765 147.325 259.64 147.529 259.437 147.578C259.244 147.624 259.047 147.513 258.988 147.323C258.71 146.155 257.975 145.148 256.949 144.526C255.929 143.937 254.662 143.987 253.692 144.654C253.183 144.971 252.946 145.588 253.113 146.165C253.369 146.677 253.85 147.038 254.413 147.14C255.612 147.431 256.865 147.055 258.06 147.438C259.172 147.724 259.881 148.814 259.691 149.947C259.567 150.627 259.366 151.291 259.091 151.925C258.858 152.578 258.585 153.215 258.275 153.834C257.801 154.732 256.945 155.703 255.817 155.44C254.531 155.14 254.225 153.637 254.501 152.531C255.247 149.979 257.279 148.009 259.851 147.346C260.054 147.297 260.258 147.423 260.306 147.626C260.352 147.819 260.241 148.015 260.051 148.075V148.075Z" fill="#CCCCCC"/>
<path d="M316.84 192.692H227.322C225.213 192.69 223.504 190.979 223.501 188.867V67.0076C223.503 64.896 225.213 63.1847 227.322 63.1824H316.84C318.949 63.1847 320.658 64.896 320.66 67.0076V188.867C320.658 190.979 318.949 192.69 316.84 192.692ZM227.322 64.2753C225.815 64.2771 224.595 65.4993 224.593 67.0076V188.867C224.595 190.375 225.815 191.598 227.322 191.599H316.84C318.346 191.598 319.567 190.375 319.569 188.867V67.0076C319.567 65.4993 318.346 64.2771 316.84 64.2753H227.322Z" fill="#3F3D56"/>
<path d="M331.066 18.6339H77.0905C76.5459 18.6222 76.1138 18.1708 76.1255 17.6255C76.1368 17.0967 76.5623 16.6707 77.0905 16.6594H331.066C331.61 16.6711 332.042 17.1225 332.031 17.6677C332.019 18.1966 331.594 18.6225 331.066 18.6339Z" fill="#CACACA"/>
<path d="M380.404 135.861H351.475C347.556 135.861 344.379 132.68 344.379 128.757C344.379 124.834 347.556 121.653 351.475 121.653H380.404C384.323 121.653 387.5 124.834 387.5 128.757C387.5 132.68 384.323 135.861 380.404 135.861Z" fill="#0077C1"/>
<path d="M172.974 165.593C172.36 165.621 171.839 165.146 171.81 164.531C171.795 164.202 171.926 163.884 172.167 163.661L172.243 163.357L172.213 163.284C171.569 161.762 169.814 161.05 168.293 161.695C167.571 162.001 166.997 162.579 166.697 163.305C165.795 165.48 164.646 167.659 164.363 169.959C164.239 170.976 164.291 172.006 164.519 173.005C162.4 168.378 161.299 163.348 161.292 158.258C161.292 156.98 161.363 155.704 161.505 154.434C161.622 153.394 161.785 152.36 161.993 151.335C163.128 145.768 165.567 140.551 169.108 136.111C170.821 135.175 172.207 133.736 173.079 131.987C173.394 131.358 173.618 130.687 173.741 129.994C173.548 130.019 173.351 130.035 173.158 130.048C173.098 130.051 173.034 130.054 172.974 130.058L172.951 130.059C172.343 130.086 171.827 129.614 171.8 129.005C171.788 128.734 171.875 128.469 172.045 128.259C172.129 128.156 172.212 128.054 172.296 127.951C172.423 127.792 172.553 127.637 172.679 127.478C172.694 127.463 172.708 127.447 172.721 127.43C172.866 127.25 173.012 127.072 173.158 126.891C172.892 126.478 172.534 126.131 172.112 125.879C170.651 125.022 168.635 125.616 167.58 126.939C166.579 128.336 166.252 130.108 166.69 131.771C167.051 133.177 167.649 134.512 168.458 135.718C168.379 135.819 168.296 135.918 168.217 136.019C166.769 137.884 165.506 139.886 164.448 141.997C164.706 139.632 164.398 137.24 163.552 135.017C162.694 132.945 161.086 131.2 159.67 129.409C158.625 128.065 156.689 127.825 155.346 128.872C154.702 129.375 154.284 130.113 154.183 130.924L154.174 131.003C154.384 131.122 154.59 131.248 154.792 131.381C155.485 131.845 155.672 132.784 155.209 133.479C154.973 133.831 154.601 134.068 154.183 134.133L154.152 134.138C154.227 134.897 154.359 135.649 154.548 136.387C155.654 140.556 158.446 144.075 162.253 146.096C162.376 146.16 162.497 146.223 162.62 146.283C161.557 149.3 160.89 152.442 160.636 155.631C160.493 157.512 160.501 159.402 160.662 161.281L160.652 161.215C160.246 159.124 159.133 157.238 157.499 155.875C155.072 153.879 151.643 153.144 149.025 151.54C148.22 151.022 147.147 151.256 146.63 152.063C146.408 152.408 146.316 152.821 146.37 153.229L146.381 153.299C146.771 153.458 147.151 153.641 147.519 153.847C147.729 153.966 147.935 154.092 148.136 154.226C148.83 154.69 149.017 155.629 148.553 156.323C148.318 156.675 147.946 156.913 147.527 156.977L147.497 156.982C147.474 156.985 147.455 156.989 147.433 156.992C148.1 158.586 149.036 160.053 150.2 161.329C153.106 164.451 157.169 166.236 161.432 166.263H161.435C162.007 168.753 162.837 171.178 163.91 173.497H172.752C172.784 173.398 172.813 173.297 172.841 173.199C172.023 173.25 171.201 173.201 170.394 173.053C171.05 172.247 171.706 171.434 172.363 170.629C172.377 170.613 172.391 170.598 172.404 170.581C172.736 170.169 173.072 169.759 173.405 169.347L173.405 169.346C173.423 168.082 173.278 166.821 172.974 165.593L172.974 165.593H172.974Z" fill="#F2F2F2"/>
<g opacity="0.38">
<path d="M156.185 152.733C154.819 151.613 154.618 149.597 155.736 148.229C155.855 148.084 155.987 147.949 156.13 147.826L148.904 128.914L154.679 130.138L160.81 148.33C161.873 149.753 161.583 151.769 160.161 152.833C158.972 153.724 157.328 153.682 156.185 152.733V152.733Z" fill="#FFB8B8"/>
<path d="M159.158 132.019L152.673 105.003L149.884 97.1446C149.881 97.1417 149.879 97.1378 149.878 97.1337C149.424 95.8501 148.474 94.8027 147.242 94.2265C146.009 93.6355 144.59 93.5685 143.306 94.0407C143.197 94.0788 143.089 94.1226 142.984 94.1719C142.761 94.2743 142.544 94.3912 142.335 94.5216C141.131 95.2812 140.296 96.5056 140.026 97.9042L139.535 100.483L139.327 101.582L146.985 128.38V128.391L149.649 137.724L150.883 142.03V142.036L152.313 147.047L152.346 147.151L155.779 146.921H155.784L156.303 146.883L160.233 146.621L160.801 146.582L159.158 132.019V132.019Z" fill="#2F2E41"/>
<path d="M132.831 86.9121L147.275 116.155L156.413 147.251C137.162 151.009 113.007 159.048 111.269 147.518C112.34 115.372 115.715 105.119 122.683 91.1828L132.831 86.9121Z" fill="#2F2E41"/>
<path d="M152.144 173.566H140.283L135.474 157.298L132.089 173.359C132.079 173.43 132.073 173.495 132.062 173.566H119.421C119.83 168.539 120.578 159.796 120.933 158.555C121.435 156.796 120.933 156.796 119.928 155.79C119.704 155.566 119.628 154.67 119.65 153.419C119.71 149.107 120.883 140.566 120.883 140.566L122.275 137.987L122.756 137.091L147.548 136.216L147.76 136.211L148.219 138.211L148.781 140.675L149.769 144.998L150.681 148.446L150.73 148.621V149.643C150.575 149.999 150.504 150.386 150.522 150.774C150.522 151.124 151.308 162.02 152.144 173.566Z" fill="#2F2E41"/>
<path d="M131.139 91.2488L132.841 87.1717L138.109 87.2643L143.602 95.0436L149.368 119.319C149.368 119.319 151.439 137.051 149.368 137.988C147.297 138.924 122.221 138.426 122.221 138.426C123.382 128.849 124.247 119.107 125.159 113.288C128.173 94.0537 129.596 98.1014 131.139 91.2488Z" fill="#0077C1"/>
<path d="M138.109 87.2643C138.109 87.2643 149.457 93.8317 149.901 97.2599C150.345 100.688 151.831 142.647 151.831 142.647L147.818 140.051L146.721 124.758C147.486 111.17 145.619 101.041 141.824 93.4485L138.109 87.2643H138.109Z" fill="#2F2E41"/>
<path d="M143.065 78.8515C143.749 74.6304 140.885 70.6532 136.669 69.9683C132.453 69.2833 128.48 72.1498 127.796 76.3709C127.112 80.592 129.975 84.5692 134.191 85.2542C138.408 85.9391 142.38 83.0726 143.065 78.8515Z" fill="#FFB8B8"/>
<path d="M125.9 77.1514C126.246 78.7202 126.869 80.2145 127.74 81.5636C127.971 82.0236 128.317 82.4163 128.743 82.7041C129.189 82.9904 129.775 82.917 130.137 82.5297L130.325 82.3762C129.956 82.1486 129.627 81.8623 129.35 81.5287C129.071 81.189 128.974 80.7356 129.088 80.3114C129.227 79.8829 129.68 79.641 130.113 79.7638C130.565 79.9417 130.841 80.5974 131.315 80.4963C131.698 80.4125 131.778 79.9068 131.778 79.5092C131.764 77.4304 132.767 74.4762 133.544 74.5669C134.329 74.6098 135.115 74.5045 135.861 74.2564C136.608 74.0079 137.396 73.9072 138.181 73.96C138.237 73.9669 138.293 73.9774 138.352 73.9879C138.478 73.5929 138.651 73.2147 138.868 72.8613C138.843 73.2878 138.864 73.7158 138.93 74.1378C139.555 74.3957 140.201 74.5999 140.861 74.7482C141.578 74.8494 143.156 76.9979 143.23 76.7782C143.356 76.3832 143.529 76.005 143.745 75.6516C143.721 76.0781 143.742 76.5061 143.808 76.9282C143.811 76.9456 143.811 76.9596 143.815 76.977C144.163 76.5131 144.376 75.9481 144.257 76.3806C145.425 73.7367 144.972 71.8428 143.136 69.6141C142.778 69.1348 142.304 68.7544 141.759 68.5084C141.205 68.2644 140.563 68.3279 140.066 68.6758C138.541 67.2761 136.378 66.8141 134.415 67.469C132.503 68.1352 131.029 68.5258 130.736 70.5349C129.108 70.3566 127.521 71.1297 126.657 72.523C125.832 73.9157 125.562 75.5683 125.9 77.1514L125.9 77.1514Z" fill="#2F2E41"/>
<path d="M104.228 150.822C103.571 149.182 104.367 147.319 106.006 146.661C106.181 146.591 106.361 146.537 106.546 146.498L109.334 126.443L113.802 130.306L110.402 149.201C110.647 150.961 109.42 152.586 107.662 152.831C106.191 153.037 104.772 152.206 104.228 150.822H104.228Z" fill="#FFB8B8"/>
<path d="M128.842 97.2867L128.629 95.3413C128.428 93.5447 127.301 91.985 125.659 91.232C125.036 90.9424 124.36 90.7843 123.673 90.7675H123.667C121.599 90.7192 119.704 91.9165 118.858 93.8058L115.452 101.429L106.855 127.85L104.077 142.222L107.079 142.664L111.429 143.304L111.462 143.309L112.461 143.457L126.418 106.057L126.424 106.046L129.033 99.0572L128.842 97.2867H128.842Z" fill="#2F2E41"/>
</g>
<path d="M180.926 174.113H91.408C89.2988 174.11 87.5896 172.399 87.5872 170.288V48.4281C87.5895 46.3165 89.2988 44.6053 91.408 44.6029H180.926C183.035 44.6053 184.744 46.3165 184.747 48.4281V170.288C184.744 172.399 183.035 174.11 180.926 174.113ZM91.408 45.6958C89.9015 45.6976 88.6806 46.9198 88.6788 48.4281V170.288C88.6806 171.796 89.9015 173.018 91.408 173.02H180.926C182.432 173.018 183.653 171.796 183.655 170.288V48.4281C183.653 46.9198 182.432 45.6976 180.926 45.6958H91.408Z" fill="#E6E6E6"/>
<path d="M36.5254 135.861H7.59591C3.67695 135.861 0.5 132.68 0.5 128.757C0.5 124.834 3.67695 121.653 7.59591 121.653H36.5254C40.4443 121.653 43.6213 124.834 43.6213 128.757C43.6213 132.68 40.4443 135.861 36.5254 135.861Z" fill="#E6E6E6"/>
<path d="M50.7172 163.73H21.7877C17.8687 163.73 14.6918 160.55 14.6918 156.626C14.6918 152.703 17.8687 149.522 21.7877 149.522H50.7172C54.6361 149.522 57.8131 152.703 57.8131 156.626C57.8131 160.55 54.6361 163.73 50.7172 163.73Z" fill="#E6E6E6"/>
<path d="M66.0192 158.519L66.0034 159.612L121.908 160.42L121.924 159.327L66.0192 158.519Z" fill="#E6E6E6"/>
<path d="M124.261 162.375C123.216 162.376 122.262 161.78 121.804 160.84C121.143 159.484 121.706 157.848 123.061 157.187C124.415 156.525 126.049 157.089 126.71 158.445C127.37 159.802 126.808 161.437 125.453 162.098C125.082 162.28 124.674 162.374 124.261 162.375V162.375ZM124.256 158.003C123.351 158.003 122.619 158.738 122.619 159.644C122.62 159.892 122.676 160.137 122.785 160.361C123.182 161.173 124.162 161.51 124.974 161.112C125.786 160.715 126.122 159.734 125.725 158.921C125.45 158.359 124.88 158.003 124.256 158.003H124.256Z" fill="#E6E6E6"/>
<path d="M54.0106 129.556L53.9949 130.649L109.899 131.458L109.915 130.365L54.0106 129.556Z" fill="#E6E6E6"/>
<path d="M112.253 133.413C111.208 133.413 110.254 132.818 109.795 131.878C109.134 130.521 109.696 128.885 111.051 128.223C112.406 127.561 114.041 128.124 114.702 129.481C115.364 130.837 114.801 132.474 113.446 133.136C113.074 133.317 112.666 133.412 112.253 133.413ZM110.776 131.399C111.173 132.212 112.153 132.55 112.966 132.153C113.778 131.756 114.115 130.775 113.719 129.962C113.323 129.148 112.342 128.81 111.53 129.207C111.14 129.398 110.841 129.736 110.7 130.146C110.559 130.558 110.586 131.008 110.776 131.399Z" fill="#E6E6E6"/>
<path d="M58.359 108.538H29.4295C25.5106 108.538 22.3336 105.358 22.3336 101.434C22.3336 97.5109 25.5106 94.3304 29.4295 94.3304H58.359C62.278 94.3304 65.4549 97.5109 65.4549 101.434C65.4549 105.358 62.278 108.538 58.359 108.538Z" fill="#E6E6E6"/>
<path d="M75.8443 102.234L75.8285 103.327L131.733 104.135L131.749 103.042L75.8443 102.234Z" fill="#E6E6E6"/>
<path d="M134.086 106.09C133.042 106.091 132.088 105.495 131.629 104.555C130.967 103.199 131.53 101.562 132.885 100.9C134.24 100.238 135.875 100.801 136.536 102.158C137.197 103.514 136.635 105.151 135.28 105.813C134.908 105.995 134.5 106.089 134.086 106.09ZM132.61 104.076C133.007 104.89 133.987 105.227 134.799 104.83C135.612 104.433 135.949 103.452 135.553 102.639C135.156 101.825 134.176 101.488 133.364 101.885C132.973 102.075 132.675 102.413 132.534 102.824C132.392 103.235 132.42 103.685 132.61 104.076Z" fill="#E6E6E6"/>
<path d="M281.558 125.832L281.542 126.925L337.446 127.733L337.462 126.64L281.558 125.832Z" fill="#3F3D56"/>
<path d="M279.211 129.343C277.701 129.346 276.474 128.124 276.47 126.612C276.467 125.1 277.688 123.872 279.198 123.869C280.708 123.865 281.935 125.088 281.938 126.599C281.941 127.647 281.345 128.605 280.405 129.065C280.033 129.247 279.625 129.342 279.211 129.343V129.343ZM279.207 124.969C278.302 124.969 277.568 125.703 277.568 126.609C277.568 127.515 278.302 128.25 279.207 128.25C280.112 128.25 280.846 127.516 280.846 126.609C280.846 126.36 280.789 126.115 280.68 125.891V125.89C280.405 125.327 279.834 124.969 279.207 124.969V124.969Z" fill="#3F3D56"/>
<path d="M380.404 192.146H351.475C347.556 192.146 344.379 188.965 344.379 185.042C344.379 181.119 347.556 177.938 351.475 177.938H380.404C384.323 177.938 387.5 181.119 387.5 185.042C387.5 188.965 384.323 192.146 380.404 192.146Z" fill="#0077C1"/>
<path d="M281.558 182.117L281.542 183.21L337.446 184.018L337.462 182.925L281.558 182.117Z" fill="#3F3D56"/>
<path d="M279.211 185.627C277.703 185.629 276.48 184.407 276.478 182.897C276.477 181.388 277.698 180.163 279.205 180.162C280.25 180.161 281.204 180.757 281.662 181.697C282.322 183.055 281.757 184.691 280.4 185.352C280.03 185.532 279.623 185.627 279.211 185.627ZM279.207 181.254C278.302 181.254 277.568 181.988 277.568 182.894C277.568 183.8 278.302 184.535 279.207 184.535C280.112 184.535 280.846 183.801 280.846 182.895C280.846 182.645 280.789 182.4 280.68 182.176C280.405 181.612 279.834 181.254 279.207 181.254Z" fill="#3F3D56"/>
<path d="M207.357 192.08C208.74 190.968 208.961 188.945 207.851 187.56C207.743 187.426 207.625 187.301 207.498 187.186L212.697 172.031L208.863 169.561L202.82 187.605C201.734 189.006 201.989 191.023 203.388 192.11C204.559 193.019 206.2 193.007 207.357 192.08V192.08Z" fill="#FFB6B6"/>
<path d="M211.793 150.267C210.875 154.155 209.505 157.552 209.69 159.183C209.874 160.81 207.888 162.373 208.519 163.659C209.149 164.948 207.21 165.086 207.735 167.161C208.261 169.24 208.603 169.685 208.158 170.027C207.711 170.368 205.348 178.303 205.348 178.303L206.734 178.812L210.779 180.289L220.284 164.637L220.256 145.426L217.895 145.35C217.329 145.562 216.701 145.818 216.075 146.125C214.163 147.049 212.229 148.415 211.793 150.267Z" fill="#0077C1"/>
<path d="M246.796 272.169H251.739L254.09 253.082H246.795L246.796 272.169Z" fill="#FFB6B6"/>
<path d="M253.383 272.615V269.26L252.084 269.339L246.794 269.653L245.57 269.728L244.634 280.964L244.584 281.566H248.094L248.207 280.968L248.716 278.249L250.032 280.968L250.321 281.566H259.626C260.778 281.559 261.71 280.624 261.715 279.471C262.108 277.634 254.37 273.665 253.383 272.615V272.615Z" fill="#2F2E41"/>
<path d="M188.886 266.783L193.186 269.225L204.639 253.785L198.294 250.181L188.886 266.783Z" fill="#FFB6B6"/>
<path d="M194.398 270.423L196.049 267.507L194.887 266.934L190.128 264.596L189.025 264.052L183.606 271.996L182.332 273.861L183.773 274.681L185.382 275.597L187.563 273.02L187.32 276.697L194.921 281.018H194.925L195.414 281.294C196.419 281.863 197.694 281.509 198.263 280.504C199.509 279.098 194.737 271.828 194.398 270.423Z" fill="#2F2E41"/>
<path d="M222.265 178.474C215.642 182.868 209.085 225.085 210.805 224.396L195.193 253.525L203.173 258.926L232.026 212.706L241.618 233.153L245.579 264.537L255.514 263.827C252.932 228.47 246.486 191.18 241.145 176.756L222.265 178.474V178.474Z" fill="#2F2E41"/>
<path d="M217.236 181.609L217.164 181.88C224.167 185.781 243.334 181.263 243.334 181.263L240.245 171.297L244.415 149.159C244.393 145.585 241.481 142.706 237.911 142.729C237.764 142.73 237.617 142.736 237.471 142.746L232.439 139.015L225.275 139.262L220.484 144.561L217.621 145.585L215.396 146.379C214.947 146.784 214.456 147.252 213.986 147.767L217.504 168.729L219.001 174.997L217.236 181.609Z" fill="#0077C1"/>
<path d="M228.864 138.183C233.941 138.183 238.056 134.063 238.056 128.981C238.056 123.899 233.941 119.779 228.864 119.779C223.788 119.779 219.672 123.899 219.672 128.981C219.672 134.063 223.788 138.183 228.864 138.183Z" fill="#FFB6B6"/>
<path d="M216.778 125.775C216.806 125.786 216.83 125.796 216.857 125.807C216.91 125.83 216.964 125.849 217.019 125.865C217.369 125.994 217.734 126.078 218.106 126.116C218.264 126.133 218.424 126.141 218.583 126.141C218.787 126.142 218.992 126.128 219.194 126.101C219.42 126.074 219.642 126.028 219.86 125.965C219.964 125.938 220.066 125.905 220.166 125.867C221.55 125.375 222.622 124.262 223.064 122.86V122.857C223.087 122.789 223.107 122.72 223.123 122.651C223.225 122.264 223.277 121.866 223.277 121.465V121.459C223.279 120.483 222.976 119.531 222.408 118.738C222.066 118.253 221.671 118.172 221.893 117.617C222.6 115.846 219.707 114.399 218 115.177C217.938 115.171 217.876 115.169 217.814 115.17C216.665 115.167 216.238 116.867 215.553 117.824L215.572 117.83C216.032 117.992 216.275 118.495 216.114 118.956C216.023 119.213 215.82 119.415 215.561 119.502C215.105 119.65 214.644 119.782 214.178 119.896C212.641 121.713 214.403 127.028 216.778 125.775Z" fill="#2F2E41"/>
<path d="M217.624 130.647C218.061 132.615 219.109 134.395 220.618 135.73C222.174 136.988 229.488 139.969 230.105 137.417C229.692 139.2 229.941 139.881 230.605 140.518C230.719 140.364 230.839 140.217 230.963 140.073C231.42 139.546 231.968 139.106 232.58 138.774C232.596 139.851 232.518 140.927 232.349 141.99C232.622 142.243 232.883 142.51 233.129 142.789C234.312 139.26 236.905 135.032 235.028 131.818C234.283 130.543 234.904 130.368 235.564 130.222C236.716 129.966 237.351 125.233 237.625 124.083C237.965 122.64 238.1 120.981 237.207 119.796C236.314 118.612 234.056 118.561 233.599 119.973L232.648 118.678C231.419 115.971 228.157 116.512 225.207 116.862C222.216 117.316 219.641 119.217 218.326 121.944C217.059 124.668 216.81 127.756 217.624 130.647V130.647Z" fill="#2F2E41"/>
<path d="M222.274 118.279C222.402 121.617 220.528 124.708 217.511 126.135C216.912 126.407 216.39 125.518 216.994 125.244C219.69 123.999 221.369 121.247 221.244 118.276C221.21 117.613 222.24 117.618 222.274 118.279V118.279V118.279Z" fill="#0077C1"/>
<path d="M263.788 123.37C262.079 123.845 261.079 125.616 261.553 127.327C261.599 127.493 261.658 127.655 261.73 127.811L250.979 139.682L253.528 143.466L266.193 129.273C267.743 128.415 268.304 126.462 267.447 124.91C266.729 123.612 265.217 122.975 263.788 123.37L263.788 123.37Z" fill="#FFB6B6"/>
<path d="M233.229 161.88C233.229 161.88 240.854 163.251 243.23 160.038C245.607 156.824 248.205 154.247 248.677 152.676C249.15 151.106 251.59 150.457 251.518 149.024C251.445 147.591 253.283 148.231 253.618 146.115C253.953 143.999 253.815 143.454 254.36 143.316C254.905 143.178 260.202 136.822 260.202 136.822L255.995 132.851L241.093 143.478L233.229 161.88L233.229 161.88Z" fill="#0077C1"/>
<path d="M175.882 277.559C169.899 276.846 164.557 273.467 161.344 268.364C159.282 265.014 158.217 261.037 157.188 257.191C156.888 256.071 156.578 254.914 156.25 253.798C155.492 251.303 156.325 248.597 158.355 246.964C160.318 245.317 163.085 245.031 165.342 246.242L165.583 246.37L166.005 255.867C166.631 254.595 168.003 251.72 169.09 248.85L169.181 248.61L169.39 248.761C171.576 250.333 173.555 252.174 175.282 254.242C181.452 261.751 184.01 271.597 182.277 281.164L182.224 281.446L175.882 277.559H175.882Z" fill="#F2F2F2"/>
<path d="M137.199 281.35C137.198 281.708 137.487 281.999 137.845 282H296.3C296.659 282 296.95 281.709 296.95 281.35C296.95 280.991 296.659 280.699 296.3 280.699H137.849C137.491 280.698 137.2 280.988 137.199 281.346V281.35Z" fill="#CCCCCC"/>
<path d="M89.7915 9.4483C92.3408 9.4483 94.4074 7.33322 94.4074 4.72415C94.4074 2.11507 92.3408 0 89.7915 0C87.2422 0 85.1755 2.11507 85.1755 4.72415C85.1755 7.33322 87.2422 9.4483 89.7915 9.4483Z" fill="#3F3D56"/>
<path d="M105.738 9.4483C108.287 9.4483 110.353 7.33322 110.353 4.72415C110.353 2.11507 108.287 0 105.738 0C103.188 0 101.122 2.11507 101.122 4.72415C101.122 7.33322 103.188 9.4483 105.738 9.4483Z" fill="#3F3D56"/>
<path d="M121.683 9.4483C124.233 9.4483 126.299 7.33322 126.299 4.72415C126.299 2.11507 124.233 0 121.683 0C119.134 0 117.068 2.11507 117.068 4.72415C117.068 7.33322 119.134 9.4483 121.683 9.4483Z" fill="#3F3D56"/>
<path d="M139.866 8.45797C139.724 8.45797 139.583 8.403 139.476 8.2936L136.361 5.10612C136.154 4.89373 136.154 4.55433 136.361 4.34194L139.476 1.15472C139.687 0.939129 140.033 0.935659 140.248 1.14619C140.463 1.35724 140.467 1.70331 140.256 1.91891L137.515 4.72403L140.256 7.52942C140.467 7.74501 140.463 8.09108 140.248 8.30214C140.142 8.4062 140.004 8.45797 139.866 8.45797Z" fill="#3F3D56"/>
<path d="M145.1 8.45797C144.962 8.45797 144.824 8.4062 144.718 8.30214C144.503 8.09108 144.499 7.74528 144.71 7.52942L147.451 4.72403L144.71 1.91891C144.499 1.70331 144.503 1.35724 144.718 1.14619C144.933 0.934861 145.279 0.938866 145.49 1.15472L148.604 4.34194C148.812 4.55433 148.812 4.89373 148.604 5.10612L145.49 8.2936C145.383 8.403 145.242 8.45797 145.1 8.45797Z" fill="#3F3D56"/>
<path d="M308.038 0.546947H302.247C301.586 0.546947 301.052 1.08246 301.052 1.74369V7.54705C301.052 8.20827 301.586 8.74378 302.247 8.74378H308.038C308.699 8.74378 309.239 8.20827 309.239 7.54705V1.74369C309.239 1.08246 308.699 0.546947 308.038 0.546947Z" fill="#3F3D56"/>
<path d="M293.846 0.546947H288.055C287.395 0.546947 286.86 1.08246 286.86 1.74369V7.54705C286.86 8.20827 287.395 8.74378 288.055 8.74378H293.846C294.507 8.74378 295.047 8.20827 295.047 7.54705V1.74369C295.047 1.08246 294.507 0.546947 293.846 0.546947Z" fill="#3F3D56"/>
<path d="M321.411 0.820175H315.62C314.959 0.820175 314.425 1.35569 314.425 2.01691V7.82027C314.425 8.4815 314.959 9.01701 315.62 9.01701H321.411C322.072 9.01701 322.612 8.4815 322.612 7.82027V2.01691C322.612 1.35569 322.072 0.820175 321.411 0.820175Z" fill="#3F3D56"/>
<path d="M234.12 3.02785H187.827C187.019 3.02785 186.37 3.6836 186.37 4.48691C186.37 5.29021 187.019 5.94593 187.827 5.94593H234.12C234.922 5.94593 235.577 5.29018 235.577 4.48691C235.577 3.68363 234.922 3.02785 234.12 3.02785Z" fill="#3F3D56"/>
</g>
<defs>
<clipPath id="clip0_751_5429">
<rect width="387" height="282" fill="white" transform="translate(0.5)"/>
</clipPath>
</defs>
</svg>
