<svg width="362" height="240" viewBox="0 0 362 240" fill="none" xmlns="http://www.w3.org/2000/svg">
<g clip-path="url(#clip0_270_507)">
<path d="M183.098 67.4545C179.876 62.1245 176.057 56.4335 170.076 54.6931C163.151 52.6776 156.036 56.6815 150.001 60.6325C131.954 72.4487 114.574 85.2542 97.9404 98.9902L97.9586 99.1971C110.908 98.3041 123.858 97.4111 136.807 96.5181C146.163 95.8729 155.841 95.1387 164.109 90.7127C167.246 89.0332 170.305 86.7897 173.86 86.6334C178.277 86.4392 182.128 89.5241 185.155 92.7471C203.059 111.812 208.24 140.968 228.326 157.718C215.66 126.482 200.537 96.2992 183.098 67.4545Z" fill="#F2F2F2"/>
<path d="M293.152 229.162C291.172 226.662 290.363 226.076 288.41 223.553C272.508 202.986 257.561 181.725 243.57 159.769C234.067 144.857 225.035 129.659 216.474 114.175C212.399 106.813 208.435 99.394 204.583 91.9169C201.593 86.1194 198.671 80.2872 195.815 74.4204C194.998 72.7447 194.205 71.0613 193.415 69.374C191.555 65.4063 189.729 61.4193 187.768 57.5055C185.534 53.0447 182.814 48.3682 178.711 45.3712C176.844 43.9513 174.612 43.0922 172.274 42.8943C168.935 42.6786 165.853 44.0576 162.956 45.5638C141.762 56.6157 121.919 70.4719 103.972 86.2389C85.9787 102.041 69.8958 119.894 56.0509 139.433C55.6273 140.038 54.6257 139.46 55.0532 138.852C56.7367 136.471 58.4534 134.116 60.2036 131.787C81.9656 102.844 108.649 77.9547 139.034 58.2567C144.146 54.9438 149.354 51.7864 154.659 48.7842C157.332 47.2703 160.017 45.7757 162.748 44.3735C165.425 42.9983 168.268 41.7617 171.327 41.7155C181.735 41.5537 187.125 53.3413 190.827 61.273C191.99 63.7692 193.167 66.2576 194.359 68.7384C198.862 78.157 203.539 87.4895 208.389 96.736C211.382 102.445 214.44 108.12 217.565 113.763C227.287 131.332 237.621 148.546 248.567 165.405C263.066 187.736 277.45 207.463 293.968 228.345C294.423 228.923 293.61 229.747 293.152 229.162Z" fill="#E4E4E4"/>
<path d="M102.943 80.4183C102.338 79.7441 101.737 79.07 101.129 78.3959C96.329 73.0876 91.1788 67.8409 84.5876 64.7977C81.4449 63.3009 78.0142 62.5056 74.5334 62.4672C70.9356 62.4787 67.4186 63.4225 64.0942 64.7438C62.5225 65.3717 60.9854 66.0843 59.4716 66.8432C57.7419 67.7138 56.043 68.6422 54.3521 69.5783C51.1778 71.3349 48.0447 73.1685 44.9528 75.0791C38.8008 78.8812 32.8415 82.9735 27.0749 87.356C24.0855 89.6288 21.1578 91.976 18.2918 94.3978C15.6262 96.6474 13.0144 98.9574 10.4566 101.328C9.90961 101.832 9.09291 101.016 9.63988 100.511C10.314 99.8832 10.9959 99.2592 11.6777 98.6428C13.6038 96.9017 15.5607 95.1939 17.5485 93.5195C21.1732 90.4608 24.8919 87.5203 28.7043 84.698C34.6329 80.3065 40.7655 76.213 47.1022 72.4173C50.2687 70.522 53.4789 68.7064 56.7326 66.9703C57.715 66.4465 58.7089 65.9341 59.7143 65.4487C61.9955 64.298 64.3658 63.3332 66.8022 62.5635C70.2534 61.447 73.9049 61.0883 77.5074 61.5118C80.9857 62.0178 84.337 63.1771 87.3844 64.9287C93.8559 68.5459 98.8752 74.1392 103.76 79.5977C104.253 80.1524 103.44 80.9729 102.943 80.4183Z" fill="#E4E4E4"/>
<path d="M235.543 135.426L251.051 129.754L258.75 126.938C261.258 126.021 263.759 124.977 266.352 124.32C268.604 123.677 270.996 123.707 273.232 124.408C275.226 125.146 277.051 126.277 278.598 127.734C280.179 129.19 281.651 130.762 283 132.435C284.676 134.449 286.328 136.485 287.987 138.514C294.834 146.888 301.636 155.298 308.393 163.744C315.151 172.19 321.863 180.672 328.53 189.19C335.213 197.729 341.85 206.303 348.441 214.913C349.249 215.968 350.055 217.023 350.861 218.079C351.307 218.662 352.311 218.087 351.859 217.496C345.219 208.799 338.533 200.138 331.801 191.512C325.052 182.866 318.256 174.257 311.414 165.684C304.572 157.111 297.683 148.576 290.749 140.078C289.021 137.961 287.291 135.846 285.557 133.733C284.095 131.951 282.65 130.15 281.046 128.491C278.102 125.447 274.424 122.756 270.022 122.683C267.434 122.641 264.929 123.462 262.524 124.332C259.931 125.27 257.345 126.225 254.756 127.172L239.14 132.884L235.236 134.312C234.543 134.565 234.842 135.682 235.543 135.426L235.543 135.426Z" fill="#E4E4E4"/>
<path d="M82.5465 71.477C74.6659 67.4268 64.5737 68.2201 57.332 73.2802C71.1451 75.6633 84.8069 78.8519 98.2477 82.8297C92.6663 79.5589 88.3003 74.4342 82.5465 71.477Z" fill="#F2F2F2"/>
<path d="M57.2544 73.2664L55.7373 74.4995C56.2505 74.0679 56.784 73.6632 57.332 73.2803C57.3061 73.2758 57.2803 73.2708 57.2544 73.2664Z" fill="#F2F2F2"/>
<path d="M278.015 135.483C276.488 133.625 274.838 131.679 272.555 130.924L270.423 131.008C286.65 159.683 308.567 184.738 334.827 204.637C315.889 181.586 296.952 158.534 278.015 135.483Z" fill="#F2F2F2"/>
<path d="M145.454 120.154C146.441 123.738 148.663 126.858 151.729 128.961C152.914 129.768 154.316 130.542 154.721 131.917C154.934 132.794 154.803 133.719 154.354 134.501C153.906 135.274 153.361 135.986 152.731 136.62L152.674 136.835C149.733 135.092 146.935 132.888 145.311 129.88C143.687 126.872 143.46 122.93 145.454 120.154" fill="#F2F2F2"/>
<path d="M243.363 205.456C244.349 209.04 246.572 212.16 249.637 214.263C250.822 215.07 252.224 215.844 252.629 217.219C252.843 218.096 252.711 219.021 252.262 219.803C251.814 220.576 251.269 221.288 250.64 221.922L250.582 222.137C247.641 220.394 244.844 218.19 243.219 215.182C241.595 212.174 241.368 208.232 243.363 205.456" fill="#F2F2F2"/>
<path d="M47.9661 199.573C48.9526 203.157 51.1751 206.277 54.2402 208.38C55.4253 209.187 56.8274 209.961 57.2328 211.336C57.446 212.213 57.3146 213.138 56.8657 213.92C56.4175 214.693 55.8722 215.405 55.2431 216.039L55.1857 216.254C52.2449 214.511 49.4472 212.307 47.8228 209.299C46.1983 206.291 45.9715 202.349 47.9661 199.573" fill="#F2F2F2"/>
<path d="M272.818 42.861C284.654 42.861 294.249 33.2663 294.249 21.4305C294.249 9.59477 284.654 0 272.818 0C260.982 0 251.388 9.59477 251.388 21.4305C251.388 33.2663 260.982 42.861 272.818 42.861Z" fill="#0077C1"/>
<path d="M311.492 4.98811C301.106 3.58423 289.249 9.19802 286.557 19.327C285.878 17.5261 284.645 15.9874 283.035 14.9334C281.425 13.8793 279.521 13.3644 277.599 13.463C275.677 13.5616 273.836 14.2687 272.343 15.482C270.849 16.6954 269.78 18.3522 269.289 20.2131L270.478 21.0647C292.735 25.8779 315.775 25.7737 337.988 20.7595C330.763 13.1668 321.879 6.39197 311.492 4.98811Z" fill="#F0F0F0"/>
<path d="M266.95 33.5621C256.564 32.1582 244.707 37.772 242.015 47.901C241.336 46.1001 240.103 44.5614 238.493 43.5073C236.883 42.4533 234.979 41.9383 233.057 42.037C231.135 42.1356 229.295 42.8427 227.801 44.056C226.307 45.2694 225.238 46.9262 224.747 48.7871L225.936 49.6387C248.193 54.4519 271.233 54.3477 293.446 49.3335C286.221 41.7408 277.337 34.9659 266.95 33.5621Z" fill="#F0F0F0"/>
<path d="M357.6 38.9651C357.557 38.9652 357.514 38.9585 357.473 38.9454C246.368 3.80852 148.444 8.40328 85.8604 18.4451C77.3434 19.8112 68.8036 21.3891 60.4783 23.1351C58.3529 23.5804 56.1478 24.0576 53.9245 24.5546C51.2693 25.1459 48.6493 25.7549 46.1371 26.3638C45.0522 26.6207 43.9884 26.8796 42.9458 27.1406C41.3665 27.5305 39.7641 27.9367 38.0463 28.3832C36.1269 28.8781 34.1766 29.3972 32.2486 29.9261C32.2415 29.9286 32.2343 29.9307 32.227 29.9323L32.2272 29.9327C30.0495 30.5273 27.8832 31.1392 25.7883 31.7502C24.6545 32.0776 23.5597 32.4006 22.511 32.7194C22.3938 32.7519 22.29 32.783 22.1848 32.8151L21.9595 32.8836C21.829 32.9234 21.7001 32.9624 21.5713 32.9993L21.5631 33.0018L21.5633 33.0022L21.2223 33.1081C20.8156 33.2312 20.4188 33.3514 20.0285 33.4712C9.71459 36.6507 4.04468 38.9126 3.98866 38.9347C3.93744 38.9553 3.88268 38.9655 3.8275 38.9649C3.77232 38.9643 3.71781 38.9528 3.66707 38.9311C3.61633 38.9094 3.57037 38.8779 3.53179 38.8384C3.49322 38.799 3.4628 38.7523 3.44227 38.701C3.42174 38.6498 3.4115 38.5951 3.41214 38.5399C3.41277 38.4847 3.42427 38.4302 3.44597 38.3795C3.46767 38.3287 3.49915 38.2828 3.53861 38.2442C3.57808 38.2056 3.62475 38.1752 3.67597 38.1547C3.7324 38.1325 9.43001 35.8591 19.7815 32.6678C20.1732 32.5475 20.571 32.4273 20.9789 32.3038L21.2957 32.2053C21.3066 32.2012 21.3175 32.1979 21.3285 32.1946C21.4568 32.1581 21.5848 32.1191 21.7149 32.0797L21.9406 32.0112C22.053 31.9771 22.1638 31.9435 22.2773 31.9123C23.3188 31.5955 24.4173 31.2717 25.554 30.943C27.6497 30.3316 29.818 29.7198 31.9974 29.1243C32.0042 29.1219 32.0112 29.1202 32.018 29.1182V29.1178C33.9528 28.5872 35.9102 28.066 37.8358 27.5695C39.5562 27.1226 41.1617 26.7155 42.7437 26.3249C43.7907 26.0643 44.8565 25.8048 45.9412 25.5464C48.4563 24.9366 51.0815 24.3268 53.7415 23.7343C55.9683 23.2369 58.177 22.7584 60.306 22.3128C68.6442 20.5638 77.1973 18.9836 85.7272 17.6154C148.401 7.55919 246.465 2.95701 357.726 38.1444C357.822 38.1746 357.904 38.238 357.957 38.3232C358.01 38.4084 358.031 38.5098 358.015 38.6089C358 38.7081 357.95 38.7985 357.874 38.8638C357.797 38.9292 357.7 38.9651 357.6 38.9651Z" fill="#CCCCCC"/>
<path d="M110.509 176.419C110.364 175.994 110.119 175.609 109.795 175.298C109.675 175.187 109.546 175.087 109.408 174.999C108.312 174.268 106.673 174.104 105.631 174.999C105.526 175.09 105.429 175.19 105.341 175.298C105.03 175.68 104.71 176.054 104.383 176.419C103.845 177.033 103.294 177.625 102.719 178.201C102.555 178.361 102.391 178.525 102.223 178.684C102.126 178.781 102.029 178.873 101.933 178.966C101.563 179.319 101.185 179.659 100.802 179.995C100.601 180.176 100.399 180.353 100.193 180.525C99.8864 180.781 99.5796 181.038 99.2687 181.285C99.2393 181.306 99.2098 181.327 99.1804 181.353C99.172 181.357 99.1678 181.365 99.1594 181.37C99.1552 181.37 99.151 181.37 99.1468 181.378C99.1354 181.382 99.1253 181.39 99.1174 181.399C99.0249 181.462 98.9619 181.504 98.9157 181.542C98.9325 181.533 98.9493 181.521 98.9661 181.512C98.8905 181.571 98.8106 181.63 98.735 181.689C97.9996 182.231 97.2475 182.752 96.4785 183.239C94.576 184.457 92.5776 185.518 90.5032 186.412C90.3645 186.467 90.2216 186.525 90.0788 186.58C84.6474 188.805 78.7557 189.674 72.9133 189.11C72.3166 189.063 71.7199 189 71.1232 188.921C70.4341 188.82 69.7492 188.698 69.0684 188.559C66.4769 188.042 63.9411 187.277 61.4963 186.273C58.4381 184.873 55.5295 183.167 52.8148 181.18C52.3946 180.882 51.9702 180.584 51.5458 180.294C52.0291 179.109 52.5039 177.924 52.9661 176.73C53.1972 176.155 53.42 175.579 53.6385 174.999C55.3571 170.532 56.9707 166.024 58.5171 161.498C60.0802 156.913 61.5551 152.302 62.9418 147.665C63.0847 147.194 63.2234 146.724 63.3578 146.253C64.0848 143.803 64.7823 141.348 65.4505 138.887C65.5135 138.647 65.5807 138.412 65.6396 138.172C65.8328 137.466 66.0219 136.76 66.2068 136.054C66.627 134.462 65.6774 132.558 64.0049 132.176C63.1997 131.97 62.3458 132.084 61.6231 132.494C60.9004 132.905 60.3653 133.58 60.1306 134.378C59.95 135.059 59.7693 135.735 59.5844 136.416C58.6977 139.706 57.7649 142.985 56.7858 146.253C56.6429 146.724 56.5001 147.194 56.3572 147.665C54.1973 154.783 51.826 161.83 49.2431 168.805C48.9321 169.65 48.617 170.492 48.2976 171.331C48.1422 171.743 47.9867 172.154 47.827 172.566C47.5203 173.377 47.2051 174.188 46.89 174.999C46.7092 175.474 46.5243 175.949 46.3395 176.419C46.2176 176.718 46.1 177.016 45.9823 177.31C44.7842 176.88 43.5429 176.581 42.2803 176.419L42.0786 176.394C41.0997 176.277 40.1097 176.285 39.1329 176.419C37.6711 176.59 36.2645 177.08 35.0127 177.854C33.7609 178.628 32.6944 179.667 31.8886 180.899C29.8842 184.055 29.9094 188.568 32.7206 191.249C35.6158 194.009 39.9986 193.988 43.4064 192.261C45.2124 191.284 46.7352 189.857 47.827 188.118C48.2453 187.488 48.6296 186.835 48.9784 186.164C49.0666 186.223 49.1549 186.282 49.2431 186.345C49.5793 186.58 49.9154 186.82 50.2474 187.055C52.1816 188.456 54.2199 189.708 56.3446 190.799C60.913 193.07 65.8307 194.557 70.8921 195.198C71.0056 195.211 71.1148 195.228 71.2283 195.241C71.7872 195.312 72.3502 195.367 72.9133 195.413C80.9906 196.022 89.0778 194.369 96.2684 190.639C96.8777 190.324 97.4814 189.994 98.0795 189.648C99.0081 189.11 99.9158 188.538 100.802 187.933C101.286 187.605 101.756 187.273 102.223 186.925C104.261 185.423 106.161 183.743 107.9 181.903C108.559 181.21 109.191 180.494 109.795 179.756C110.366 179.152 110.695 178.359 110.719 177.529C110.716 177.149 110.645 176.774 110.509 176.419ZM40.9272 186.429C41.0155 186.366 41.1037 186.299 41.1877 186.231C41.1625 186.294 41.0407 186.366 40.9272 186.429H40.9272ZM42.2761 185.072C42.1794 185.181 42.0912 185.29 41.9945 185.399C41.7005 185.728 41.3846 186.037 41.0491 186.324C41.0029 186.366 40.9524 186.408 40.902 186.446C40.9015 186.446 40.9009 186.446 40.9004 186.446C40.8999 186.446 40.8994 186.446 40.899 186.447C40.8986 186.447 40.8983 186.448 40.8981 186.448C40.8979 186.449 40.8978 186.449 40.8978 186.45C40.8371 186.477 40.7782 186.508 40.7213 186.542C40.5406 186.652 40.3557 186.752 40.1667 186.845C39.7964 186.981 39.4155 187.087 39.0279 187.16C38.73 187.182 38.4311 187.184 38.1329 187.168H38.1244C37.9186 187.123 37.7153 187.067 37.5152 187C37.4143 186.95 37.3176 186.891 37.221 186.832C37.1832 186.799 37.1495 186.765 37.1286 186.744C37.0875 186.706 37.0496 186.666 37.0151 186.622C37.0151 186.622 37.015 186.621 37.0148 186.62C37.0146 186.62 37.0143 186.619 37.0139 186.619C37.0135 186.619 37.0131 186.618 37.0125 186.618C37.012 186.618 37.0115 186.618 37.0109 186.618C36.9647 186.534 36.9143 186.45 36.8681 186.366C36.8657 186.364 36.8642 186.361 36.8638 186.357C36.8302 186.252 36.8008 186.143 36.7756 186.034C36.7665 185.842 36.7679 185.65 36.7798 185.458C36.8362 185.19 36.912 184.926 37.0067 184.668C37.0918 184.486 37.1886 184.309 37.2967 184.139C37.3051 184.122 37.3471 184.055 37.3933 183.979C37.3975 183.975 37.3975 183.975 37.3975 183.971C37.4605 183.899 37.5236 183.824 37.5908 183.756C37.7043 183.63 37.8261 183.521 37.948 183.408C38.185 183.252 38.4305 183.111 38.6833 182.983C39.0845 182.841 39.4961 182.73 39.9145 182.651C40.5315 182.602 41.1517 182.608 41.7677 182.668C42.3511 182.769 42.9268 182.911 43.4905 183.092C43.1488 183.755 42.7598 184.393 42.3265 185C42.3097 185.025 42.2929 185.051 42.2761 185.072ZM37.6034 183.689C37.5664 183.748 37.5227 183.803 37.4731 183.853C37.5065 183.791 37.5506 183.735 37.6034 183.689Z" fill="#3F3D56"/>
<path d="M97.8783 133.504C97.8405 134.823 97.8027 136.143 97.7648 137.462C97.685 140.391 97.6024 143.321 97.5169 146.253C97.4287 149.552 97.3362 152.849 97.2396 156.145C97.1934 157.846 97.1457 159.548 97.0967 161.25C96.9664 165.835 96.8376 170.418 96.7101 174.999C96.6975 175.474 96.6807 175.945 96.6681 176.42C96.6051 178.693 96.542 180.966 96.479 183.239C96.4076 185.706 96.3375 188.173 96.2689 190.639C96.2185 192.488 96.1667 194.338 96.1134 196.19C95.7353 209.607 95.3571 223.025 94.9789 236.442C94.9629 237.273 94.6257 238.065 94.0381 238.653C93.4505 239.24 92.6582 239.577 91.8273 239.593C90.9936 239.587 90.1958 239.252 89.6063 238.663C89.0167 238.073 88.6825 237.276 88.6758 236.442C88.8859 228.895 89.0988 221.348 89.3145 213.801C89.5036 206.977 89.6955 200.153 89.8902 193.329C89.9532 191.081 90.0162 188.831 90.0793 186.58C90.1759 183.193 90.2712 179.806 90.365 176.42C90.3776 175.945 90.3944 175.474 90.407 174.999C90.4154 174.583 90.428 174.171 90.4406 173.755C90.6255 167.179 90.8104 160.602 90.9953 154.023C91.071 151.434 91.1438 148.844 91.2138 146.253C91.2979 143.299 91.3819 140.346 91.4659 137.395C91.5038 136.097 91.5374 134.802 91.5752 133.504C91.5912 132.673 91.9283 131.881 92.5159 131.293C93.1035 130.705 93.8959 130.368 94.7267 130.352C95.5605 130.359 96.3582 130.693 96.9478 131.283C97.5374 131.872 97.8716 132.67 97.8783 133.504Z" fill="#3F3D56"/>
<path d="M270.763 134.378C267.459 146.892 263.509 159.226 258.93 171.332C257.666 174.671 256.374 178.003 254.992 181.296L255.31 180.543C254.693 182.111 253.905 183.606 252.961 185.002C252.897 185.092 252.831 185.181 252.765 185.269C253.091 184.852 253.153 184.769 252.951 185.022C252.844 185.148 252.739 185.275 252.628 185.398C252.334 185.727 252.018 186.037 251.683 186.324C251.599 186.396 251.513 186.467 251.426 186.536L251.82 186.23C251.774 186.337 251.453 186.481 251.353 186.542C251.03 186.737 250.692 186.908 250.343 187.054L251.096 186.736C250.524 186.966 249.927 187.13 249.318 187.224L250.156 187.111C249.557 187.194 248.95 187.2 248.35 187.131L249.187 187.243C248.696 187.175 248.215 187.046 247.757 186.858L248.509 187.175C248.265 187.069 248.029 186.943 247.804 186.799C247.69 186.725 247.34 186.459 247.798 186.809C248.274 187.173 247.859 186.84 247.761 186.744C247.679 186.663 247.606 186.576 247.526 186.494C247.155 186.114 247.944 187.148 247.692 186.703C247.558 186.48 247.435 186.251 247.323 186.015L247.641 186.768C247.497 186.41 247.394 186.036 247.335 185.654L247.448 186.492C247.388 186.017 247.387 185.536 247.446 185.061L247.334 185.899C247.411 185.369 247.551 184.85 247.752 184.353L247.434 185.105C247.574 184.771 247.74 184.448 247.929 184.14C248.017 183.98 248.119 183.829 248.235 183.689C248.256 183.696 247.702 184.325 247.996 184.008C248.073 183.924 248.145 183.837 248.223 183.755C248.347 183.623 248.48 183.502 248.612 183.377C249.05 182.959 247.997 183.783 248.504 183.453C248.871 183.211 249.257 183 249.659 182.823L248.906 183.14C249.579 182.864 250.284 182.675 251.005 182.577L250.167 182.69C251.07 182.586 251.982 182.597 252.882 182.722L252.044 182.609C253.184 182.782 254.298 183.095 255.361 183.542L254.608 183.224C256.872 184.197 258.878 185.64 260.881 187.056C262.814 188.456 264.852 189.707 266.976 190.798C271.545 193.07 276.463 194.558 281.525 195.2C288.784 196.089 296.15 195.141 302.948 192.443C309.745 189.744 315.757 185.382 320.43 179.756C321 179.151 321.328 178.358 321.353 177.528C321.347 176.693 321.016 175.894 320.43 175.299C319.273 174.238 317.089 173.938 315.973 175.299C314.914 176.591 313.777 177.816 312.566 178.966C312.001 179.503 311.421 180.022 310.826 180.525C310.486 180.813 310.141 181.094 309.792 181.37C309.626 181.501 309.111 181.849 309.902 181.287C309.721 181.416 309.547 181.556 309.368 181.689C306.722 183.64 303.854 185.271 300.824 186.548L301.577 186.23C298.326 187.594 294.912 188.53 291.42 189.013L292.258 188.901C288.666 189.373 285.027 189.368 281.436 188.885L282.274 188.997C278.684 188.504 275.173 187.548 271.829 186.152L272.582 186.47C269.355 185.042 266.292 183.268 263.448 181.179C261.968 180.083 260.407 179.101 258.778 178.24C256.881 177.271 254.827 176.647 252.712 176.396C248.745 175.929 244.704 177.474 242.523 180.901C240.516 184.054 240.542 188.567 243.353 191.249C246.247 194.01 250.63 193.987 254.041 192.259C257.326 190.596 259.299 187.139 260.686 183.88C263.809 176.545 266.573 169.041 269.149 161.498C271.697 154.036 274.008 146.499 276.082 138.886C276.339 137.943 276.592 136.999 276.841 136.054C277.262 134.462 276.311 132.558 274.64 132.177C273.835 131.97 272.98 132.084 272.257 132.494C271.533 132.905 270.998 133.58 270.763 134.378L270.763 134.378Z" fill="#3F3D56"/>
<path d="M302.208 133.504L301.073 173.756L299.945 213.8L299.307 236.442C299.314 237.276 299.648 238.073 300.238 238.663C300.827 239.252 301.625 239.586 302.458 239.593C303.289 239.577 304.081 239.24 304.669 238.653C305.256 238.065 305.594 237.273 305.61 236.442L306.744 196.189L307.873 156.146L308.511 133.504C308.504 132.67 308.169 131.872 307.58 131.283C306.99 130.693 306.193 130.359 305.359 130.352C304.528 130.368 303.736 130.705 303.148 131.293C302.561 131.88 302.224 132.673 302.208 133.504Z" fill="#3F3D56"/>
<path opacity="0.2" d="M193.123 225.203H194.101V180.644H216.931V179.668H194.101V160.866H211.731C211.473 160.537 211.207 160.213 210.933 159.892H194.101V147.474C193.778 147.336 193.451 147.203 193.123 147.078V159.892H173.939V143.981C173.611 143.996 173.287 144.019 172.961 144.046V159.892H157.657V148.021C157.328 148.167 157.005 148.32 156.683 148.48V159.892H143.818V160.866H156.683V179.668H143.818V180.644H156.683V225.203H157.657V180.644C159.667 180.644 161.657 181.039 163.514 181.808C165.371 182.577 167.058 183.704 168.479 185.125C169.901 186.547 171.028 188.234 171.797 190.091C172.566 191.948 172.961 193.938 172.961 195.948V225.203H173.939V180.644H193.123V225.203ZM157.657 179.668V160.866H172.961V179.668H157.657ZM173.939 179.668V160.866H174.323C176.792 160.866 179.237 161.353 181.518 162.298C183.799 163.243 185.871 164.628 187.617 166.373C189.363 168.119 190.747 170.192 191.692 172.473C192.637 174.754 193.123 177.199 193.123 179.668H173.939Z" fill="black"/>
<path d="M187.147 211.843C185.915 217.339 182.964 222.299 178.722 226.004C178.411 226.273 178.1 226.533 177.776 226.79C176.991 226.861 176.21 226.934 175.436 227.008C174.793 227.067 174.158 227.13 173.528 227.189L173.415 227.201L173.335 226.512L173.016 223.722C171.777 221.699 171.009 219.424 170.769 217.064C170.529 214.705 170.823 212.321 171.629 210.091C172.738 207.099 174.747 204.456 176.722 201.834C179.449 198.211 182.1 194.631 182.197 190.215C183.539 191.932 184.655 193.815 185.517 195.816C184.703 196.199 183.972 196.737 183.365 197.4C183.193 197.589 183.021 197.854 183.138 198.081C183.239 198.274 183.491 198.321 183.71 198.346C184.235 198.4 184.764 198.455 185.29 198.51C185.71 198.556 186.13 198.598 186.55 198.644C187.059 200.313 187.404 202.027 187.58 203.762C187.863 206.462 187.717 209.189 187.147 211.843Z" fill="#3F3D56"/>
<path d="M201.097 200.829C198.618 202.632 197.168 205.225 196.042 208.082C194.888 208.451 193.85 209.115 193.029 210.007C192.857 210.196 192.685 210.46 192.802 210.687C192.903 210.881 193.155 210.927 193.374 210.952C193.899 211.007 194.429 211.061 194.954 211.116C193.828 214.494 192.794 217.99 190.802 220.844C189.478 222.727 187.751 224.293 185.747 225.428C185.201 225.739 184.637 226.019 184.058 226.264C181.923 226.428 179.829 226.603 177.776 226.79C176.99 226.861 176.21 226.934 175.435 227.008C174.792 227.067 174.158 227.13 173.528 227.189C173.523 226.958 173.523 226.727 173.528 226.495C173.66 220.339 175.925 214.419 179.936 209.746C180.125 209.528 180.318 209.313 180.516 209.099C182.547 206.929 184.937 205.124 187.579 203.762C191.743 201.597 196.41 200.585 201.097 200.829Z" fill="#0077C1"/>
<path d="M176.163 224.852L175.679 226.281L175.436 227.008C174.793 227.067 174.158 227.13 173.528 227.189L173.415 227.201C172.717 227.273 172.024 227.344 171.33 227.416C171.15 227.205 170.969 226.991 170.792 226.773C166.406 221.461 164.301 214.63 164.936 207.771C165.572 200.912 168.896 194.584 174.183 190.168C173.629 193.072 174.276 195.854 175.339 198.615C175.226 198.661 175.116 198.707 175.011 198.757C174.198 199.14 173.467 199.679 172.86 200.342C172.688 200.531 172.515 200.795 172.633 201.022C172.734 201.216 172.986 201.262 173.204 201.287C173.73 201.342 174.259 201.396 174.784 201.451C175.205 201.497 175.625 201.539 176.045 201.585C176.242 201.606 176.44 201.627 176.638 201.648C176.667 201.712 176.692 201.77 176.722 201.833C177.919 204.43 179.209 207.04 179.936 209.746C180.118 210.425 180.262 211.114 180.365 211.809C180.688 214.159 180.479 216.552 179.751 218.81C179.024 221.068 177.797 223.133 176.163 224.852Z" fill="#0077C1"/>
<path d="M218.459 163.906C214.842 156.85 209.238 150.913 202.646 146.55C196.033 142.193 188.446 139.54 180.559 138.826C179.525 138.733 178.489 138.678 177.45 138.661C176.222 138.643 157.756 143.969 151.571 148.319C145.388 152.615 140.302 158.304 136.723 164.928C133.151 171.588 131.394 179.071 131.628 186.625C131.934 194.224 134.053 201.64 137.806 208.255C141.509 214.849 146.766 220.438 153.12 224.537C159.565 228.649 166.04 239.553 173.649 239.938C181.316 240.326 190.06 230.04 197.053 226.917C204.045 223.768 210.091 218.841 214.586 212.628C218.954 206.539 221.781 199.481 222.822 192.06C223.903 184.461 223.399 176.624 220.804 169.362C220.138 167.495 219.355 165.673 218.459 163.906C217.712 162.433 215.52 161.891 214.147 162.775C213.441 163.211 212.929 163.902 212.718 164.705C212.507 165.508 212.614 166.361 213.017 167.087C213.456 167.952 213.864 168.831 214.242 169.725L213.924 168.972C215.353 172.407 216.324 176.015 216.814 179.704L216.701 178.866C217.222 182.867 217.212 186.919 216.673 190.918L216.786 190.08C216.241 194.079 215.174 197.989 213.611 201.709L213.929 200.957C213.125 202.855 212.189 204.694 211.126 206.461C210.587 207.353 210.015 208.224 209.411 209.075C209.146 209.448 208.872 209.815 208.596 210.18C208.236 210.658 209.087 209.557 208.715 210.025C208.652 210.105 208.589 210.185 208.525 210.264C208.334 210.503 208.141 210.739 207.944 210.974C206.634 212.537 205.204 213.996 203.668 215.337C203.285 215.671 202.896 215.997 202.501 216.316C202.304 216.475 202.109 216.641 201.904 216.789C201.912 216.783 202.568 216.285 202.179 216.574C202.057 216.665 201.936 216.758 201.814 216.848C200.999 217.452 200.162 218.025 199.303 218.568C197.327 219.813 195.254 220.897 193.103 221.809L193.856 221.491C190.146 223.053 186.247 224.12 182.26 224.664L183.097 224.552C179.112 225.09 175.072 225.098 171.084 224.573L171.922 224.686C168.298 224.199 164.752 223.241 161.377 221.835L162.13 222.152C160.174 221.327 158.289 220.344 156.492 219.215C155.603 218.655 154.737 218.06 153.894 217.43C153.773 217.34 153.654 217.249 153.534 217.159C153.15 216.868 153.811 217.373 153.816 217.376C153.592 217.216 153.377 217.044 153.171 216.862C152.764 216.53 152.363 216.191 151.969 215.844C150.39 214.454 148.917 212.95 147.559 211.344C147.219 210.942 146.887 210.535 146.562 210.121C146.421 209.942 146.164 209.579 146.732 210.343C146.657 210.243 146.579 210.144 146.504 210.044C146.323 209.804 146.144 209.562 145.968 209.318C145.351 208.464 144.764 207.589 144.208 206.693C142.952 204.665 141.855 202.543 140.928 200.345L141.246 201.097C139.73 197.489 138.693 193.698 138.162 189.82L138.274 190.658C137.795 187.084 137.788 183.462 138.254 179.886L138.141 180.724C138.619 177.261 139.55 173.875 140.912 170.656L140.595 171.409C141.451 169.393 142.462 167.447 143.618 165.586C144.197 164.655 144.81 163.747 145.458 162.861C145.605 162.66 145.754 162.46 145.904 162.261C146.04 162.081 146.415 161.634 145.776 162.425C145.838 162.347 145.899 162.267 145.96 162.189C146.316 161.739 146.68 161.295 147.053 160.859C148.464 159.207 149.992 157.66 151.626 156.228C152.039 155.866 152.458 155.512 152.884 155.165C153.078 155.008 153.273 154.852 153.469 154.698C153.547 154.636 153.627 154.576 153.705 154.513C152.865 155.181 153.472 154.695 153.662 154.552C154.54 153.895 155.441 153.27 156.366 152.678C158.422 151.363 160.585 150.223 162.832 149.271L162.079 149.588C165.34 148.219 179.787 144.988 182.414 145.34L181.577 145.228C185.439 145.767 189.213 146.81 192.804 148.33L192.052 148.012C193.871 148.785 195.64 149.673 197.346 150.672C198.199 151.172 199.035 151.699 199.854 152.253C200.241 152.515 200.625 152.783 201.004 153.057C201.194 153.194 201.383 153.333 201.57 153.473C201.674 153.551 201.778 153.63 201.882 153.707C202.318 154.035 201.28 153.233 201.738 153.595C203.27 154.799 204.725 156.098 206.094 157.484C206.767 158.169 207.417 158.875 208.043 159.604C208.364 159.977 208.679 160.357 208.987 160.741C209.14 160.933 209.661 161.624 209.022 160.777C209.179 160.984 209.336 161.19 209.491 161.398C210.818 163.196 211.998 165.098 213.017 167.087C213.77 168.557 215.953 169.105 217.329 168.218C218.036 167.783 218.548 167.092 218.759 166.289C218.969 165.485 218.862 164.632 218.459 163.906Z" fill="#3F3D56"/>
<path d="M181.738 215.337C181.412 215.352 181.09 215.267 180.815 215.092C180.54 214.918 180.325 214.664 180.199 214.363C180.074 214.063 180.044 213.731 180.113 213.413C180.182 213.094 180.347 212.805 180.587 212.584C180.627 212.425 180.655 212.311 180.695 212.151C180.681 212.117 180.667 212.082 180.652 212.048C179.19 208.561 169.859 218.281 169.456 221.558C169.278 223.006 169.353 224.474 169.677 225.897C166.655 219.304 165.085 212.139 165.075 204.886C165.075 203.066 165.176 201.247 165.378 199.439C165.545 197.956 165.778 196.484 166.074 195.022C167.694 187.091 171.172 179.658 176.223 173.332C179.111 173.494 181.643 173.054 181.887 167.456C181.931 166.46 182.669 165.598 182.832 164.617C182.556 164.653 182.276 164.675 182 164.694C181.914 164.698 181.824 164.703 181.738 164.707L181.706 164.709C181.403 164.722 181.102 164.648 180.84 164.495C180.579 164.341 180.367 164.116 180.23 163.845C180.093 163.574 180.038 163.269 180.071 162.968C180.103 162.666 180.222 162.38 180.413 162.145C180.532 161.998 180.651 161.852 180.771 161.705C180.952 161.479 181.137 161.258 181.318 161.032C181.339 161.01 181.358 160.988 181.376 160.964C181.584 160.706 181.792 160.453 182 160.196C181.621 159.606 181.11 159.113 180.509 158.754C178.425 157.533 175.549 158.378 174.044 160.263C172.534 162.148 172.249 164.793 172.774 167.148C173.29 169.152 174.143 171.054 175.296 172.772C175.183 172.916 175.066 173.057 174.953 173.201C172.887 175.858 171.086 178.71 169.577 181.718C170.004 178.382 164.782 166.335 162.762 163.783C160.336 160.718 155.362 162.056 154.934 165.941C154.93 165.979 154.926 166.017 154.922 166.054C155.222 166.223 155.516 166.403 155.803 166.593C156.164 166.834 156.444 167.179 156.605 167.582C156.767 167.984 156.804 168.427 156.71 168.85C156.616 169.274 156.396 169.66 156.079 169.957C155.763 170.253 155.364 170.448 154.935 170.514L154.891 170.521C150.875 176.254 163.747 191.176 166.969 187.825C165.453 192.123 164.502 196.6 164.14 201.143C163.935 203.823 163.947 206.515 164.176 209.194L164.162 209.099C163.446 203.265 151.165 194.592 147.578 195.315C145.512 195.731 143.477 195.636 143.791 197.72C143.796 197.754 143.801 197.787 143.806 197.82C144.363 198.047 144.905 198.308 145.429 198.602C145.729 198.771 146.023 198.951 146.31 199.141C146.671 199.382 146.951 199.727 147.112 200.13C147.274 200.532 147.31 200.975 147.217 201.398C147.123 201.822 146.903 202.208 146.586 202.505C146.269 202.801 145.87 202.996 145.441 203.062L145.397 203.068C145.366 203.073 145.339 203.078 145.307 203.082C143.479 209.371 157.034 219.521 165.274 216.291H165.279C166.095 219.84 167.279 223.294 168.809 226.598H181.422C181.467 226.458 181.508 226.313 181.548 226.173C180.381 226.246 179.209 226.177 178.058 225.965C178.994 224.817 179.93 223.66 180.866 222.511C180.886 222.49 180.906 222.467 180.924 222.444C181.399 221.856 181.878 221.273 182.353 220.685L182.353 220.684C182.378 218.883 182.172 217.086 181.738 215.337L181.738 215.337ZM167.295 186.926L167.302 186.917L167.295 186.935V186.926ZM164.501 212.11L164.393 211.865C164.397 211.689 164.397 211.513 164.393 211.332C164.393 211.282 164.384 211.233 164.384 211.183C164.424 211.495 164.461 211.807 164.506 212.119L164.501 212.11Z" fill="#3F3D56"/>
<path d="M40.0246 189.093C42.5774 189.093 44.6469 187.023 44.6469 184.47C44.6469 181.918 42.5774 179.848 40.0246 179.848C37.4718 179.848 35.4023 181.918 35.4023 184.47C35.4023 187.023 37.4718 189.093 40.0246 189.093Z" fill="#3F3D56"/>
<path d="M95.4914 239.517C98.0442 239.517 100.114 237.448 100.114 234.895C100.114 232.342 98.0442 230.273 95.4914 230.273C92.9386 230.273 90.8691 232.342 90.8691 234.895C90.8691 237.448 92.9386 239.517 95.4914 239.517Z" fill="#3F3D56"/>
<path d="M306.015 239.517C308.568 239.517 310.637 237.448 310.637 234.895C310.637 232.342 308.568 230.273 306.015 230.273C303.462 230.273 301.393 232.342 301.393 234.895C301.393 237.448 303.462 239.517 306.015 239.517Z" fill="#3F3D56"/>
<path d="M317.361 180.689C319.913 180.689 321.983 178.619 321.983 176.067C321.983 173.514 319.913 171.444 317.361 171.444C314.808 171.444 312.738 173.514 312.738 176.067C312.738 178.619 314.808 180.689 317.361 180.689Z" fill="#3F3D56"/>
<path d="M303.913 137.828C306.466 137.828 308.536 135.758 308.536 133.205C308.536 130.652 306.466 128.583 303.913 128.583C301.36 128.583 299.291 130.652 299.291 133.205C299.291 135.758 301.36 137.828 303.913 137.828Z" fill="#3F3D56"/>
<path d="M111.039 176.067C111.036 177.247 110.579 178.382 109.763 179.235C108.947 180.088 107.835 180.596 106.655 180.651C105.476 180.707 104.32 180.307 103.427 179.535C102.534 178.762 101.973 177.676 101.859 176.501C101.744 175.326 102.086 174.152 102.813 173.222C103.541 172.291 104.598 171.677 105.766 171.504C106.934 171.332 108.124 171.615 109.089 172.295C110.054 172.976 110.72 174.001 110.95 175.159C111.01 175.458 111.039 175.762 111.039 176.067Z" fill="#3F3D56"/>
<path d="M203.485 151.274C206.037 151.274 208.107 149.205 208.107 146.652C208.107 144.099 206.037 142.03 203.485 142.03C200.932 142.03 198.862 144.099 198.862 146.652C198.862 149.205 200.932 151.274 203.485 151.274Z" fill="#3F3D56"/>
<path d="M157.682 146.652C157.679 147.833 157.223 148.967 156.407 149.821C155.591 150.674 154.478 151.181 153.299 151.237C152.119 151.293 150.964 150.893 150.071 150.12C149.178 149.348 148.616 148.262 148.502 147.086C148.388 145.911 148.73 144.737 149.457 143.807C150.184 142.877 151.241 142.262 152.409 142.09C153.578 141.917 154.767 142.2 155.732 142.881C156.697 143.561 157.364 144.586 157.594 145.744C157.653 146.043 157.683 146.347 157.682 146.652Z" fill="#3F3D56"/>
<path d="M98.0122 133.205C98.0094 134.386 97.5529 135.521 96.7369 136.374C95.921 137.227 94.8082 137.734 93.6289 137.79C92.4495 137.846 91.2938 137.446 90.4009 136.674C89.5081 135.901 88.9464 134.815 88.8321 133.64C88.7179 132.465 89.0598 131.291 89.7871 130.36C90.5144 129.43 91.5715 128.815 92.7396 128.643C93.9076 128.471 95.0972 128.754 96.0622 129.434C97.0273 130.114 97.6938 131.14 97.924 132.298C97.9833 132.597 98.0128 132.901 98.0122 133.205Z" fill="#3F3D56"/>
<path d="M251.808 190.774C254.361 190.774 256.43 188.704 256.43 186.152C256.43 183.599 254.361 181.529 251.808 181.529C249.255 181.529 247.186 183.599 247.186 186.152C247.186 188.704 249.255 190.774 251.808 190.774Z" fill="#3F3D56"/>
<path d="M179.112 148.753C182.825 148.753 185.835 145.743 185.835 142.03C185.835 138.317 182.825 135.306 179.112 135.306C175.399 135.306 172.389 138.317 172.389 142.03C172.389 145.743 175.399 148.753 179.112 148.753Z" fill="#3F3D56"/>
<path d="M360.932 239.871L0.500329 240C0.434624 240 0.369561 239.987 0.308858 239.962C0.248155 239.937 0.193003 239.9 0.146543 239.853C0.100083 239.807 0.0632239 239.752 0.0380799 239.691C0.0129359 239.63 0 239.565 0 239.5C0 239.434 0.0129359 239.369 0.0380799 239.308C0.0632239 239.247 0.100083 239.192 0.146543 239.146C0.193003 239.099 0.248155 239.062 0.308858 239.037C0.369561 239.012 0.434624 238.999 0.500329 238.999L360.932 238.87C361.065 238.871 361.192 238.923 361.285 239.017C361.379 239.111 361.431 239.238 361.431 239.37C361.431 239.503 361.379 239.63 361.285 239.724C361.192 239.818 361.065 239.87 360.932 239.871Z" fill="#CACACA"/>
</g>
<defs>
<clipPath id="clip0_270_507">
<rect width="361.433" height="240" fill="white"/>
</clipPath>
</defs>
</svg>
