<svg width="367" height="240" viewBox="0 0 367 240" fill="none" xmlns="http://www.w3.org/2000/svg">
<g clip-path="url(#clip0_270_604)">
<path d="M181.615 40.8003C187.757 40.8003 192.735 35.8217 192.735 29.6802C192.735 23.5388 187.757 18.5602 181.615 18.5602C175.474 18.5602 170.495 23.5388 170.495 29.6802C170.495 35.8217 175.474 40.8003 181.615 40.8003Z" fill="#FFB74A"/>
<path d="M206.503 24.4146C206.189 23.3863 205.582 22.4722 204.755 21.7848C203.929 21.0973 202.919 20.6666 201.851 20.5456C201.826 20.5435 201.801 20.5435 201.776 20.5456C201.746 20.5363 201.715 20.5293 201.684 20.5248C197.961 20.0417 193.821 21.2161 191.035 23.7733C190.001 24.7076 189.174 25.8482 188.607 27.1217C188.091 26.4162 187.41 25.8473 186.624 25.4641C185.838 25.0809 184.971 24.8951 184.097 24.9227C182.97 24.9972 181.893 25.4175 181.014 26.1263C180.134 26.8351 179.495 27.7979 179.182 28.8834C179.148 29.016 179.158 29.1561 179.209 29.283C179.261 29.4098 179.352 29.5165 179.47 29.5872C179.805 29.8737 180.203 30.0764 180.632 30.1786C181.552 30.3743 182.481 30.5534 183.41 30.7158C185.225 31.0323 187.051 31.2892 188.886 31.4863C190.098 31.6154 191.313 31.7181 192.53 31.7945C195.046 31.9527 197.574 31.9902 200.093 31.9111C201.343 31.8694 202.542 31.8278 203.683 31.2781C204.515 30.8691 205.225 30.2504 205.745 29.4831C206.234 28.7449 206.555 27.9086 206.686 27.0329C206.817 26.1573 206.754 25.2635 206.503 24.4146Z" fill="#E6E6E6"/>
<path d="M183.626 40.6154C183.605 40.1494 183.527 39.6879 183.393 39.241C183.078 38.2128 182.469 37.299 181.642 36.6117C180.815 35.9244 179.805 35.4936 178.737 35.372C178.713 35.37 178.69 35.37 178.666 35.372C178.634 35.3631 178.602 35.3562 178.57 35.3512C176.509 35.0988 174.418 35.3137 172.452 35.9801C169.429 36.9921 166.776 39.0328 165.497 41.9481C164.98 41.2422 164.299 40.673 163.512 40.2898C162.725 39.9066 161.857 39.721 160.983 39.7491C159.856 39.8236 158.779 40.2439 157.899 40.9527C157.02 41.6615 156.381 42.6243 156.068 43.7098C156.036 43.8424 156.046 43.9819 156.098 44.1083C156.149 44.2347 156.24 44.3415 156.356 44.4136C156.691 44.6993 157.089 44.9019 157.518 45.005C158.442 45.2007 159.367 45.3798 160.3 45.5422C162.115 45.8588 163.94 46.1156 165.772 46.3127C169.495 46.7124 173.241 46.8543 176.983 46.7375C178.229 46.6958 179.432 46.6542 180.573 46.1045C181.404 45.6954 182.113 45.0767 182.631 44.3095C183.361 43.2216 183.711 41.9228 183.626 40.6154Z" fill="#E6E6E6"/>
<path d="M328.453 175.547C328.613 183.129 327.567 190.688 325.354 197.942C325.276 198.205 325.183 198.468 325.09 198.732H279.464C280.116 195.52 281.152 192.398 282.548 189.433C286.345 181.374 292.544 174.477 298.666 167.627C307.097 158.189 315.326 148.828 316.628 136.554C319.97 141.648 322.637 147.155 324.563 152.935C322.205 153.809 320.042 155.135 318.194 156.841C317.682 157.321 317.14 158.019 317.403 158.685C317.651 159.243 318.333 159.429 318.938 159.553C320.394 159.832 321.851 160.111 323.308 160.374C324.455 160.607 325.617 160.824 326.78 161.041C327.801 165.811 328.362 170.669 328.453 175.547Z" fill="#F2F2F2"/>
<path d="M366.78 170.526C359.465 174.973 354.815 181.855 351.018 189.557C347.714 190.31 344.664 191.913 342.169 194.207C341.642 194.687 341.099 195.384 341.378 196.051C341.611 196.609 342.308 196.795 342.913 196.919C344.354 197.198 345.826 197.477 347.268 197.74C347.128 198.066 346.989 198.407 346.849 198.732H298.495C300.69 195.772 303.121 192.994 305.764 190.425C306.337 189.852 306.926 189.309 307.531 188.751C313.694 183.181 320.772 178.714 328.453 175.547C340.553 170.488 353.785 168.755 366.78 170.526Z" fill="#F2F2F2"/>
<path d="M306.555 198.732H263.501C263.266 195.284 263.287 191.824 263.563 188.379C265.283 167.1 276.86 146.829 294.327 134.554C292.095 142.505 293.242 150.409 295.566 158.344C295.241 158.453 294.916 158.546 294.621 158.669C292.263 159.543 290.099 160.87 288.251 162.575C287.74 163.055 287.198 163.753 287.461 164.419C287.693 164.977 288.391 165.163 288.995 165.287C290.452 165.566 291.909 165.845 293.35 166.109C294.513 166.341 295.675 166.558 296.837 166.791C297.38 166.884 297.922 166.992 298.465 167.1C298.542 167.286 298.589 167.457 298.666 167.627C301.394 175.144 304.369 182.723 305.764 190.425C306.109 192.358 306.347 194.309 306.477 196.268C306.524 197.089 306.555 197.911 306.555 198.732Z" fill="#F2F2F2"/>
<path d="M71.9075 175.547C72.0673 183.129 71.021 190.688 68.8079 197.942C68.7303 198.205 68.6373 198.468 68.5443 198.732H22.918C23.5702 195.52 24.6057 192.398 26.0022 189.433C29.7991 181.374 35.9984 174.477 42.1201 167.627C50.5511 158.189 58.7806 148.828 60.0825 136.554C63.4243 141.648 66.0915 147.155 68.0175 152.935C65.6596 153.809 63.4956 155.135 61.6478 156.841C61.1363 157.321 60.5938 158.019 60.8574 158.685C61.1053 159.243 61.7872 159.429 62.3916 159.553C63.8484 159.832 65.3053 160.111 66.7621 160.374C67.909 160.607 69.0713 160.824 70.2337 161.041C71.2553 165.811 71.8158 170.669 71.9075 175.547Z" fill="#F2F2F2"/>
<path d="M110.235 170.526C102.92 174.973 98.2702 181.855 94.4732 189.557C91.169 190.31 88.1186 191.913 85.6238 194.207C85.0968 194.687 84.5544 195.384 84.8334 196.051C85.0659 196.609 85.7633 196.795 86.3677 196.919C87.809 197.198 89.2813 197.477 90.7226 197.74C90.5832 198.066 90.4437 198.407 90.3043 198.732H41.9502C44.1452 195.772 46.576 192.994 49.2188 190.425C49.7922 189.852 50.3812 189.309 50.9856 188.751C57.1495 183.181 64.2272 178.714 71.908 175.547C84.0081 170.488 97.24 168.755 110.235 170.526Z" fill="#F2F2F2"/>
<path d="M50.0087 198.732H6.95502C6.71991 195.284 6.74065 191.824 7.01708 188.379C8.73734 167.1 20.3144 146.829 37.7807 134.554C35.549 142.505 36.6958 150.409 39.0206 158.344C38.6952 158.453 38.3697 158.546 38.0752 158.669C35.7174 159.543 33.5534 160.87 31.7055 162.575C31.1941 163.055 30.6517 163.753 30.9151 164.419C31.1475 164.977 31.8449 165.163 32.4494 165.287C33.9062 165.566 35.363 165.845 36.8043 166.109C37.9667 166.341 39.1291 166.558 40.2914 166.791C40.8338 166.884 41.3763 166.992 41.9187 167.1C41.9962 167.286 42.0427 167.457 42.1202 167.627C44.8479 175.144 47.8235 182.723 49.2183 190.425C49.5636 192.358 49.8016 194.309 49.9313 196.268C49.9777 197.089 50.0087 197.911 50.0087 198.732Z" fill="#F2F2F2"/>
<path d="M210.291 180.656L248.76 184.071L249.173 184.109V19.9614C249.035 19.8657 248.898 19.7699 248.76 19.6741C240.743 14.0662 232.07 9.4592 222.935 5.95557L220.969 33.0677L220.79 35.5499L218.845 62.4372L218.246 70.7083L210.362 179.698L210.291 180.656Z" fill="#E6E6E6"/>
<path d="M115.157 16.9045C114.882 17.0794 114.607 17.2543 114.332 17.4375V184.109L115.157 184.034L153.209 180.656L153.139 179.698L145.255 70.7082L144.655 62.4371L142.71 35.5498L142.531 33.0676L140.47 4.63525C131.579 7.71686 123.083 11.835 115.157 16.9045Z" fill="#E6E6E6"/>
<path d="M114.332 17.4376C113.778 17.7958 113.224 18.1623 112.679 18.5329V186.383C112.679 190.577 115.165 194.092 118.488 194.987C119.032 195.134 119.592 195.208 120.154 195.208H243.763C244.324 195.209 244.883 195.134 245.424 194.987C246.66 194.644 247.779 193.974 248.664 193.046C250.353 191.242 251.275 188.853 251.238 186.383V21.4524C250.555 20.9485 249.868 20.4487 249.173 19.9614C249.035 19.8656 248.898 19.7699 248.76 19.6741V186.383C248.761 186.923 248.697 187.461 248.569 187.986C247.981 190.464 246.045 192.28 243.763 192.28H120.154C117.397 192.28 115.157 189.635 115.157 186.383V16.9045C114.882 17.0795 114.607 17.2544 114.332 17.4376Z" fill="#E6E6E6"/>
<path d="M249.999 33.0693H113.917V35.5511H249.999V33.0693Z" fill="#E6E6E6"/>
<path d="M208.321 1.41189C207.496 1.20782 206.672 1.01624 205.839 0.837158V68.2261H208.321V1.41189Z" fill="#E6E6E6"/>
<path d="M158.079 0C157.25 0.154094 156.421 0.312354 155.597 0.483106V68.2261H158.079V0Z" fill="#E6E6E6"/>
<path d="M87.2373 190.864C87.2367 192.288 87.5096 193.699 88.0411 195.02C88.2452 195.533 88.4889 196.028 88.7699 196.503C89.1329 197.122 89.554 197.705 90.0277 198.244C91.0739 199.436 92.3626 200.391 93.8077 201.046C95.2527 201.7 96.8208 202.038 98.407 202.038H261.376C264.338 202.038 267.179 200.861 269.274 198.766C271.369 196.672 272.546 193.831 272.546 190.868C272.546 187.906 271.369 185.065 269.274 182.97C267.179 180.875 264.338 179.698 261.376 179.698H98.407C95.4463 179.701 92.6075 180.879 90.5135 182.972C88.4196 185.065 87.2413 187.903 87.2373 190.864Z" fill="#E6E6E6"/>
<path d="M113.917 70.7092L249.172 70.7092V62.4367L113.917 62.4367V70.7092Z" fill="#E6E6E6"/>
<path d="M187.335 64.5049H175.753C175.753 63.2982 176.233 62.1409 177.086 61.2877C177.939 60.4344 179.097 59.955 180.303 59.955H182.785C183.383 59.955 183.974 60.0727 184.526 60.3014C185.078 60.53 185.58 60.8652 186.002 61.2877C186.425 61.7101 186.76 62.2117 186.989 62.7637C187.217 63.3157 187.335 63.9074 187.335 64.5049H187.335Z" fill="#E6E6E6"/>
<path d="M0.219727 197.244C3.83771 201.531 7.75095 205.56 11.9309 209.301H347.847C352.027 205.56 355.94 201.531 359.558 197.244H0.219727Z" fill="#3F3D56"/>
<path d="M165.429 156.926V199.639H195.352V156.926C195.353 156.619 195.255 156.319 195.072 156.072C194.89 155.825 194.634 155.642 194.34 155.552C194.202 155.506 194.057 155.483 193.911 155.485H166.874C166.684 155.485 166.497 155.522 166.321 155.594C166.146 155.666 165.987 155.772 165.853 155.906C165.718 156.04 165.612 156.199 165.539 156.374C165.466 156.549 165.429 156.736 165.429 156.926ZM177.107 171.602C177.114 170.76 177.454 169.956 178.053 169.363C178.651 168.77 179.459 168.438 180.301 168.438C181.143 168.438 181.951 168.77 182.549 169.363C183.147 169.956 183.487 170.76 183.495 171.602V176.558C183.491 177.403 183.152 178.211 182.554 178.807C181.955 179.402 181.145 179.736 180.301 179.736C179.456 179.736 178.646 179.402 178.048 178.807C177.449 178.211 177.111 177.403 177.107 176.558V171.602Z" fill="#2F2E41"/>
<path d="M165.338 198.273V202.392C165.339 202.605 165.423 202.81 165.574 202.961C165.724 203.112 165.928 203.198 166.142 203.2H194.641C194.854 203.199 195.059 203.113 195.209 202.962C195.36 202.81 195.445 202.605 195.444 202.392V198.273H165.338Z" fill="#3F3D56"/>
<path d="M118.355 92.5729V170.561C118.356 171.555 118.751 172.508 119.454 173.211C120.157 173.913 121.11 174.309 122.104 174.309H237.674C238.668 174.309 239.621 173.913 240.324 173.211C241.026 172.508 241.422 171.555 241.422 170.561V92.5729C241.42 91.5799 241.024 90.6284 240.322 89.9266C239.619 89.2248 238.667 88.8301 237.674 88.8289H122.104C121.111 88.8301 120.159 89.2249 119.456 89.9266C118.754 90.6284 118.358 91.5799 118.355 92.5729Z" fill="#3F3D56"/>
<path d="M121.066 93.5433V169.599C121.067 170.13 121.279 170.639 121.654 171.014C122.03 171.39 122.539 171.601 123.07 171.602H236.712C237.243 171.601 237.752 171.39 238.127 171.014C238.503 170.639 238.714 170.13 238.715 169.599V93.5433C238.715 93.0116 238.504 92.5017 238.128 92.1254C237.753 91.749 237.243 91.537 236.712 91.5359H123.07C122.538 91.537 122.028 91.749 121.653 92.1254C121.277 92.5017 121.066 93.0116 121.066 93.5433Z" fill="#FF4B4B"/>
<path d="M144.239 204.17C144.354 204.315 144.501 204.432 144.669 204.512C144.836 204.592 145.019 204.633 145.205 204.632H212.815C213 204.632 213.182 204.591 213.349 204.511C213.516 204.431 213.663 204.316 213.779 204.172C213.896 204.028 213.979 203.861 214.022 203.681C214.066 203.501 214.069 203.314 214.031 203.133L212.981 198.148C212.938 197.945 212.844 197.755 212.709 197.598C212.573 197.44 212.401 197.318 212.207 197.244C212.066 197.189 211.916 197.161 211.765 197.161H146.25C146.099 197.161 145.949 197.189 145.809 197.244C145.615 197.318 145.442 197.44 145.307 197.598C145.171 197.755 145.078 197.945 145.034 198.148L143.985 203.133C143.947 203.314 143.951 203.501 143.995 203.68C144.039 203.86 144.122 204.027 144.239 204.17Z" fill="#2F2E41"/>
<path d="M209.406 199.308H211.082C211.194 199.308 211.285 199.217 211.285 199.105V198.262C211.285 198.15 211.194 198.059 211.082 198.059H209.406C209.294 198.059 209.203 198.15 209.203 198.262V199.105C209.203 199.217 209.294 199.308 209.406 199.308Z" fill="#3F3D56"/>
<path d="M205.242 199.308H206.918C207.03 199.308 207.121 199.217 207.121 199.105V198.262C207.121 198.15 207.03 198.059 206.918 198.059H205.242C205.13 198.059 205.039 198.15 205.039 198.262V199.105C205.039 199.217 205.13 199.308 205.242 199.308Z" fill="#3F3D56"/>
<path d="M201.077 199.308H202.753C202.865 199.308 202.956 199.217 202.956 199.105V198.262C202.956 198.15 202.865 198.059 202.753 198.059H201.077C200.965 198.059 200.874 198.15 200.874 198.262V199.105C200.874 199.217 200.965 199.308 201.077 199.308Z" fill="#3F3D56"/>
<path d="M196.912 199.308H198.588C198.7 199.308 198.791 199.217 198.791 199.105V198.262C198.791 198.15 198.7 198.059 198.588 198.059H196.912C196.8 198.059 196.709 198.15 196.709 198.262V199.105C196.709 199.217 196.8 199.308 196.912 199.308Z" fill="#3F3D56"/>
<path d="M192.748 199.308H194.424C194.536 199.308 194.627 199.217 194.627 199.105V198.262C194.627 198.15 194.536 198.059 194.424 198.059H192.748C192.636 198.059 192.545 198.15 192.545 198.262V199.105C192.545 199.217 192.636 199.308 192.748 199.308Z" fill="#3F3D56"/>
<path d="M188.583 199.308H190.259C190.371 199.308 190.462 199.217 190.462 199.105V198.262C190.462 198.15 190.371 198.059 190.259 198.059H188.583C188.471 198.059 188.38 198.15 188.38 198.262V199.105C188.38 199.217 188.471 199.308 188.583 199.308Z" fill="#3F3D56"/>
<path d="M184.418 199.308H186.094C186.206 199.308 186.297 199.217 186.297 199.105V198.262C186.297 198.15 186.206 198.059 186.094 198.059H184.418C184.306 198.059 184.215 198.15 184.215 198.262V199.105C184.215 199.217 184.306 199.308 184.418 199.308Z" fill="#3F3D56"/>
<path d="M180.254 199.308H181.929C182.042 199.308 182.133 199.217 182.133 199.105V198.262C182.133 198.15 182.042 198.059 181.929 198.059H180.254C180.141 198.059 180.05 198.15 180.05 198.262V199.105C180.05 199.217 180.141 199.308 180.254 199.308Z" fill="#3F3D56"/>
<path d="M176.089 199.308H177.764C177.877 199.308 177.968 199.217 177.968 199.105V198.262C177.968 198.15 177.877 198.059 177.764 198.059H176.089C175.976 198.059 175.885 198.15 175.885 198.262V199.105C175.885 199.217 175.976 199.308 176.089 199.308Z" fill="#3F3D56"/>
<path d="M171.924 199.308H173.599C173.712 199.308 173.803 199.217 173.803 199.105V198.262C173.803 198.15 173.712 198.059 173.599 198.059H171.924C171.811 198.059 171.72 198.15 171.72 198.262V199.105C171.72 199.217 171.811 199.308 171.924 199.308Z" fill="#3F3D56"/>
<path d="M167.76 199.308H169.435C169.548 199.308 169.639 199.217 169.639 199.105V198.262C169.639 198.15 169.548 198.059 169.435 198.059H167.76C167.647 198.059 167.556 198.15 167.556 198.262V199.105C167.556 199.217 167.647 199.308 167.76 199.308Z" fill="#3F3D56"/>
<path d="M163.595 199.308H165.27C165.383 199.308 165.474 199.217 165.474 199.105V198.262C165.474 198.15 165.383 198.059 165.27 198.059H163.595C163.482 198.059 163.391 198.15 163.391 198.262V199.105C163.391 199.217 163.482 199.308 163.595 199.308Z" fill="#3F3D56"/>
<path d="M159.43 199.308H161.105C161.218 199.308 161.309 199.217 161.309 199.105V198.262C161.309 198.15 161.218 198.059 161.105 198.059H159.43C159.317 198.059 159.226 198.15 159.226 198.262V199.105C159.226 199.217 159.317 199.308 159.43 199.308Z" fill="#3F3D56"/>
<path d="M155.265 199.308H156.941C157.053 199.308 157.145 199.217 157.145 199.105V198.262C157.145 198.15 157.053 198.059 156.941 198.059H155.265C155.153 198.059 155.062 198.15 155.062 198.262V199.105C155.062 199.217 155.153 199.308 155.265 199.308Z" fill="#3F3D56"/>
<path d="M151.1 199.308H152.776C152.888 199.308 152.979 199.217 152.979 199.105V198.262C152.979 198.15 152.888 198.059 152.776 198.059H151.1C150.988 198.059 150.897 198.15 150.897 198.262V199.105C150.897 199.217 150.988 199.308 151.1 199.308Z" fill="#3F3D56"/>
<path d="M146.935 199.308H148.611C148.723 199.308 148.814 199.217 148.814 199.105V198.262C148.814 198.15 148.723 198.059 148.611 198.059H146.935C146.823 198.059 146.732 198.15 146.732 198.262V199.105C146.732 199.217 146.823 199.308 146.935 199.308Z" fill="#3F3D56"/>
<path d="M209.456 201.391H211.132C211.244 201.391 211.335 201.3 211.335 201.187V200.345C211.335 200.232 211.244 200.141 211.132 200.141H209.456C209.344 200.141 209.253 200.232 209.253 200.345V201.187C209.253 201.3 209.344 201.391 209.456 201.391Z" fill="#3F3D56"/>
<path d="M205.291 201.391H206.967C207.079 201.391 207.17 201.3 207.17 201.187V200.345C207.17 200.232 207.079 200.141 206.967 200.141H205.291C205.179 200.141 205.088 200.232 205.088 200.345V201.187C205.088 201.3 205.179 201.391 205.291 201.391Z" fill="#3F3D56"/>
<path d="M201.126 201.391H202.802C202.914 201.391 203.005 201.3 203.005 201.187V200.345C203.005 200.232 202.914 200.141 202.802 200.141H201.126C201.014 200.141 200.923 200.232 200.923 200.345V201.187C200.923 201.3 201.014 201.391 201.126 201.391Z" fill="#3F3D56"/>
<path d="M196.962 201.391H198.637C198.75 201.391 198.841 201.3 198.841 201.187V200.345C198.841 200.232 198.75 200.141 198.637 200.141H196.962C196.849 200.141 196.758 200.232 196.758 200.345V201.187C196.758 201.3 196.849 201.391 196.962 201.391Z" fill="#3F3D56"/>
<path d="M192.797 201.391H194.472C194.585 201.391 194.676 201.3 194.676 201.187V200.345C194.676 200.232 194.585 200.141 194.472 200.141H192.797C192.684 200.141 192.593 200.232 192.593 200.345V201.187C192.593 201.3 192.684 201.391 192.797 201.391Z" fill="#3F3D56"/>
<path d="M188.632 201.391H190.307C190.42 201.391 190.511 201.3 190.511 201.187V200.345C190.511 200.232 190.42 200.141 190.307 200.141H188.632C188.519 200.141 188.428 200.232 188.428 200.345V201.187C188.428 201.3 188.519 201.391 188.632 201.391Z" fill="#3F3D56"/>
<path d="M184.468 201.391H186.143C186.256 201.391 186.347 201.3 186.347 201.187V200.345C186.347 200.232 186.256 200.141 186.143 200.141H184.468C184.355 200.141 184.264 200.232 184.264 200.345V201.187C184.264 201.3 184.355 201.391 184.468 201.391Z" fill="#3F3D56"/>
<path d="M180.303 201.391H181.978C182.091 201.391 182.182 201.3 182.182 201.187V200.345C182.182 200.232 182.091 200.141 181.978 200.141H180.303C180.19 200.141 180.099 200.232 180.099 200.345V201.187C180.099 201.3 180.19 201.391 180.303 201.391Z" fill="#3F3D56"/>
<path d="M176.138 201.391H177.813C177.926 201.391 178.017 201.3 178.017 201.187V200.345C178.017 200.232 177.926 200.141 177.813 200.141H176.138C176.025 200.141 175.934 200.232 175.934 200.345V201.187C175.934 201.3 176.025 201.391 176.138 201.391Z" fill="#3F3D56"/>
<path d="M171.973 201.391H173.649C173.761 201.391 173.853 201.3 173.853 201.187V200.345C173.853 200.232 173.761 200.141 173.649 200.141H171.973C171.861 200.141 171.77 200.232 171.77 200.345V201.187C171.77 201.3 171.861 201.391 171.973 201.391Z" fill="#3F3D56"/>
<path d="M167.808 201.391H169.484C169.596 201.391 169.688 201.3 169.688 201.187V200.345C169.688 200.232 169.596 200.141 169.484 200.141H167.808C167.696 200.141 167.605 200.232 167.605 200.345V201.187C167.605 201.3 167.696 201.391 167.808 201.391Z" fill="#3F3D56"/>
<path d="M163.643 201.391H165.319C165.431 201.391 165.522 201.3 165.522 201.187V200.345C165.522 200.232 165.431 200.141 165.319 200.141H163.643C163.531 200.141 163.44 200.232 163.44 200.345V201.187C163.44 201.3 163.531 201.391 163.643 201.391Z" fill="#3F3D56"/>
<path d="M159.479 201.391H161.155C161.267 201.391 161.358 201.3 161.358 201.187V200.345C161.358 200.232 161.267 200.141 161.155 200.141H159.479C159.367 200.141 159.276 200.232 159.276 200.345V201.187C159.276 201.3 159.367 201.391 159.479 201.391Z" fill="#3F3D56"/>
<path d="M155.314 201.391H156.99C157.102 201.391 157.193 201.3 157.193 201.187V200.345C157.193 200.232 157.102 200.141 156.99 200.141H155.314C155.202 200.141 155.111 200.232 155.111 200.345V201.187C155.111 201.3 155.202 201.391 155.314 201.391Z" fill="#3F3D56"/>
<path d="M151.15 201.391H152.826C152.938 201.391 153.029 201.3 153.029 201.187V200.345C153.029 200.232 152.938 200.141 152.826 200.141H151.15C151.038 200.141 150.947 200.232 150.947 200.345V201.187C150.947 201.3 151.038 201.391 151.15 201.391Z" fill="#3F3D56"/>
<path d="M146.985 201.391H148.661C148.773 201.391 148.864 201.3 148.864 201.187V200.345C148.864 200.232 148.773 200.141 148.661 200.141H146.985C146.873 200.141 146.782 200.232 146.782 200.345V201.187C146.782 201.3 146.873 201.391 146.985 201.391Z" fill="#3F3D56"/>
<path d="M174.888 203.889H191.14C191.253 203.889 191.344 203.798 191.344 203.686V202.843C191.344 202.731 191.253 202.64 191.14 202.64H174.888C174.776 202.64 174.685 202.731 174.685 202.843V203.686C174.685 203.798 174.776 203.889 174.888 203.889Z" fill="#3F3D56"/>
<path d="M230.877 102.008C232.245 102.008 233.355 100.874 233.355 99.4748C233.355 98.0756 232.245 96.9414 230.877 96.9414C229.508 96.9414 228.398 98.0756 228.398 99.4748C228.398 100.874 229.508 102.008 230.877 102.008Z" fill="#3F3D56"/>
<path d="M222.316 102.008C223.685 102.008 224.794 100.874 224.794 99.4748C224.794 98.0756 223.685 96.9414 222.316 96.9414C220.947 96.9414 219.838 98.0756 219.838 99.4748C219.838 100.874 220.947 102.008 222.316 102.008Z" fill="#3F3D56"/>
<path d="M213.755 102.008C215.123 102.008 216.233 100.874 216.233 99.4748C216.233 98.0756 215.123 96.9414 213.755 96.9414C212.386 96.9414 211.276 98.0756 211.276 99.4748C211.276 100.874 212.386 102.008 213.755 102.008Z" fill="#3F3D56"/>
<path d="M126.481 97.0302C126.481 97.09 126.493 97.1494 126.515 97.2048C126.538 97.2603 126.571 97.3107 126.614 97.3533C126.656 97.3958 126.706 97.4296 126.761 97.4528C126.816 97.476 126.876 97.488 126.935 97.4883H133.016C133.136 97.4855 133.25 97.4358 133.334 97.3498C133.418 97.2638 133.465 97.1483 133.465 97.0281C133.465 96.9078 133.418 96.7924 133.334 96.7064C133.25 96.6204 133.136 96.5707 133.016 96.5679H126.935C126.814 96.5693 126.698 96.6188 126.613 96.7054C126.528 96.792 126.481 96.9088 126.481 97.0302Z" fill="#3F3D56"/>
<path d="M126.481 100.483C126.481 100.604 126.528 100.721 126.613 100.807C126.698 100.894 126.814 100.943 126.935 100.945H133.016C133.136 100.942 133.25 100.892 133.334 100.806C133.418 100.72 133.465 100.605 133.465 100.485C133.465 100.364 133.418 100.249 133.334 100.163C133.25 100.077 133.136 100.027 133.016 100.024H126.935C126.876 100.025 126.816 100.037 126.761 100.06C126.706 100.083 126.656 100.117 126.614 100.159C126.571 100.202 126.538 100.252 126.515 100.308C126.493 100.363 126.481 100.423 126.481 100.483Z" fill="#3F3D56"/>
<path d="M145.947 227.373C145.856 227.419 145.764 227.464 145.672 227.506C145.094 227.793 144.51 228.076 143.923 228.356C142.166 229.193 140.386 229.988 138.584 230.742C133.843 232.725 128.978 234.399 124.02 235.752C123.187 230.559 122.379 218.31 121.605 209.302C121.459 207.607 121.313 206.029 121.167 204.633C121.029 202.802 120.766 200.982 120.38 199.186C120.342 199.045 120.288 198.91 120.218 198.782C120.297 199.502 120.38 201.652 120.459 204.633C120.501 206.029 120.538 207.607 120.58 209.302C120.776 217.973 120.98 229.772 121.184 236.489C120.605 236.631 120.022 236.772 119.439 236.906C119.073 236.993 118.702 237.076 118.331 237.156C117.881 237.255 117.432 237.355 116.982 237.447C116.511 237.547 116.041 237.643 115.57 237.734C107.879 239.245 100.06 240.004 92.2227 240C91.7021 240 91.1857 239.996 90.6651 239.992C90.5068 239.992 90.3486 239.988 90.1862 239.983C89.728 239.975 89.2533 239.967 88.7702 239.954C79.5083 239.698 70.307 238.372 61.3498 236.002L61.7121 209.302L61.7746 204.633L61.7996 202.863C61.5933 203.433 61.4698 204.029 61.4331 204.633C61.2873 205.77 61.1374 207.382 60.9875 209.302C60.4169 216.699 59.8297 228.63 59.2216 235.419C52.0209 233.37 46.7567 231.5 40.1765 228.21C39.9224 228.085 39.6642 227.956 39.4102 227.827C39.456 227.506 39.5059 227.185 39.5518 226.856C40.2972 221.675 39.4185 214.933 40.2431 209.302C40.872 204.958 41.5217 200.785 42.1755 197.245C42.9668 192.985 43.7706 189.636 44.566 188.008C45.4823 186.13 46.3985 184.281 47.2856 182.511C47.6688 181.748 48.045 181 48.4142 180.266C48.6141 179.87 48.814 179.479 49.0098 179.095C49.901 177.35 50.7423 175.739 51.5128 174.31C52.0542 173.307 52.554 172.399 53.0121 171.603C53.5493 170.666 54.0241 169.891 54.4156 169.304C57.3071 164.921 61.6095 161.658 66.6098 160.054L66.7347 160.021L66.8555 160.071L66.9929 160.134L74.9309 157.231L78.475 148.697L96.6789 147.577L99.6192 149.813L101.123 150.959L102.726 152.179L105.675 154.424L106.512 154.682L107.757 155.065L116.274 157.681L116.361 157.643L116.486 157.676C121.036 159.133 125.019 161.972 127.881 165.798C128.164 166.164 128.426 166.543 128.68 166.926C129.372 167.951 130.305 169.571 131.404 171.603C131.858 172.44 132.337 173.348 132.841 174.31C133.145 174.889 135.769 183.077 138.322 191.44C140.708 199.269 143.032 207.253 143.336 209.302C143.39 209.681 143.448 210.064 143.503 210.443C143.848 212.813 144.19 215.199 144.519 217.527C145.006 220.98 145.481 224.312 145.935 227.289C145.939 227.319 145.943 227.344 145.947 227.373Z" fill="#0077C1"/>
<path opacity="0.2" d="M126.656 197.226L123.117 183.569L119.992 195.354L126.656 197.226Z" fill="black"/>
<path d="M6.8121 197.068C6.99559 197.602 7.34364 198.064 7.8063 198.388C8.26896 198.712 8.8224 198.881 9.38718 198.871L20.4202 198.587C20.9891 198.576 21.5392 198.381 21.9881 198.032C22.4371 197.682 22.7609 197.197 22.9111 196.648L24.4724 179.953C25.0263 180.204 25.6293 180.328 26.2373 180.315C27.3041 180.289 28.3166 179.839 29.052 179.066C29.7874 178.293 30.1855 177.259 30.1587 176.192C30.132 175.125 29.6825 174.113 28.9092 173.377C28.1359 172.642 27.1022 172.244 26.0354 172.271C25.7924 172.27 25.55 172.295 25.3123 172.346C25.0539 172.066 24.7397 171.844 24.3901 171.693C24.0405 171.542 23.6632 171.466 23.2824 171.47L6.31106 171.908C6.17028 171.913 6.03021 171.931 5.89243 171.96C5.52025 172.03 5.16725 172.178 4.85719 172.395C4.54713 172.612 4.2872 172.894 4.0949 173.22C3.90261 173.546 3.78241 173.909 3.74239 174.286C3.70237 174.662 3.74346 175.043 3.8629 175.402L6.8121 197.068ZM24.7925 178.819L25.9035 174.841C26.0299 174.381 26.0328 173.896 25.912 173.435C25.9659 173.435 26.0135 173.41 26.0674 173.41C26.8291 173.394 27.5661 173.681 28.1166 174.207C28.6671 174.734 28.9863 175.458 29.0041 176.22C29.022 176.981 28.737 177.719 28.2118 178.271C27.6865 178.823 26.9638 179.144 26.2021 179.164C25.7097 179.179 25.2223 179.06 24.7925 178.819Z" fill="#2F2E41"/>
<path d="M5.89258 171.96C6.25415 174.028 10.3193 175.481 15.2073 175.228C19.7021 175.021 23.3774 173.443 24.0507 171.572C23.8015 171.499 23.5424 171.464 23.2826 171.47L6.31121 171.908C6.17043 171.913 6.03036 171.931 5.89258 171.96Z" fill="#3F3D56"/>
<path d="M327.211 227.826C326.957 227.955 326.699 228.084 326.445 228.209C319.864 231.499 314.6 233.369 307.4 235.418C306.791 228.63 306.204 216.698 305.634 209.301C305.484 207.381 305.334 205.77 305.188 204.633C305.151 204.028 305.028 203.432 304.822 202.863L304.847 204.633L304.909 209.301L305.271 236.001C296.314 238.371 287.113 239.697 277.851 239.953C277.368 239.966 276.893 239.974 276.435 239.983C276.273 239.987 276.114 239.991 275.956 239.991C275.435 239.995 274.919 239.999 274.398 239.999C264.638 240.006 254.913 238.827 245.437 236.488C245.641 229.771 245.845 217.972 246.041 209.301C246.083 207.606 246.12 206.028 246.162 204.633C246.241 201.651 246.324 199.502 246.403 198.781C246.333 198.909 246.279 199.044 246.241 199.185C245.855 200.981 245.592 202.801 245.454 204.633C245.308 206.028 245.162 207.606 245.016 209.301C244.242 218.309 243.434 230.558 242.601 235.751C237.643 234.398 232.778 232.724 228.037 230.741C225.538 229.7 223.084 228.577 220.674 227.372C221.132 224.373 221.611 221.012 222.102 217.526C222.485 214.824 222.881 212.046 223.285 209.301C223.91 205.062 245.133 159.279 250.135 157.676L250.26 157.642L250.347 157.68L258.864 155.064L260.109 154.681L260.946 154.423L263.895 152.178L265.498 150.958L267.002 149.813L269.942 147.576L288.146 148.696L291.69 157.23L299.628 160.133L299.766 160.07L299.886 160.02L300.011 160.054C305.012 161.657 309.314 164.92 312.206 169.303C312.597 169.891 313.072 170.665 313.609 171.602C314.067 172.398 314.567 173.306 315.108 174.309C315.879 175.738 316.72 177.35 317.611 179.095C317.807 179.478 318.007 179.869 318.207 180.265C318.578 180.998 318.954 181.746 319.336 182.51C320.223 184.28 321.139 186.129 322.055 188.007C322.851 189.635 323.654 192.984 324.446 197.244C325.099 200.784 325.749 204.957 326.378 209.301C327.203 214.932 326.324 221.674 327.069 226.855C327.115 227.184 327.165 227.505 327.211 227.826Z" fill="#0077C1"/>
<path d="M273.821 144.513C285.514 144.513 294.993 135.034 294.993 123.341C294.993 111.648 285.514 102.169 273.821 102.169C262.128 102.169 252.649 111.648 252.649 123.341C252.649 135.034 262.128 144.513 273.821 144.513Z" fill="#FFB6B6"/>
<path opacity="0.2" d="M239.964 197.226L243.503 183.569L246.627 195.354L239.964 197.226Z" fill="black"/>
<path d="M334.133 188.328C332.866 205.769 334.178 213.449 327.19 227.83C320.832 230.942 314.209 233.481 307.399 235.418C306.691 235.618 305.982 235.812 305.271 236.001C296.314 238.371 287.113 239.697 277.851 239.953C277.368 239.966 276.893 239.974 276.435 239.982C276.272 239.987 276.114 239.991 275.956 239.991C275.435 239.995 274.919 239.999 274.398 239.999C264.638 240.006 254.913 238.827 245.437 236.488C244.487 236.255 243.542 236.009 242.601 235.751C237.643 234.398 232.778 232.724 228.037 230.741C225.538 229.7 223.084 228.577 220.674 227.372C220.128 227.097 219.583 226.822 219.045 226.539C216.284 221.683 214.714 215.777 214.681 208.681C216.592 196.453 329.91 177.783 334.133 188.328Z" fill="#2F2E41"/>
<path opacity="0.2" d="M334.129 191.315C334.194 190.235 334.266 189.119 334.35 187.958C330.127 177.413 216.81 196.083 214.898 208.311C214.904 209.432 214.952 210.52 215.032 211.582C219.662 199.513 327.314 181.768 334.129 191.315Z" fill="black"/>
<path d="M211.862 189.15L221.163 184.5L213.412 163.572L211.37 153.018C211.104 151.646 210.484 150.369 209.57 149.313C208.656 148.257 207.481 147.459 206.162 146.999C204.843 146.539 203.427 146.433 202.055 146.692C200.682 146.951 199.402 147.566 198.341 148.475C196.77 149.822 195.783 151.727 195.59 153.787C195.396 155.848 196.01 157.903 197.303 159.519L204.886 168.998L211.862 189.15Z" fill="#FFB6B6"/>
<path d="M221.163 180.624L208.762 186.825L218.173 216.315C218.849 218.432 220.061 220.34 221.691 221.851C223.32 223.363 225.313 224.428 227.475 224.943C230.142 225.577 232.941 225.347 235.467 224.284C237.994 223.22 240.116 221.38 241.526 219.03L266.483 176.253C268.252 173.305 268.798 169.783 268.004 166.438C267.211 163.093 265.141 160.191 262.237 158.352C260.675 157.363 258.922 156.714 257.093 156.447C255.263 156.18 253.398 156.301 251.619 156.802C249.839 157.304 248.185 158.174 246.764 159.357C245.344 160.54 244.188 162.009 243.372 163.668L228.14 196.126L221.163 180.624Z" fill="#0077C1"/>
<path d="M87.473 143.052C100.339 143.052 110.768 132.622 110.768 119.757C110.768 106.891 100.339 96.4614 87.473 96.4614C74.6074 96.4614 64.1777 106.891 64.1777 119.757C64.1777 132.622 74.6074 143.052 87.473 143.052Z" fill="#FFB6B6"/>
<path d="M64.4576 103.703C66.3517 101.151 69.0741 99.3355 71.1564 96.9338C72.299 95.6159 73.2477 94.1228 74.5322 92.943C76.9187 90.7511 80.2563 89.8529 83.4947 89.7412C87.0439 89.65 90.5647 90.3957 93.7721 91.9179C96.9796 93.4401 99.7836 95.696 101.957 98.5031C103.65 97.5106 105.343 96.5181 107.036 95.5257C107.704 97.2858 108.373 99.0461 109.042 100.806C109.591 100.329 110.291 100.062 111.018 100.052C111.745 100.042 112.452 100.289 113.014 100.751C113.576 101.212 113.957 101.858 114.088 102.573C114.22 103.288 114.094 104.027 113.733 104.658C114.136 103.413 115.981 103.149 116.999 103.971C118.017 104.794 118.289 106.257 118.123 107.555C117.915 108.978 117.285 110.307 116.316 111.37C115.346 112.434 114.081 113.183 112.682 113.521C110.473 114.013 107.902 113.496 106.134 114.909C104.717 116.041 104.289 118.104 102.842 119.199C101.06 120.548 98.5402 119.924 96.3245 120.223C92.448 120.744 89.3785 124.709 89.8444 128.593C89.4936 127.367 89.1251 126.107 88.329 125.111C87.5329 124.116 86.1922 123.442 84.9713 123.808C82.9531 124.413 82.623 127.164 83.1121 129.213C84.4093 134.648 89.3255 143.433 89.3255 143.433C82.942 145.951 75.3368 143.57 70.4115 138.792C65.4862 134.014 62.921 127.248 61.8036 120.478C60.8561 114.736 60.9903 108.377 64.4576 103.703Z" fill="#2F2E41"/>
<path d="M300.354 135.012C304.786 124.851 302.275 115.501 296.872 110.54V110.536C294.748 105.776 291.925 102.103 288.693 101.241C287.131 100.237 285.615 99.0583 283.932 98.4586C283.149 98.1652 282.314 98.0335 281.478 98.0714C280.642 98.1094 279.822 98.3161 279.068 98.6793L278.21 98.4502C277.481 96.5886 276.628 96.5511 275.678 97.7756C272.021 96.0722 268.727 95.3101 265.795 95.3101C256.233 95.3101 250.577 103.406 249.078 113.193L257.07 115.321L259.848 110.894L258.565 115.721L262.976 116.892C269.689 125.633 261.656 145.799 251.473 157.018C253.897 156.348 256.311 155.781 258.715 155.319L267.453 142.509L262.039 154.17C264.85 153.757 268.436 154.153 272.355 154.949C273.675 153.224 274.37 150.925 273.687 148.876C274.804 151.037 275.574 153.361 275.97 155.761C284.241 157.781 295.523 158.818 301.603 159.584C306.516 157.98 306.529 139.868 300.354 135.012Z" fill="#2F2E41"/>
<path d="M303.238 100.449C306.484 107.717 299.934 110.844 293.933 110.756C288.511 110.676 283.903 106.867 283.626 101.451C283.493 98.8504 284.399 96.3035 286.144 94.3706C287.889 92.4377 290.33 91.2771 292.931 91.1441C298.346 90.8673 301.026 95.4974 303.238 100.449Z" fill="#2F2E41"/>
<path d="M152.64 218.775L147.293 209.856L165.073 196.368L172.465 188.563C173.425 187.549 174.635 186.805 175.973 186.405C177.311 186.004 178.731 185.963 180.09 186.283C181.45 186.604 182.701 187.275 183.719 188.231C184.738 189.187 185.488 190.393 185.894 191.729C186.496 193.71 186.305 195.846 185.361 197.688C184.418 199.53 182.796 200.934 180.837 201.602L169.35 205.524L152.64 218.775Z" fill="#FFB6B6"/>
<path d="M156.505 218.481L148.179 225.419L145.935 227.289L145.672 227.506C145.093 227.793 144.51 228.077 143.923 228.356C142.166 229.193 140.386 229.988 138.584 230.742C133.843 232.725 128.978 234.399 124.02 235.752C123.079 236.01 122.134 236.256 121.184 236.489C120.605 236.631 120.022 236.772 119.439 236.906C119.072 236.993 118.702 237.076 118.331 237.156C117.881 237.256 117.432 237.355 116.982 237.447C116.511 237.547 116.041 237.643 115.57 237.734C114.304 236.53 113.295 235.08 112.607 233.473C111.918 231.867 111.563 230.137 111.563 228.389C111.563 228.276 111.563 228.16 111.568 228.043L112.905 193.755L113.496 178.558C113.587 175.122 115.019 171.857 117.485 169.461C119.951 167.066 123.256 165.73 126.694 165.739C127.094 165.739 127.489 165.76 127.881 165.798C128.164 166.164 128.426 166.543 128.68 166.926C129.372 167.951 130.305 169.571 131.404 171.603C131.858 172.44 132.337 173.348 132.841 174.31C133.145 174.889 135.769 183.077 138.322 191.44L137.197 200.173L135.165 215.916L143.503 210.443L149.375 206.587L150.07 207.749L151.882 210.772L155.38 216.603L156.505 218.481Z" fill="#0077C1"/>
<path d="M151.94 208.682C151.936 209.39 151.919 210.085 151.882 210.772C151.795 212.668 151.575 214.555 151.224 216.42C150.649 219.551 149.624 222.582 148.179 225.419C147.988 225.798 147.784 226.173 147.576 226.54C147.038 226.823 146.493 227.098 145.947 227.373C145.856 227.419 145.764 227.464 145.672 227.506C143.353 228.66 140.99 229.738 138.584 230.742C133.843 232.725 128.978 234.399 124.02 235.752C123.079 236.01 122.133 236.256 121.184 236.489C119.331 236.947 117.459 237.362 115.57 237.734C107.879 239.245 100.06 240.004 92.2225 240C91.702 240 91.1855 239.996 90.665 239.992C90.5067 239.992 90.3484 239.988 90.186 239.983C89.7279 239.975 89.2531 239.967 88.77 239.954C79.5081 239.698 70.3069 238.372 61.3496 236.002C60.6375 235.815 59.9281 235.62 59.2215 235.419C52.4123 233.482 45.7893 230.943 39.4308 227.831C32.4425 213.45 33.7543 205.77 32.4883 188.329C35.0871 181.836 79.0538 186.421 112.904 193.755C122.092 195.746 130.529 197.941 137.197 200.173C144.086 202.476 149.079 204.817 151.036 207.016C151.494 207.471 151.808 208.05 151.94 208.682Z" fill="#2F2E41"/>
<path opacity="0.2" d="M32.4908 191.315C32.4261 190.235 32.3538 189.119 32.2695 187.958C36.4925 177.413 149.81 196.083 151.721 208.311C151.716 209.432 151.668 210.52 151.588 211.582C146.958 199.513 39.3054 181.768 32.4908 191.315Z" fill="black"/>
<path fill-rule="evenodd" clip-rule="evenodd" d="M178 106.7C164.034 106.7 152.7 118.035 152.7 132C152.7 145.965 164.034 157.299 178 157.299C191.965 157.299 203.299 145.965 203.299 132C203.299 118.035 191.965 106.7 178 106.7ZM180.53 144.65H175.47V139.59H180.53V144.65ZM180.53 134.53H175.47V119.35H180.53V134.53Z" fill="white"/>
</g>
<defs>
<clipPath id="clip0_270_604">
<rect width="366.56" height="240" fill="white" transform="translate(0.219727)"/>
</clipPath>
</defs>
</svg>
