<svg width="326" height="240" viewBox="0 0 326 240" fill="none" xmlns="http://www.w3.org/2000/svg">
<g clip-path="url(#clip0_579_5735)">
<path opacity="0.1" d="M3.81934 115.065C8.95706 134.921 19.8241 152.085 36.9971 160.405C72.698 177.697 153.213 168.779 213.304 158.542C244.387 153.247 271.709 138.636 291.555 118.073L3.81934 115.065Z" fill="#0077C1"/>
<path opacity="0.1" d="M318.933 21.6009H285.962C284.398 21.6009 283.114 20.4415 283.114 19.0247C283.114 17.6079 284.398 16.4455 285.962 16.4455H291.665C290.097 16.4455 288.817 15.286 288.817 13.8662C288.817 12.4465 290.097 11.29 291.665 11.29H287.595C286.027 11.29 284.744 10.1305 284.744 8.71077C284.744 7.29102 286.027 6.13452 287.595 6.13452H304.804C300.985 4.52843 296.522 3.38671 291.378 2.78627C244.452 -2.66498 227.699 0.940597 221.79 4.64674C214.424 9.32377 206.241 12.5691 197.672 14.2123C168.721 19.6162 114.578 26.1175 65.5047 12.1418C41.1146 5.1821 22.9861 16.9276 12.1221 36.5616H324.66C324.251 30.8559 323.03 25.5851 320.788 20.9739C320.257 21.3838 319.604 21.6045 318.933 21.6009Z" fill="#0077C1"/>
<path opacity="0.1" d="M1.0245 73.62C-0.241903 85.1678 0.188584 96.8388 2.30227 108.262L291.778 117.842C299.746 109.578 306.516 100.237 311.891 90.0921L1.0245 73.62ZM115.516 98.3325H109.816C111.384 98.3325 112.667 99.4949 112.667 100.912C112.667 102.329 111.384 103.488 109.816 103.488H76.8451C75.2804 103.488 73.9967 102.329 73.9967 100.912C73.9967 99.4949 75.2804 98.3325 76.8451 98.3325H82.5478C80.9801 98.3325 79.6994 97.1731 79.6994 95.7563C79.6994 94.3395 80.9801 93.1771 82.5478 93.1771H78.4749C76.9072 93.1771 75.6235 92.0176 75.6235 90.6008C75.6235 89.184 76.9072 88.0216 78.4749 88.0216H111.446C113.013 88.0216 114.294 89.1811 114.294 90.6008C114.294 92.0206 113.013 93.1771 111.446 93.1771H115.516C117.083 93.1771 118.364 94.3365 118.364 95.7563C118.364 97.176 117.083 98.3325 115.516 98.3325Z" fill="#0077C1"/>
<path opacity="0.1" d="M324.671 36.739L8.63496 43.6899C4.78981 52.6313 2.24017 62.7412 1.06592 73.2177H319.134C321.204 67.0883 322.74 60.7913 323.725 54.3972C324.674 48.242 325.053 42.2879 324.671 36.739ZM65.2327 59.529H59.533C61.1007 59.529 62.3844 60.6914 62.3844 62.1082C62.3844 63.525 61.1007 64.6874 59.533 64.6874H26.5623C24.9976 64.6874 23.7139 63.525 23.7139 62.1082C23.7139 60.6914 24.9976 59.529 26.5623 59.529H32.2649C30.6973 59.529 29.4166 58.3695 29.4166 56.9527C29.4166 55.5359 30.6973 54.3735 32.2649 54.3735H28.192C26.6244 54.3735 25.3407 53.214 25.3407 51.7972C25.3407 50.3805 26.6244 49.218 28.192 49.218H61.1628C62.7304 49.218 64.0112 50.3775 64.0112 51.7972C64.0112 53.217 62.7304 54.3735 61.1628 54.3735H65.2327C66.8004 54.3735 68.0811 55.5359 68.0811 56.9527C68.0811 58.3695 66.8004 59.529 65.2327 59.529Z" fill="#0077C1"/>
<path opacity="0.1" d="M161.542 231.029C234.559 231.029 293.75 225.584 293.75 218.866C293.75 212.149 234.559 206.704 161.542 206.704C88.5252 206.704 29.3335 212.149 29.3335 218.866C29.3335 225.584 88.5252 231.029 161.542 231.029Z" fill="#0077C1"/>
<path d="M153.825 214.864C198.198 214.864 234.17 178.892 234.17 134.519C234.17 90.1451 198.198 54.1733 153.825 54.1733C109.451 54.1733 73.4795 90.1451 73.4795 134.519C73.4795 178.892 109.451 214.864 153.825 214.864Z" fill="#0077C1"/>
<path d="M195.982 174.894C195.982 187.577 176.043 175.978 154.666 175.978C133.29 175.978 111.668 187.098 111.668 174.415C111.668 167.183 118.559 157.124 128.445 149.819C135.894 144.313 145.041 140.37 154.229 140.37C163.678 140.37 172.934 144.639 180.317 150.499C189.635 157.888 195.982 167.815 195.982 174.894Z" fill="#444053"/>
<path d="M180.314 150.494C168.951 148.783 148.4 146.697 128.445 149.814C135.894 144.308 145.04 140.365 154.229 140.365C163.675 140.365 172.931 144.634 180.314 150.494Z" fill="#F6F8FB"/>
<path opacity="0.05" d="M111.668 77.8026C111.668 77.8026 87.4654 93.2753 87.6633 117.478C87.8613 141.68 111.668 77.8026 111.668 77.8026Z" fill="black"/>
<path d="M245.038 20.477C245.038 20.477 220.133 18.9773 223.07 36.4285C223.07 36.4285 222.479 39.5105 225.283 40.9125C225.283 40.9125 225.327 39.6199 227.835 40.0577C228.729 40.2072 229.638 40.2509 230.542 40.1878C231.764 40.1048 232.925 39.6249 233.849 38.8213C233.849 38.8213 240.85 35.9315 243.574 24.4878C243.574 24.4878 245.588 21.9914 245.508 21.3525L241.305 23.1449C241.305 23.1449 242.74 26.1767 241.601 28.6967C241.601 28.6967 241.465 23.2573 240.658 23.3727C240.495 23.3993 238.475 24.4227 238.475 24.4227C238.475 24.4227 240.944 29.7053 239.066 33.5416C239.066 33.5416 239.773 27.0344 237.688 24.8042L234.73 26.5316C234.73 26.5316 237.617 31.9858 235.659 36.4373C235.659 36.4373 236.162 29.6107 234.109 26.9516L231.426 29.0428C231.426 29.0428 234.138 34.4201 232.485 38.1114C232.485 38.1114 232.269 30.1638 230.846 29.5634C230.846 29.5634 228.501 31.6338 228.143 32.4827C228.143 32.4827 230.001 36.3841 228.85 38.4427C228.85 38.4427 228.143 33.1482 227.563 33.1187C227.563 33.1187 225.227 36.6266 224.981 39.0343C224.981 39.0343 225.085 35.4553 226.995 32.7844C226.995 32.7844 224.736 33.1719 223.419 34.639C223.419 34.639 223.783 32.1574 227.56 31.9414C227.56 31.9414 229.492 29.2794 230.009 29.1197C230.009 29.1197 226.238 28.8032 223.952 29.8177C223.952 29.8177 225.963 27.4781 230.699 28.54L233.361 26.3808C233.361 26.3808 228.397 25.7005 226.291 26.4517C226.291 26.4517 228.714 24.3813 234.073 25.8898L236.957 24.1654C236.957 24.1654 232.725 23.2543 230.202 23.5738C230.202 23.5738 232.864 22.1393 237.8 23.6951L239.871 22.7693C239.871 22.7693 236.768 22.16 235.86 22.0653C234.952 21.9707 234.905 21.7163 234.905 21.7163C236.875 21.3959 238.896 21.6304 240.74 22.3936C240.74 22.3936 245.112 20.752 245.038 20.477Z" fill="#00D6A1"/>
<path d="M219.495 12.7186C219.495 12.7186 208.255 12.0383 209.568 19.9238C209.568 19.9238 209.305 21.317 210.568 21.9499C210.568 21.9499 210.586 21.3584 211.721 21.5654C212.125 21.6318 212.535 21.6517 212.943 21.6246C213.495 21.5851 214.02 21.3683 214.44 21.0064C214.44 21.0064 217.602 19.699 218.832 14.5288C218.832 14.5288 219.743 13.4018 219.719 13.112L217.82 13.9224C217.82 13.9224 218.471 15.2919 217.959 16.4306C217.959 16.4306 217.897 13.9727 217.534 14.0319C217.46 14.0319 216.546 14.5051 216.546 14.5051C216.546 14.5051 217.664 16.8921 216.821 18.6253C216.821 18.6253 217.14 15.6853 216.2 14.6767L214.863 15.4575C214.863 15.4575 216.167 17.9243 215.283 19.9357C215.283 19.9357 215.507 16.8507 214.582 15.6498L213.369 16.5933C213.369 16.5933 214.593 19.0217 213.848 20.6899C213.848 20.6899 213.751 17.0991 213.106 16.827C213.106 16.827 212.047 17.7617 211.884 18.1462C211.884 18.1462 212.724 19.9209 212.204 20.8407C212.204 20.8407 211.884 18.4479 211.612 18.439C211.612 18.439 210.556 20.0214 210.447 21.101C210.498 20.0963 210.811 19.1225 211.355 18.2763C210.746 18.3915 210.185 18.6825 209.74 19.1134C209.74 19.1134 209.902 17.9924 211.615 17.8948C211.615 17.8948 212.488 16.6939 212.721 16.6199C212.721 16.6199 211.017 16.478 209.985 16.9364C209.985 16.9364 210.893 15.8775 213.035 16.3449L214.218 15.3717C214.218 15.3717 211.976 15.076 211.023 15.4013C211.023 15.4013 212.118 14.4667 214.54 15.1499L215.842 14.369C215.842 14.369 213.931 13.9579 212.789 14.1058C212.789 14.1058 213.993 13.458 216.223 14.162L217.155 13.742C217.155 13.742 215.753 13.4669 215.345 13.4255C214.937 13.3841 214.91 13.2687 214.91 13.2687C215.798 13.121 216.709 13.2235 217.542 13.5645C217.542 13.5645 219.527 12.8428 219.495 12.7186Z" fill="#00D6A1"/>
<path opacity="0.1" d="M317.717 215.923C322.116 215.923 325.683 215.321 325.683 214.578C325.683 213.834 322.116 213.232 317.717 213.232C313.318 213.232 309.752 213.834 309.752 214.578C309.752 215.321 313.318 215.923 317.717 215.923Z" fill="#0077C1"/>
<path opacity="0.1" d="M14.1509 238.311C18.5501 238.311 22.1163 237.709 22.1163 236.965C22.1163 236.222 18.5501 235.619 14.1509 235.619C9.75177 235.619 6.18555 236.222 6.18555 236.965C6.18555 237.709 9.75177 238.311 14.1509 238.311Z" fill="#0077C1"/>
<path opacity="0.1" d="M60.3907 240C64.7899 240 68.3561 239.397 68.3561 238.654C68.3561 237.911 64.7899 237.308 60.3907 237.308C55.9915 237.308 52.4253 237.911 52.4253 238.654C52.4253 239.397 55.9915 240 60.3907 240Z" fill="#0077C1"/>
<path d="M300.284 231.011C306.853 231.011 312.177 230.111 312.177 229C312.177 227.889 306.853 226.989 300.284 226.989C293.715 226.989 288.391 227.889 288.391 229C288.391 230.111 293.715 231.011 300.284 231.011Z" fill="#00D6A1"/>
<path d="M305.2 225.714C305.743 225.271 306.139 224.674 306.336 224.001C306.481 223.324 306.191 222.507 305.543 222.259C304.816 221.981 304.038 222.487 303.449 222.996C302.86 223.504 302.183 224.084 301.411 223.978C301.808 223.618 302.105 223.162 302.273 222.653C302.441 222.145 302.474 221.601 302.369 221.076C302.336 220.858 302.244 220.654 302.103 220.484C301.698 220.053 300.967 220.236 300.482 220.576C298.944 221.659 298.515 223.747 298.507 225.628C298.353 224.951 298.483 224.244 298.48 223.558C298.477 222.871 298.285 222.079 297.699 221.715C297.336 221.521 296.928 221.425 296.516 221.437C295.824 221.41 295.055 221.478 294.582 221.984C293.99 222.614 294.147 223.667 294.658 224.35C295.17 225.033 295.945 225.477 296.658 225.953C297.232 226.294 297.721 226.76 298.089 227.317C298.133 227.395 298.168 227.477 298.196 227.562H302.529C303.499 227.069 304.397 226.448 305.2 225.714Z" fill="#00D6A1"/>
<path d="M17.8693 200.912C17.8693 200.912 19.4931 203.036 17.118 206.237C14.7429 209.437 12.7848 212.152 13.5686 214.152C13.5686 214.152 17.1505 208.195 20.0758 208.109C23.0011 208.023 21.0755 204.494 17.8693 200.912Z" fill="#00D6A1"/>
<path opacity="0.1" d="M17.8693 200.912C18.0103 201.118 18.1218 201.342 18.2006 201.578C21.046 204.92 22.5604 208.041 19.8274 208.118C17.2777 208.192 14.2075 212.747 13.4888 213.897C13.5139 213.986 13.5435 214.074 13.5775 214.161C13.5775 214.161 17.1594 208.203 20.0847 208.118C23.01 208.032 21.0756 204.494 17.8693 200.912Z" fill="black"/>
<path d="M20.8888 203.619C20.8888 204.367 20.8031 204.974 20.6995 204.974C20.596 204.974 20.5132 204.382 20.5132 203.619C20.5132 202.856 20.6167 203.223 20.7232 203.223C20.8297 203.223 20.8888 202.871 20.8888 203.619Z" fill="#FFD037"/>
<path d="M21.9122 204.512C21.2555 204.87 20.6847 205.086 20.6344 204.994C20.5841 204.903 21.0781 204.542 21.7347 204.184C22.3913 203.826 22.131 204.086 22.1813 204.184C22.2316 204.281 22.5806 204.154 21.9122 204.512Z" fill="#FFD037"/>
<path d="M9.28547 200.912C9.28547 200.912 7.66163 203.036 10.0338 206.237C12.406 209.437 14.367 212.152 13.5832 214.152C13.5832 214.152 9.9983 208.195 7.07598 208.109C4.15366 208.023 6.07624 204.494 9.28547 200.912Z" fill="#00D6A1"/>
<path opacity="0.1" d="M9.28536 200.912C9.14305 201.117 9.03144 201.341 8.95409 201.578C6.10867 204.92 4.59131 208.041 7.32729 208.118C9.87397 208.192 12.9471 212.747 13.6629 213.897C13.6388 213.986 13.6102 214.074 13.5771 214.161C13.5771 214.161 9.99228 208.203 7.06996 208.118C4.14764 208.032 6.07613 204.494 9.28536 200.912Z" fill="black"/>
<path d="M6.26562 203.619C6.26562 204.367 6.34845 204.974 6.45197 204.974C6.55549 204.974 6.63831 204.382 6.63831 203.619C6.63831 202.856 6.53479 203.223 6.43126 203.223C6.32774 203.223 6.26562 202.871 6.26562 203.619Z" fill="#FFD037"/>
<path d="M5.22744 204.512C5.88407 204.87 6.45789 205.086 6.50817 204.994C6.55846 204.903 6.0645 204.542 5.40787 204.184C4.75123 203.826 5.00856 204.086 4.96124 204.184C4.91391 204.281 4.5708 204.154 5.22744 204.512Z" fill="#FFD037"/>
<path d="M6.7832 213.883C6.7832 213.883 11.3264 213.743 12.6988 212.767C14.0713 211.791 19.6881 210.629 20.0283 212.176C20.3684 213.723 26.8549 219.955 21.7261 219.996C16.5972 220.038 9.80905 219.195 8.44254 218.364C7.07603 217.532 6.7832 213.883 6.7832 213.883Z" fill="#A8A8A8"/>
<path opacity="0.2" d="M21.8119 219.467C16.683 219.508 9.89482 218.665 8.52831 217.834C7.48716 217.201 7.07307 214.927 6.93405 213.877H6.7832C6.7832 213.877 7.07899 217.541 8.43662 218.372C9.79426 219.204 16.5913 220.047 21.7202 220.005C23.1991 220.005 23.7108 219.464 23.6842 218.686C23.4771 219.162 22.9151 219.458 21.8119 219.467Z" fill="black"/>
<path d="M125.26 123.984C126.789 123.898 133.985 123.356 138.556 120.749C139.29 120.317 140.119 120.073 140.97 120.038C142.423 119.996 144.095 120.603 143.025 123.999C141.29 129.554 131.219 135.805 124.969 135.459C118.958 135.125 111.827 132.703 107.118 124.187C106.667 123.367 106.445 122.442 106.475 121.507C106.53 119.788 107.155 117.634 110.381 120.035C114.741 123.278 123.013 123.893 124.672 123.984C124.868 123.994 125.064 123.994 125.26 123.984Z" fill="#444053"/>
<path d="M183.078 123.984C184.606 123.898 191.802 123.356 196.373 120.749C197.107 120.317 197.936 120.073 198.787 120.038C200.241 119.996 201.913 120.603 200.842 123.999C199.108 129.554 189.036 135.805 182.786 135.459C176.775 135.125 169.644 132.703 164.936 124.187C164.484 123.367 164.262 122.442 164.292 121.507C164.347 119.788 164.972 117.634 168.199 120.035C172.559 123.278 180.83 123.893 182.489 123.984C182.685 123.994 182.882 123.994 183.078 123.984Z" fill="#444053"/>
</g>
<defs>
<clipPath id="clip0_579_5735">
<rect width="325.365" height="240" fill="white" transform="translate(0.317383)"/>
</clipPath>
</defs>
</svg>
