<svg width="323" height="240" viewBox="0 0 323 240" fill="none" xmlns="http://www.w3.org/2000/svg">
<g clip-path="url(#clip0_88_6836)">
<path d="M235.419 228.036H229.03L225.989 203.392H235.419V228.036Z" fill="#FFB8B8"/>
<path d="M238.791 239.106H234.209L233.391 234.78L231.297 239.106H219.144C218.562 239.106 217.994 238.92 217.525 238.575C217.056 238.23 216.709 237.744 216.536 237.188C216.363 236.631 216.372 236.034 216.562 235.484C216.752 234.933 217.113 234.458 217.592 234.127L227.297 227.424V223.051L237.504 223.66L238.791 239.106Z" fill="#2F2E41"/>
<path d="M273.378 219.973L268.25 223.785L251.105 205.824L258.672 200.197L273.378 219.973Z" fill="#FFB8B8"/>
<path d="M282.689 226.844L279.012 229.578L275.775 226.595L276.675 231.316L266.924 238.568C266.456 238.915 265.89 239.104 265.307 239.107C264.725 239.11 264.157 238.927 263.686 238.584C263.215 238.241 262.866 237.757 262.689 237.202C262.513 236.647 262.519 236.05 262.706 235.498L266.494 224.329L263.885 220.819L272.439 215.217L282.689 226.844Z" fill="#2F2E41"/>
<path d="M242.858 100.886C242.858 100.886 254.98 111.359 249.387 141.216L242.559 170.471L264.828 207.416L257.727 216.054L228.777 176.066L218.286 151.457L215.342 107.658L242.858 100.886Z" fill="#2F2E41"/>
<path d="M224.068 158.47L223.339 169.762L225.57 217.883L236.07 216.054L238.077 181.793L224.068 158.47Z" fill="#2F2E41"/>
<path d="M89.3247 233.831L95.0386 233.83L97.7565 211.792L89.324 211.792L89.3247 233.831Z" fill="#FFB6B6"/>
<path d="M87.8674 231.965L89.4757 231.965L95.7546 229.411L99.1198 231.965H99.1203C101.022 231.965 102.846 232.72 104.191 234.065C105.536 235.41 106.291 237.234 106.291 239.135V239.368L87.8678 239.369L87.8674 231.965Z" fill="#2F2E41"/>
<path d="M111.467 230.23L117.04 231.488L124.546 210.59L116.32 208.732L111.467 230.23Z" fill="#FFB6B6"/>
<path d="M110.456 228.089L112.025 228.443L118.712 227.336L121.432 230.567L121.433 230.568C123.288 230.987 124.9 232.125 125.916 233.733C126.931 235.341 127.267 237.287 126.848 239.142L126.797 239.369L108.825 235.311L110.456 228.089Z" fill="#2F2E41"/>
<path d="M82.0882 99.0974C79.4094 107.177 79.6926 115.947 82.7322 125.36L84.0315 178.355C84.0315 178.355 82.0956 213.108 88.3425 225.338H97.4022L101.888 175.181L102.451 141.516L121.874 169.918L109.503 224.518L120.654 225.515L140.729 166.261L115.96 108.775L82.0882 99.0974Z" fill="#2F2E41"/>
<path d="M186.567 76.084C193.497 69.8394 203.804 66.6996 212.45 70.2011C203.581 75.125 196.74 83.0273 193.137 92.5098C191.76 96.1719 190.611 100.388 187.225 102.349C185.119 103.569 182.498 103.628 180.136 103.039C177.774 102.45 175.609 101.27 173.474 100.101L172.866 100.087C175.594 91.1669 179.638 82.3285 186.567 76.084Z" fill="#E6E6E6"/>
<path d="M212.402 70.3907C204.745 71.3803 197.594 74.7574 191.965 80.0425C190.733 81.1588 189.685 82.4622 188.859 83.9049C188.099 85.3362 187.737 86.9448 187.81 88.5634C187.847 90.074 188.061 91.6148 187.73 93.1082C187.55 93.8701 187.21 94.5852 186.734 95.2067C186.258 95.8282 185.655 96.3421 184.967 96.7145C183.275 97.6871 181.334 97.9937 179.426 98.2276C177.307 98.4873 175.102 98.7234 173.268 99.9118C173.046 100.056 172.836 99.7025 173.058 99.5588C176.248 97.4913 180.286 98.2435 183.717 96.8637C185.318 96.2198 186.734 95.0896 187.236 93.3808C187.674 91.8865 187.456 90.2974 187.405 88.7682C187.311 87.1903 187.604 85.6133 188.26 84.175C189.01 82.6949 190.007 81.3532 191.207 80.2074C193.867 77.5848 196.924 75.3968 200.264 73.7235C204.066 71.7927 208.17 70.5265 212.398 69.9796C212.66 69.9458 212.662 70.3572 212.402 70.3907H212.402Z" fill="white"/>
<path d="M193.677 78.2341C192.919 77.1694 192.563 75.8696 192.675 74.5671C192.786 73.2645 193.357 72.0439 194.285 71.1233C194.473 70.9377 194.77 71.2218 194.582 71.4077C193.716 72.2634 193.184 73.4004 193.083 74.6136C192.982 75.8267 193.318 77.0361 194.03 78.0234C194.185 78.2381 193.831 78.4476 193.677 78.2341V78.2341Z" fill="white"/>
<path d="M187.69 87.8C190.322 88.2663 193.032 87.7235 195.281 86.2801C195.504 86.1369 195.714 86.4901 195.492 86.6331C193.149 88.1308 190.327 88.6898 187.59 88.1987C187.329 88.1517 187.431 87.7533 187.69 87.8V87.8Z" fill="white"/>
<path d="M204.099 72.3369C204.307 72.81 204.628 73.2241 205.036 73.5421C205.443 73.8601 205.923 74.0719 206.432 74.1586C206.693 74.2023 206.591 74.6007 206.332 74.5573C205.769 74.4589 205.24 74.2243 204.789 73.874C204.338 73.5236 203.98 73.0683 203.746 72.5476C203.72 72.5004 203.712 72.445 203.726 72.3926C203.739 72.3403 203.772 72.2949 203.817 72.2657C203.864 72.2381 203.92 72.23 203.973 72.2433C204.025 72.2567 204.071 72.2903 204.099 72.3369Z" fill="white"/>
<path d="M221.971 100.315C221.807 100.293 221.643 100.27 221.477 100.25C219.271 99.957 217.045 99.8439 214.821 99.9117C214.649 99.9142 214.474 99.9193 214.303 99.9267C208.946 100.147 203.677 101.36 198.763 103.504C196.808 104.359 194.921 105.361 193.119 106.502C190.629 108.078 188.056 109.985 185.273 110.628C184.984 110.698 184.69 110.751 184.394 110.785L172.897 100.83C172.882 100.794 172.865 100.761 172.85 100.725L172.373 100.348C172.461 100.283 172.555 100.217 172.644 100.152C172.695 100.114 172.749 100.078 172.801 100.04C172.836 100.015 172.871 99.9903 172.901 99.966C172.913 99.9577 172.924 99.9495 172.934 99.9439C172.964 99.9196 172.995 99.9002 173.023 99.8785C173.545 99.5089 174.07 99.1423 174.599 98.7788C174.601 98.7761 174.601 98.7761 174.606 98.7757C178.61 95.9669 182.934 93.643 187.485 91.8527C187.622 91.8011 187.76 91.7468 187.902 91.6998C189.952 90.9376 192.061 90.3442 194.207 89.9256C195.383 89.7002 196.57 89.5344 197.763 89.4289C200.846 89.1624 203.951 89.3824 206.965 90.0809C212.974 91.4742 218.471 94.7738 221.726 99.9195C221.809 100.051 221.89 100.181 221.971 100.315Z" fill="#E6E6E6"/>
<path d="M221.819 100.439C215.109 96.6185 207.366 95.0096 199.69 95.8406C198.034 95.9901 196.412 96.3997 194.884 97.0543C193.416 97.74 192.159 98.8063 191.242 100.142C190.363 101.371 189.605 102.73 188.442 103.723C187.839 104.223 187.138 104.589 186.383 104.799C185.629 105.008 184.839 105.056 184.064 104.939C182.128 104.697 180.394 103.773 178.729 102.811C176.881 101.743 174.979 100.604 172.799 100.449C172.535 100.43 172.58 100.021 172.843 100.04C176.636 100.31 179.407 103.342 182.977 104.305C184.643 104.755 186.454 104.706 187.883 103.643C189.133 102.714 189.915 101.314 190.795 100.062C191.67 98.7455 192.854 97.6632 194.244 96.9098C195.734 96.1795 197.337 95.7081 198.985 95.5158C202.688 95.0236 206.446 95.1167 210.121 95.7918C214.318 96.539 218.358 97.9989 222.063 100.108C222.292 100.239 222.046 100.568 221.819 100.439L221.819 100.439Z" fill="white"/>
<path d="M202.146 95.4276C202.181 94.1207 202.68 92.8691 203.553 91.896C204.426 90.923 205.617 90.2921 206.912 90.1158C207.174 90.0811 207.241 90.4869 206.978 90.5217C205.772 90.6836 204.663 91.2715 203.851 92.1792C203.04 93.0869 202.58 94.2547 202.555 95.4718C202.549 95.7363 202.14 95.6905 202.146 95.4276Z" fill="white"/>
<path d="M191.606 99.4608C193.426 101.417 195.917 102.616 198.582 102.817C198.846 102.837 198.801 103.246 198.538 103.226C195.765 103.011 193.176 101.759 191.286 99.7185C191.106 99.5239 191.427 99.2672 191.606 99.4608Z" fill="white"/>
<path d="M214.018 96.9936C213.899 97.4964 213.906 98.0208 214.04 98.5199C214.174 99.019 214.429 99.4771 214.784 99.853C214.966 100.045 214.645 100.302 214.463 100.111C214.074 99.6936 213.792 99.1874 213.643 98.6363C213.494 98.0852 213.482 97.506 213.609 96.9493C213.616 96.8959 213.644 96.8473 213.686 96.8134C213.728 96.7796 213.782 96.763 213.835 96.7671C213.889 96.7732 213.939 96.8005 213.973 96.8429C214.007 96.8853 214.023 96.9394 214.018 96.9936Z" fill="white"/>
<path d="M20.0286 233.43C19.4889 235.455 18.0707 237.141 16.3585 238.37C16.0794 238.571 15.7928 238.757 15.5024 238.932C15.4131 238.984 15.3238 239.04 15.2307 239.088C15.1302 239.148 15.0297 239.203 14.9292 239.256H6.87817C6.73301 238.962 6.59157 238.664 6.45013 238.37C2.99968 231.119 0.57655 223.295 0.989711 215.326C1.15363 212.235 1.80302 209.189 2.91407 206.299C5.12504 200.541 9.15986 195.557 14.7096 193.049C14.8473 192.985 14.9925 192.922 15.1339 192.862C15.0893 193.023 15.0446 193.179 14.9999 193.339C14.4045 195.484 13.9838 197.673 13.7418 199.886C13.7195 200.057 13.7009 200.229 13.686 200.404C13.1572 205.74 13.6268 211.129 15.0707 216.294C15.0744 216.305 15.0781 216.32 15.0818 216.331C15.3982 217.473 15.7655 218.599 16.1836 219.707C16.5111 220.581 16.8647 221.445 17.2519 222.294C18.8673 225.856 21.0336 229.652 20.0286 233.43Z" fill="#E6E6E6"/>
<path d="M15.2345 193.03C15.1563 193.134 15.0781 193.235 15 193.339C13.3651 195.506 11.9769 197.848 10.8609 200.322C10.8014 200.445 10.7456 200.567 10.6972 200.694C9.16809 204.149 8.18609 207.821 7.78643 211.578C7.78211 211.603 7.77962 211.63 7.77899 211.656C7.68594 212.534 7.6301 213.42 7.60777 214.306C7.525 215.966 7.70463 217.63 8.14004 219.234C8.53705 220.544 9.23274 221.745 10.1723 222.74C10.2654 222.841 10.3585 222.941 10.459 223.038C10.5334 223.116 10.6153 223.194 10.6934 223.269C11.4453 223.987 12.2679 224.653 12.9751 225.424C13.2993 225.769 13.592 226.143 13.8498 226.541C14.2613 227.207 14.5271 227.953 14.6298 228.729C14.7324 229.505 14.6696 230.294 14.4454 231.044C13.9392 232.928 12.7816 234.517 11.5979 236.032C11.0061 236.791 10.3957 237.558 9.86712 238.37C9.67359 238.66 9.49491 238.954 9.33116 239.256H8.86216C9.01849 238.954 9.18971 238.66 9.37582 238.37C10.7344 236.229 12.6662 234.391 13.6675 232.035C14.3449 230.445 14.5496 228.644 13.6935 227.084C13.4426 226.631 13.139 226.208 12.789 225.826C12.1079 225.056 11.2927 224.397 10.552 223.701C10.3659 223.526 10.1835 223.347 10.0086 223.161C9.0811 222.219 8.36539 221.089 7.90929 219.848C7.39276 218.272 7.14856 216.619 7.18719 214.961C7.18719 213.904 7.24302 212.839 7.34724 211.782C7.35841 211.648 7.3733 211.511 7.38819 211.373C8.14939 204.721 10.6774 198.394 14.7097 193.049C14.7841 192.944 14.8623 192.844 14.9405 192.743C15.1005 192.535 15.3945 192.825 15.2345 193.03Z" fill="white"/>
<path d="M7.53843 211.817C6.24918 211.601 5.07889 210.933 4.23654 209.933C3.3942 208.934 2.93466 207.667 2.93999 206.36C2.9407 206.306 2.96207 206.255 2.99961 206.218C3.03715 206.18 3.08792 206.158 3.14121 206.157C3.19451 206.156 3.24618 206.175 3.28534 206.211C3.32449 206.248 3.34808 206.298 3.35112 206.351C3.34391 207.568 3.77209 208.748 4.55838 209.677C5.34467 210.607 6.43728 211.224 7.639 211.419C7.9001 211.461 7.79803 211.86 7.53843 211.817V211.817Z" fill="white"/>
<path d="M10.069 222.815C12.2594 221.284 13.7922 218.984 14.3618 216.373C14.4181 216.114 14.8166 216.215 14.7605 216.473C14.1626 219.189 12.5626 221.58 10.2798 223.168C10.0621 223.319 9.8525 222.966 10.069 222.815L10.069 222.815Z" fill="white"/>
<path d="M10.7378 200.278C11.2192 200.466 11.7396 200.531 12.2524 200.468C12.7653 200.405 13.2544 200.215 13.6759 199.916C13.8915 199.763 14.1009 200.117 13.8866 200.269C13.4194 200.598 12.879 200.806 12.3126 200.877C11.7461 200.948 11.1709 200.879 10.6372 200.677C10.5853 200.662 10.541 200.628 10.5133 200.581C10.4856 200.535 10.4766 200.48 10.4882 200.427C10.5018 200.374 10.5356 200.329 10.5823 200.301C10.6291 200.273 10.6849 200.265 10.7378 200.278Z" fill="white"/>
<path d="M43.1582 207.424C43.0279 207.524 42.8939 207.625 42.7636 207.729C40.9964 209.081 39.3421 210.575 37.8169 212.195C37.6978 212.318 37.5786 212.445 37.4633 212.571L37.4595 212.575C33.8431 216.501 30.9836 221.062 29.0251 226.027L29.0139 226.06C29.0102 226.072 29.0065 226.079 29.0028 226.09C28.2265 228.078 27.6007 230.121 27.1305 232.202C26.6764 234.234 26.3042 236.412 25.5933 238.37C25.4853 238.671 25.3662 238.969 25.2397 239.256H8.69092C8.74675 238.962 8.80631 238.664 8.86586 238.37C9.70768 234.057 11.0234 229.85 12.789 225.826C12.8486 225.692 12.9081 225.558 12.9751 225.424C13.8866 223.436 14.9584 221.525 16.1799 219.71C16.1799 219.71 16.18 219.71 16.1802 219.709C16.1804 219.709 16.1806 219.708 16.181 219.708C16.1813 219.707 16.1817 219.707 16.1822 219.707C16.1827 219.707 16.1831 219.707 16.1836 219.707C16.8544 218.717 17.5749 217.761 18.3425 216.844C20.3332 214.476 22.6846 212.436 25.3104 210.8C25.3253 210.788 25.3439 210.781 25.3588 210.77C30.5847 207.528 36.7784 205.983 42.7003 207.319H42.7041C42.8567 207.353 43.0056 207.386 43.1582 207.424Z" fill="#E6E6E6"/>
<path d="M43.1395 207.621C43.0129 207.654 42.8864 207.692 42.7635 207.729C40.1549 208.474 37.637 209.507 35.2559 210.807C35.1368 210.87 35.0177 210.937 34.8986 211.004C31.6081 212.841 28.6211 215.175 26.0436 217.924C26.0416 217.926 26.0402 217.928 26.0399 217.931C26.0101 217.961 25.9766 217.995 25.9505 218.024C25.355 218.665 24.7818 219.331 24.2383 220.016C23.1753 221.293 22.3188 222.728 21.6998 224.27C21.2268 225.555 21.0599 226.933 21.2122 228.294C21.2234 228.431 21.242 228.566 21.2606 228.703C21.2755 228.811 21.2904 228.919 21.309 229.031C21.5546 230.523 21.979 232.02 21.8599 233.542C21.7874 234.322 21.5506 235.078 21.165 235.76C20.7795 236.442 20.2539 237.034 19.6228 237.499C19.1939 237.83 18.7354 238.122 18.2531 238.37C17.5635 238.725 16.8451 239.022 16.1054 239.256H14.6426C14.8399 239.2 15.0334 239.144 15.2307 239.088C15.9307 238.891 16.6181 238.651 17.289 238.37C17.6723 238.209 18.0453 238.025 18.4057 237.819C19.902 236.959 21.1489 235.641 21.4095 233.881C21.6365 232.34 21.1973 230.799 20.9368 229.291C20.8921 229.031 20.8512 228.774 20.8288 228.517C20.6511 227.212 20.759 225.883 21.1452 224.624C21.6808 223.053 22.4814 221.585 23.5125 220.284C24.1503 219.437 24.8311 218.623 25.5522 217.846C25.6416 217.745 25.7346 217.645 25.8314 217.544C28.4632 214.776 31.5019 212.425 34.8428 210.573H34.8465C37.3306 209.19 39.9659 208.098 42.7003 207.319H42.704C42.8268 207.282 42.9534 207.245 43.0762 207.211C43.333 207.144 43.3926 207.55 43.1395 207.621Z" fill="white"/>
<path d="M25.6842 217.987C24.7851 217.038 24.2528 215.8 24.1821 214.495C24.1115 213.189 24.5072 211.901 25.2985 210.861C25.4593 210.651 25.7932 210.891 25.6322 211.101C24.8935 212.069 24.525 213.268 24.5933 214.484C24.6616 215.699 25.1621 216.85 26.0045 217.729C26.1873 217.92 25.8659 218.177 25.6842 217.987H25.6842Z" fill="white"/>
<path d="M21.0834 228.292C23.754 228.388 26.3629 227.474 28.3897 225.732C28.5903 225.56 28.8478 225.88 28.6474 226.053C26.5349 227.861 23.818 228.807 21.0391 228.7C20.7742 228.69 20.8199 228.281 21.0834 228.292Z" fill="white"/>
<path d="M35.1862 210.7C35.4575 211.139 35.8338 211.505 36.2813 211.763C36.7287 212.021 37.2334 212.165 37.7498 212.18C38.0147 212.187 37.9687 212.595 37.7056 212.589C37.135 212.569 36.5779 212.41 36.0829 212.126C35.5879 211.842 35.1701 211.44 34.8659 210.957C34.8334 210.914 34.8185 210.86 34.8244 210.807C34.8302 210.753 34.8562 210.704 34.8972 210.668C34.9397 210.634 34.994 210.619 35.0481 210.625C35.1022 210.63 35.1519 210.657 35.1862 210.7Z" fill="white"/>
<path d="M170.817 64.4417C170.435 64.9442 169.948 65.3568 169.389 65.6505C168.83 65.9442 168.214 66.1118 167.583 66.1415C166.953 66.1712 166.323 66.0623 165.74 65.8225C165.156 65.5827 164.632 65.2178 164.204 64.7535L150.134 70.8728L151.505 63.0184L164.655 58.4116C165.483 57.745 166.526 57.4051 167.588 57.4564C168.649 57.5077 169.655 57.9466 170.415 58.6899C171.174 59.4332 171.635 60.4292 171.709 61.4893C171.783 62.5494 171.466 63.5999 170.817 64.4417Z" fill="#FFB8B8"/>
<path d="M161.428 66.8941L128.748 81.4509L128.678 81.4258L91.4312 68.1529C88.6569 66.703 86.5417 64.2473 85.5188 61.2887C84.496 58.3301 84.6428 55.0924 85.9292 52.2386C86.6423 50.6618 87.6812 49.2539 88.9777 48.1076C90.2741 46.9613 91.7986 46.1025 93.4508 45.5878C95.103 45.0732 96.8455 44.9143 98.5636 45.1216C100.282 45.3289 101.936 45.8977 103.419 46.7906L131.137 63.4879L158.015 60.0044L161.428 66.8941Z" fill="#E6E6E6"/>
<path d="M322.056 239.557C322.056 239.615 322.045 239.673 322.023 239.727C322.001 239.781 321.968 239.829 321.927 239.871C321.886 239.912 321.837 239.944 321.783 239.967C321.729 239.989 321.672 240 321.613 240H1.39911C1.28164 240 1.16898 239.953 1.08591 239.87C1.00284 239.787 0.956177 239.675 0.956177 239.557C0.956177 239.44 1.00284 239.327 1.08591 239.244C1.16898 239.161 1.28164 239.114 1.39911 239.114H321.613C321.672 239.114 321.729 239.125 321.783 239.148C321.837 239.17 321.886 239.202 321.927 239.243C321.968 239.285 322.001 239.334 322.023 239.387C322.045 239.441 322.056 239.499 322.056 239.557Z" fill="#CCCCCC"/>
<path d="M117.576 110.473L84.6322 105.203C83.7682 104.926 82.9743 104.466 82.305 103.854C81.6358 103.241 81.107 102.491 80.7549 101.655C80.4029 100.819 80.2359 99.9162 80.2656 99.0095C80.2952 98.1027 80.5207 97.2131 80.9266 96.4017L82.4205 93.4135L81.8402 62.0182C81.7703 57.9345 82.777 53.9043 84.7593 50.3332C86.7415 46.762 89.6292 43.7759 93.1319 41.6752L96.3445 39.7543L97.968 35.6314L112.939 35.9966L112.982 41.4039L118.344 49.953L118.343 49.9885L118.007 96.5206L116.529 101.323L118.764 106.908L117.576 110.473Z" fill="#E6E6E6"/>
<path d="M106.824 30.5047C114.337 30.5047 120.427 24.4147 120.427 16.9023C120.427 9.38996 114.337 3.29999 106.824 3.29999C99.3119 3.29999 93.2219 9.38996 93.2219 16.9023C93.2219 24.4147 99.3119 30.5047 106.824 30.5047Z" fill="#FFB8B8"/>
<path d="M92.66 19.8676C92.2543 18.1585 92.4406 15.7533 92.6699 14.0324C93.2709 9.52065 95.7765 5.23143 99.5832 2.69078C100.305 2.14257 101.163 1.80172 102.064 1.70498C102.964 1.66739 103.941 2.14947 104.217 3.00736C104.444 2.44115 104.784 1.92744 105.217 1.49794C105.651 1.06844 106.167 0.732266 106.735 0.510164C107.876 0.0729421 109.104 -0.0924048 110.32 0.0272298C112.677 0.221542 114.938 1.05044 116.862 2.42595C118.787 3.80147 120.303 5.67228 121.249 7.83986C121.613 8.70295 122.627 5.51491 123.088 6.33042C123.511 7.17808 124.249 7.82651 125.144 8.13694C126.046 8.38863 126.412 12.1049 126.767 11.2383C127.043 11.8787 127.151 12.5784 127.084 13.2723C127.016 13.9661 126.774 14.6314 126.379 15.2064C125.985 15.7814 125.452 16.2472 124.829 16.5605C124.206 16.8739 123.514 17.0245 122.818 16.9985C121.9 16.9641 121.022 16.6265 120.115 16.4811C116.871 15.9613 113.43 18.3136 112.736 21.5248C112.488 20.5962 112.091 19.7137 111.562 18.9115C111.293 18.5125 110.933 18.1835 110.511 17.9518C110.089 17.7201 109.618 17.5925 109.137 17.5795C108.214 17.614 107.403 18.2174 106.804 18.9206C106.205 19.6237 105.756 20.444 105.152 21.1434C103.382 23.1954 100.988 27.9809 98.4658 27.6319C96.4751 27.3564 93.214 22.2013 92.66 19.8676Z" fill="#2F2E41"/>
<path d="M189.049 79.8555C189.144 79.2354 189.017 78.6016 188.689 78.0665C188.362 77.5314 187.855 77.1296 187.26 76.9323L150.629 64.7321C150.277 64.6146 149.905 64.5719 149.537 64.6067L140.355 65.475L135.087 65.9747L125.365 66.8935C124.778 66.9496 124.227 67.199 123.797 67.6025C123.367 68.0059 123.083 68.5407 122.989 69.1229L118.053 99.9565C117.96 100.558 118.074 101.173 118.378 101.701C118.681 102.228 119.156 102.637 119.722 102.858L156.736 117.146C156.909 117.213 157.09 117.261 157.274 117.29C157.542 117.334 157.815 117.336 158.084 117.296L182.001 113.751C182.565 113.67 183.088 113.408 183.492 113.006C183.895 112.604 184.159 112.082 184.243 111.518L189.049 79.8555Z" fill="white"/>
<path d="M120.561 100.686L157.575 114.972C157.629 114.994 157.687 115.001 157.745 114.992L181.659 111.448C181.729 111.438 181.795 111.406 181.846 111.355C181.897 111.305 181.929 111.239 181.939 111.168L186.748 79.5049C186.759 79.4276 186.743 79.3489 186.702 79.2822C186.662 79.2156 186.599 79.1652 186.525 79.1396L186.279 79.0562L149.892 66.9421C149.875 66.9362 149.858 66.9321 149.841 66.9298C149.813 66.9246 149.784 66.9231 149.755 66.9253L127.361 69.0444L125.584 69.2112C125.511 69.219 125.443 69.2504 125.389 69.3006C125.336 69.3509 125.3 69.4172 125.288 69.4895L120.353 100.322C120.341 100.397 120.355 100.474 120.393 100.541C120.431 100.607 120.49 100.658 120.561 100.686Z" fill="#0077C1"/>
<path d="M127.361 69.0444L149.755 66.9253C149.784 66.9231 149.813 66.9246 149.841 66.9298C149.858 66.9321 149.875 66.9362 149.892 66.9421L186.279 79.0562L176.681 80.0722L173.089 80.4507L162.867 81.5306C162.838 81.5321 162.808 81.5317 162.778 81.5295C162.76 81.524 162.742 81.5185 162.72 81.5127L127.361 69.0444Z" fill="#2F2E41"/>
<path d="M119.722 102.86L156.735 117.147C156.909 117.214 157.09 117.261 157.275 117.288C157.543 117.332 157.816 117.336 158.085 117.298L181.999 113.754C182.563 113.672 183.086 113.41 183.49 113.007C183.894 112.605 184.158 112.083 184.243 111.519L189.048 79.8555C189.119 79.3887 189.065 78.9114 188.892 78.4721C188.868 78.4137 188.844 78.3553 188.815 78.3002C188.625 77.8991 188.335 77.5534 187.973 77.2961C187.755 77.1396 187.514 77.0171 187.26 76.9326L187.216 76.9172L150.63 64.7318C150.481 64.6841 150.328 64.647 150.174 64.6208C149.962 64.5909 149.748 64.5867 149.535 64.6085L140.355 65.4738L135.088 65.9763L125.364 66.8943C124.966 66.9314 124.582 67.0584 124.241 67.2656C124.214 67.2784 124.189 67.2935 124.165 67.3107C124.148 67.3218 124.132 67.334 124.117 67.3472C123.819 67.5508 123.565 67.8131 123.371 68.1179C123.177 68.4227 123.048 68.7638 122.99 69.1204L118.051 99.9561C117.958 100.558 118.072 101.174 118.376 101.702C118.68 102.23 119.154 102.638 119.722 102.86ZM123.645 69.2278C123.705 68.8583 123.869 68.5134 124.118 68.2335C124.193 68.1435 124.278 68.0613 124.37 67.9883C124.621 67.7853 124.918 67.6468 125.235 67.5849C125.297 67.572 125.36 67.563 125.424 67.5581L141.796 66.0115L149.599 65.2689C149.652 65.2627 149.701 65.2636 149.75 65.2609C149.868 65.2584 149.986 65.2672 150.102 65.2871C150.21 65.301 150.315 65.3261 150.417 65.362L187.046 77.5628C187.075 77.573 187.1 77.5829 187.129 77.5932C187.462 77.7171 187.755 77.93 187.975 78.2087C188.149 78.4221 188.277 78.6698 188.348 78.9357C188.42 79.2016 188.435 79.4796 188.392 79.7517L183.583 111.419C183.52 111.841 183.323 112.232 183.021 112.534C182.718 112.835 182.327 113.032 181.905 113.094L157.987 116.638C157.645 116.687 157.296 116.647 156.974 116.523L119.96 102.24C119.536 102.073 119.181 101.766 118.954 101.371C118.727 100.975 118.641 100.515 118.71 100.064L123.645 69.2278Z" fill="#3F3D56"/>
<path d="M124.037 67.5154C124.057 67.4593 124.091 67.4096 124.137 67.3716C124.152 67.3595 124.168 67.3485 124.185 67.3388C124.201 67.3328 124.217 67.3231 124.232 67.3171C124.306 67.2872 124.389 67.2858 124.464 67.3131L125.235 67.5849L162.872 80.8617L171.68 79.931L176.609 79.4111L187.042 78.3066L187.975 78.2087L188.157 78.1887C188.235 78.1816 188.313 78.202 188.378 78.2464C188.443 78.2908 188.49 78.3564 188.511 78.432C188.516 78.4493 188.519 78.4672 188.521 78.4852C188.529 78.5569 188.513 78.6291 188.476 78.691C188.439 78.7529 188.383 78.8011 188.316 78.8284C188.287 78.8406 188.256 78.849 188.224 78.8532L186.955 78.9862L176.681 80.0723L173.089 80.4507L162.868 81.5306C162.838 81.5321 162.808 81.5317 162.778 81.5295C162.76 81.524 162.742 81.5185 162.72 81.5127L124.37 67.9884L124.24 67.9423C124.21 67.9325 124.182 67.9171 124.158 67.8971C124.1 67.8545 124.057 67.7946 124.035 67.7259C124.014 67.6573 124.014 67.5836 124.037 67.5154Z" fill="#3F3D56"/>
<path d="M157.376 117.385C157.289 117.371 157.211 117.324 157.16 117.253C157.108 117.182 157.086 117.094 157.099 117.007L162.503 81.1498C162.516 81.0625 162.563 80.9841 162.634 80.9317C162.705 80.8793 162.794 80.8573 162.881 80.8704L162.884 80.8709C162.971 80.8847 163.048 80.9323 163.1 81.0031C163.152 81.0739 163.174 81.1622 163.161 81.249L157.757 117.106C157.744 117.193 157.697 117.272 157.626 117.324C157.555 117.377 157.466 117.399 157.379 117.385L157.376 117.385Z" fill="#3F3D56"/>
<path d="M171.072 115.11L167.478 115.49L171.682 79.93C171.682 79.93 176.481 79.061 176.61 79.4095C176.689 79.6175 171.106 114.882 171.072 115.11Z" fill="#3F3D56"/>
<path d="M124.241 67.9418L124.144 84.1581L152.851 95.0968L163.161 81.2489L124.241 67.9418Z" fill="#3F3D56"/>
<path d="M187.976 78.2093C187.736 77.9077 187.413 77.6829 187.047 77.5629L150.419 65.3625C150.316 65.3279 150.21 65.3022 150.103 65.2856C149.986 65.2655 149.868 65.2567 149.749 65.2591L149.809 64.8879L150.175 64.6224L158.873 58.325L187.921 67.2273L187.972 77.2963L187.976 78.2093Z" fill="#3F3D56"/>
<path d="M125.704 93.9745C125.745 93.9785 125.785 93.987 125.825 93.9999L137.063 97.6912C137.204 97.7373 137.321 97.8375 137.388 97.9697C137.454 98.1018 137.466 98.2551 137.42 98.3958C137.374 98.5365 137.274 98.6531 137.141 98.7199C137.009 98.7868 136.856 98.7984 136.715 98.7522L125.477 95.061C125.346 95.0181 125.236 94.9287 125.167 94.8098C125.099 94.6908 125.076 94.5507 125.104 94.4163C125.132 94.2819 125.209 94.1625 125.32 94.081C125.43 93.9995 125.567 93.9615 125.704 93.9745H125.704Z" fill="white"/>
<path d="M171.048 162.002C173.515 162.002 175.515 160.002 175.515 157.535C175.515 155.069 173.515 153.069 171.048 153.069C168.581 153.069 166.582 155.069 166.582 157.535C166.582 160.002 168.581 162.002 171.048 162.002Z" fill="#F2F2F2"/>
<path d="M57.1497 178.38C59.6165 178.38 61.6163 176.38 61.6163 173.913C61.6163 171.446 59.6165 169.446 57.1497 169.446C54.6829 169.446 52.6831 171.446 52.6831 173.913C52.6831 176.38 54.6829 178.38 57.1497 178.38Z" fill="#F2F2F2"/>
<path d="M150.204 30.6096C152.671 30.6096 154.671 28.6098 154.671 26.143C154.671 23.6762 152.671 21.6764 150.204 21.6764C147.737 21.6764 145.737 23.6762 145.737 26.143C145.737 28.6098 147.737 30.6096 150.204 30.6096Z" fill="#F2F2F2"/>
<path d="M157.532 100.544C156.953 100.795 156.326 100.917 155.695 100.9C155.064 100.883 154.445 100.727 153.88 100.445C153.316 100.163 152.82 99.76 152.428 99.2653C152.036 98.7706 151.757 98.196 151.611 97.5819L136.346 96.0397L141.382 89.8585L155.106 92.2707C156.154 92.094 157.23 92.3077 158.131 92.8715C159.032 93.4353 159.695 94.3099 159.994 95.3297C160.293 96.3494 160.207 97.4434 159.754 98.4044C159.3 99.3654 158.51 100.127 157.532 100.544Z" fill="#FFB8B8"/>
<path d="M148.143 98.0917L112.519 94.8093L112.47 94.7532L86.4704 64.9622C84.7594 62.3408 84.1151 59.1645 84.6696 56.0835C85.2241 53.0026 86.9354 50.2502 89.453 48.3899C90.8461 47.3631 92.4408 46.6431 94.1322 46.2771C95.8235 45.9111 97.5733 45.9075 99.2661 46.2665C100.959 46.6254 102.557 47.3389 103.954 48.3598C105.351 49.3808 106.516 50.6861 107.373 52.1898L123.387 80.3087L148.536 90.4133L148.143 98.0917Z" fill="#E6E6E6"/>
<path d="M237.558 40.8011C236.674 34.312 235.564 27.3449 230.987 22.6604C229.535 21.1741 227.797 19.9972 225.877 19.2008C223.958 18.4043 221.897 18.0048 219.819 18.0263C217.741 18.0478 215.689 18.4899 213.787 19.3259C211.884 20.1619 210.171 21.3745 208.749 22.8906C205.418 26.4448 203.947 31.4355 203.812 36.3052C203.677 41.175 204.762 45.9906 205.965 50.7113C212.332 50.8385 218.652 49.5945 224.496 47.0638C225.957 46.4295 227.395 45.7125 228.939 45.3195C230.483 44.9265 231.584 45.9154 233.02 46.6049L233.808 45.0954C234.453 46.2964 236.452 45.9404 237.177 44.7856C237.901 43.6308 237.742 42.152 237.558 40.8011Z" fill="#2F2E41"/>
<path d="M212.319 77.021L186.31 77.5773C185.911 76.8868 185.32 76.3274 184.608 75.9669C183.896 75.6065 183.095 75.4607 182.303 75.5472C181.51 75.6336 180.759 75.9487 180.142 76.4541C179.525 76.9594 179.068 77.6332 178.827 78.3935C178.585 79.1539 178.57 79.9679 178.784 80.7365C178.997 81.5052 179.428 82.1954 180.027 82.7231C180.625 83.2508 181.363 83.5932 182.152 83.7088C182.942 83.8244 183.747 83.7081 184.472 83.3741C187.921 83.5702 214.909 87.4005 216.519 84.932C218.153 82.4266 226.875 73.5846 226.875 73.5846L220.171 64.0396L212.319 77.021Z" fill="#FFB8B8"/>
<path d="M218.657 47.2214C225.406 47.2214 230.877 41.7503 230.877 35.0015C230.877 28.2526 225.406 22.7816 218.657 22.7816C211.909 22.7816 206.438 28.2526 206.438 35.0015C206.438 41.7503 211.909 47.2214 218.657 47.2214Z" fill="#FFB8B8"/>
<path d="M238.23 58.5138C236.789 55.6478 236.09 52.1072 233.02 51.1781C230.947 50.5506 222.562 51.4909 220.672 52.55C217.529 54.3118 220.377 57.613 218.523 60.7024C216.508 64.0608 211.03 70.8005 209.014 74.1589C207.628 76.4677 212.296 83.2445 211.547 85.8309C210.798 88.4172 210.761 91.3201 212.038 93.691C213.18 95.8132 211.527 97.6905 212.676 99.8092C213.871 102.013 215.337 110.251 214.225 112.497L213.481 114.731C220.868 115.165 227.079 106.339 234.421 105.41C236.244 105.179 238.138 104.877 239.64 103.819C241.854 102.259 242.729 99.4304 243.276 96.7789C245.907 83.818 244.131 70.3493 238.23 58.5138Z" fill="#3F3D56"/>
<path d="M249.305 88.7757C248.276 85.9671 246.413 73.6873 246.413 73.6873L234.754 73.3454L240.454 87.4048L224.899 109.18C224.899 109.18 224.928 109.228 224.98 109.314C224.163 109.182 223.324 109.301 222.575 109.654C221.826 110.007 221.2 110.578 220.781 111.293C220.362 112.007 220.168 112.831 220.225 113.658C220.281 114.484 220.586 115.274 221.099 115.924C221.613 116.574 222.31 117.054 223.101 117.302C223.891 117.549 224.738 117.552 225.53 117.31C226.322 117.068 227.023 116.592 227.54 115.946C228.058 115.299 228.368 114.511 228.431 113.685C228.488 113.718 228.555 113.73 228.62 113.719C228.685 113.708 228.744 113.674 228.787 113.624C230.518 111.452 250.334 91.5843 249.305 88.7757Z" fill="#FFB8B8"/>
<path d="M250.491 81.0205C249.42 76.5038 248.342 71.9625 246.538 67.6856C244.734 63.4088 242.151 59.3692 238.518 56.4799C237.356 55.5561 236.058 54.7408 234.602 54.4536C233.146 54.1664 231.505 54.4878 230.483 55.5633C228.846 57.2843 229.339 60.0467 229.939 62.3443C231.709 69.1188 233.478 75.8933 235.248 82.6677C240.358 82.1261 245.468 81.5844 250.579 81.0427L250.491 81.0205Z" fill="#3F3D56"/>
<path d="M233.631 36.6964C233.181 33.7402 232.711 30.7594 231.653 27.9759C230.596 25.1924 228.892 22.5853 226.447 21.0084C222.577 18.5119 217.566 18.9934 213.226 20.4295C209.87 21.54 206.594 23.228 204.227 25.9417C201.861 28.6555 200.531 32.5277 201.412 36.0759C206.041 34.9823 210.67 33.8886 215.299 32.7949L214.792 33.153C216.312 33.9109 217.639 35.0051 218.673 36.3525C219.707 37.7 220.42 39.2653 220.759 40.9296C221.09 42.6141 221.043 44.3512 220.62 46.0151C220.197 47.679 219.41 49.2282 218.315 50.5505C221.472 49.4306 224.629 48.3107 227.786 47.1908C229.735 46.4996 231.82 45.7031 232.976 43.93C234.316 41.8743 234.004 39.1496 233.631 36.6964Z" fill="#2F2E41"/>
</g>
<defs>
<clipPath id="clip0_88_6836">
<rect width="321.112" height="240" fill="white" transform="translate(0.943848)"/>
</clipPath>
</defs>
</svg>
