<svg width="259" height="240" viewBox="0 0 259 240" fill="none" xmlns="http://www.w3.org/2000/svg">
<g clip-path="url(#clip0_88_6732)">
<path d="M174.304 170.139H81.9709C74.2098 170.139 67.8958 163.825 67.8958 156.064V63.7307C67.8958 55.9695 74.2098 49.6555 81.9709 49.6555H174.304C182.065 49.6555 188.379 55.9695 188.379 63.7307V156.064C188.379 163.825 182.065 170.139 174.304 170.139ZM81.9709 51.9075C75.4412 51.9075 70.1478 57.2009 70.1478 63.7307V156.064C70.1478 162.594 75.4412 167.887 81.9709 167.887H146.648C168.452 167.887 186.127 150.211 186.127 128.408V63.7307C186.127 57.2009 180.834 51.9075 174.304 51.9075H81.9709V51.9075Z" fill="#F2F2F2"/>
<path d="M91.9254 61.5093C87.5553 61.5093 84.0002 65.0643 84.0002 69.4344V81.8389C84.0002 86.209 87.5553 89.764 91.9254 89.764H104.33C108.7 89.764 112.255 86.209 112.255 81.8389V69.4344C112.255 65.0643 108.7 61.5093 104.33 61.5093H91.9254Z" fill="#F2F2F2"/>
<path d="M91.9254 96.4294C87.5553 96.4294 84.0002 99.9845 84.0002 104.355V116.759C84.0002 121.129 87.5553 124.684 91.9254 124.684H104.33C108.7 124.684 112.255 121.129 112.255 116.759V104.355C112.255 99.9845 108.7 96.4294 104.33 96.4294H91.9254Z" fill="#F2F2F2"/>
<path d="M91.9254 131.35C87.5553 131.35 84.0002 134.905 84.0002 139.275V151.679C84.0002 156.05 87.5553 159.605 91.9254 159.605H104.33C108.7 159.605 112.255 156.05 112.255 151.679V139.275C112.255 134.905 108.7 131.35 104.33 131.35H91.9254Z" fill="#F2F2F2"/>
<path d="M100.151 31.2449C94.645 31.2449 90.1655 35.7244 90.1655 41.2307V56.8608C90.1655 62.3672 94.645 66.8467 100.151 66.8467H115.781C121.288 66.8467 125.767 62.3672 125.767 56.8608V41.2307C125.767 35.7244 121.288 31.2449 115.781 31.2449H100.151Z" fill="#0077C1"/>
<path d="M151.609 74.9243C146.103 74.9243 141.624 79.4038 141.624 84.9102V100.54C141.624 106.047 146.103 110.526 151.609 110.526H167.239C172.746 110.526 177.225 106.047 177.225 100.54V84.9102C177.225 79.4038 172.746 74.9243 167.239 74.9243H151.609Z" fill="#0077C1"/>
<path d="M129.238 232.247L126.063 232.221L124.657 219.688L129.344 219.727L129.238 232.247Z" fill="#FFB8B8"/>
<path d="M119.067 237.296C119.06 238.078 119.69 238.721 120.475 238.729L126.788 238.781L127.893 236.541L128.299 238.793L130.681 238.814L130.08 230.783L129.251 230.728L125.87 230.495L124.78 230.422L124.761 232.694L119.689 236.134C119.303 236.396 119.071 236.83 119.067 237.296H119.067Z" fill="#2F2E41"/>
<path d="M145.394 232.247L142.218 232.221L140.813 219.688L145.499 219.727L145.394 232.247Z" fill="#FFB8B8"/>
<path d="M135.223 237.296C135.216 238.078 135.846 238.721 136.63 238.729L142.943 238.781L144.049 236.541L144.455 238.793L146.837 238.814L146.235 230.783L145.406 230.728L142.026 230.495L140.935 230.422L140.916 232.694L135.845 236.134C135.459 236.396 135.227 236.83 135.223 237.296Z" fill="#2F2E41"/>
<path d="M116.778 130.918L129.649 131.324L141.842 134.034C141.842 134.034 140.623 135.524 144.687 139.589C144.687 139.589 150.107 149.073 146.313 158.286L144.687 195.137C144.687 195.137 149.428 221.115 145.806 229.383L141.019 229.682L132.919 195.437L128.971 158.557L127.075 194.866C127.075 194.866 134.331 219.788 129.749 229.682L124.564 229.383L115.694 194.866C115.694 194.866 111.9 155.034 112.442 147.447C112.984 139.86 116.778 130.918 116.778 130.918H116.778Z" fill="#2F2E41"/>
<path d="M160.001 72.6867C158.242 73.1423 157.185 74.938 157.64 76.6974C157.849 77.5037 158.341 78.1596 158.98 78.5929L158.98 78.5974L158.73 84.6431L163.357 86.7842L163.726 77.4807L163.694 77.4817C164.095 76.7671 164.234 75.9036 164.012 75.0476C163.556 73.2881 161.761 72.2311 160.001 72.6867V72.6867Z" fill="#FFB8B8"/>
<path d="M134.143 94.2639C133.171 93.3005 132.608 91.9944 132.587 90.574C132.558 88.6686 133.513 86.9393 135.141 85.9481C137.015 84.8065 139.359 84.922 141.112 86.242L155.64 97.1806L158.229 81.4226L163.787 83.2117L162.461 103.731C162.368 105.166 161.557 106.431 160.291 107.113C159.025 107.796 157.523 107.779 156.272 107.067L135.277 95.1223C134.855 94.8823 134.475 94.593 134.143 94.2639V94.2639Z" fill="#3F3D56"/>
<path d="M111.991 63.8725C112.919 65.4348 112.406 67.4542 110.843 68.383C110.127 68.8085 109.316 68.928 108.557 68.7857L108.554 68.7891L104.475 73.2582L99.6821 71.5213L105.97 64.6545L105.992 64.6779C106.21 63.8879 106.72 63.1772 107.48 62.7253C109.042 61.7966 111.062 62.3102 111.991 63.8725Z" fill="#FFB8B8"/>
<path d="M113.753 97.2124L90.4327 90.9132C89.0442 90.5381 87.9655 89.4927 87.547 88.1166C87.1285 86.7405 87.4427 85.2715 88.3872 84.1869L101.892 68.6816L107.099 71.3241L97.8425 84.3372L115.861 86.7978C118.035 87.0948 119.781 88.663 120.309 90.7933C120.766 92.6431 120.227 94.5435 118.865 95.8766C117.85 96.8704 116.53 97.401 115.162 97.4008C114.694 97.4008 114.221 97.3389 113.753 97.2124H113.753Z" fill="#3F3D56"/>
<path d="M146.999 136.339L114.389 137.835C113.494 136.475 113.736 134.43 114.99 131.869C119.726 122.2 116.13 103.908 113.71 94.3826C113.031 91.7101 114.854 89.0533 117.597 88.779L120.672 88.4715L123.514 79.7954H133.468L137.598 84.5132L144.606 88.7707C143.33 101.91 137.895 120.465 145.638 129.77C147.332 131.805 147.812 134.005 146.999 136.339Z" fill="#3F3D56"/>
<path d="M127.225 79.9956C132.58 79.9956 136.92 75.6548 136.92 70.3C136.92 64.9453 132.58 60.6045 127.225 60.6045C121.87 60.6045 117.529 64.9453 117.529 70.3C117.529 75.6548 121.87 79.9956 127.225 79.9956Z" fill="#FFB8B8"/>
<path d="M138.196 64.0939C139.545 59.1758 124.843 54.9584 121.986 58.919C121.589 58.3559 120.12 58.0139 119.447 58.1867C118.773 58.3594 118.207 58.7912 117.654 59.2092C116.894 59.793 116.106 60.3976 115.64 61.237C115.17 62.073 115.097 63.213 115.73 63.9385C116.231 64.5154 117.111 67.5811 117.864 67.7331C118.389 67.8402 118.831 67.9265 119.211 67.9887C119.55 67.4947 120.413 66.8742 120.351 66.2765C120.862 66.6151 120.675 67.2107 120.572 67.8194C120.229 69.8465 112.496 85.5381 116.925 80.9142C117.364 81.1733 117.906 81.4151 118.531 81.6362C119.592 80.0367 120.462 78.1505 121.036 76.178L121.04 76.2144C121.237 77.9286 122.49 79.3352 124.147 79.8153C130.796 81.7414 136.174 78.9151 138.024 73.8184C137.347 72.4434 137.052 72.5928 137.112 72.5519C137.958 71.9821 139.12 72.3547 139.483 73.3073C139.59 73.5882 139.688 73.8279 139.772 74.0084C140.736 70.5607 141.882 71.0583 138.196 64.0939H138.196Z" fill="#2F2E41"/>
<path d="M133.61 60.5257L132.931 57.0537C132.873 56.7618 132.819 56.4452 132.951 56.1785C133.12 55.8358 133.555 55.6938 133.933 55.7484C134.311 55.803 134.594 56.1485 134.97 56.215C136.278 56.4463 138.008 55.1541 138.476 58.4231C138.672 59.7861 140.847 59.93 141.573 61.0998C142.299 62.2695 142.389 63.9579 141.397 64.9136C140.606 65.6768 139.334 65.7649 138.306 65.375C137.278 64.9852 136.453 64.1976 135.732 63.3672C135.011 62.5367 134.358 61.638 133.527 60.9183" fill="#2F2E41"/>
<path d="M138.714 65.8066C136.061 65.436 134.253 64.4711 133.339 62.939C132.144 60.9334 132.945 58.7251 132.979 58.6321L133.54 58.8405C133.533 58.8608 132.806 60.8823 133.857 62.6378C134.674 64.0034 136.336 64.8702 138.797 65.2141L138.714 65.8066Z" fill="#0077C1"/>
<path d="M151.164 28.2912C143.364 28.2912 137.018 21.945 137.018 14.1456C137.018 6.34618 143.364 0 151.164 0C158.963 0 165.31 6.34618 165.31 14.1456C165.31 21.945 158.963 28.2912 151.164 28.2912ZM151.164 5.65825C146.484 5.65825 142.677 9.4654 142.677 14.1456C142.677 18.8258 146.484 22.633 151.164 22.633C155.844 22.633 159.651 18.8258 159.651 14.1456C159.651 9.4654 155.844 5.65825 151.164 5.65825Z" fill="#0077C1"/>
<path d="M172.928 37.9045C172.234 37.9045 171.54 37.6517 170.994 37.1392L157.717 24.6968C156.576 23.629 156.518 21.8387 157.587 20.699C158.654 19.5552 160.444 19.4986 161.585 20.5692L174.862 33.0115C176.003 34.0793 176.061 35.8697 174.992 37.0093C174.435 37.6047 173.682 37.9045 172.928 37.9045Z" fill="#0077C1"/>
<path d="M232.932 231.93C233.894 231.99 234.426 230.795 233.698 230.098L233.625 229.811C233.635 229.787 233.645 229.764 233.654 229.741C234.627 227.422 237.924 227.438 238.888 229.761C239.744 231.823 240.834 233.888 241.103 236.068C241.223 237.03 241.169 238.011 240.955 238.955C242.961 234.573 244.017 229.789 244.017 224.977C244.017 223.768 243.951 222.559 243.815 221.353C243.704 220.367 243.551 219.387 243.352 218.415C242.279 213.164 239.954 208.163 236.601 203.986C234.989 203.105 233.645 201.728 232.833 200.077C232.541 199.481 232.312 198.841 232.204 198.188C232.388 198.212 232.896 195.419 232.757 195.247C233.013 194.859 233.471 194.666 233.75 194.288C235.138 192.405 237.052 192.734 238.05 195.292C240.184 196.369 240.204 198.155 238.895 199.872C238.062 200.965 237.948 202.444 237.217 203.613C237.292 203.71 237.371 203.803 237.446 203.899C238.824 205.667 240.017 207.568 241.022 209.565C240.738 207.346 241.157 204.672 241.873 202.949C242.686 200.985 244.212 199.331 245.556 197.634C247.169 195.595 250.479 196.485 250.763 199.07C250.766 199.095 250.768 199.12 250.771 199.145C250.571 199.257 250.376 199.377 250.185 199.503C249.096 200.223 249.472 201.912 250.763 202.111L250.792 202.116C250.72 202.834 250.597 203.547 250.416 204.248C252.14 210.913 248.419 213.341 243.106 213.45C242.988 213.51 242.874 213.57 242.757 213.628C243.295 215.143 243.725 216.698 244.044 218.274C244.329 219.666 244.528 221.074 244.639 222.487C244.778 224.27 244.765 226.063 244.615 227.843L244.624 227.78C245.006 225.819 246.071 223.988 247.616 222.719C249.919 220.827 253.172 220.13 255.657 218.61C256.852 217.878 258.385 218.824 258.176 220.21L258.166 220.277C257.796 220.427 257.435 220.602 257.086 220.797C256.887 220.91 256.691 221.029 256.5 221.155C255.411 221.876 255.787 223.564 257.078 223.764L257.107 223.768C257.128 223.771 257.146 223.774 257.167 223.777C256.533 225.284 255.649 226.682 254.542 227.888C253.464 233.707 248.836 234.259 243.884 232.564H243.881C243.34 234.922 242.549 237.226 241.533 239.421H233.142C233.112 239.328 233.085 239.232 233.058 239.138C233.834 239.187 234.616 239.141 235.38 239C234.757 238.236 234.135 237.466 233.512 236.702C233.497 236.687 233.485 236.672 233.473 236.657C233.157 236.266 232.839 235.878 232.523 235.488L232.523 235.487C232.503 234.287 232.647 233.091 232.932 231.93L232.932 231.93Z" fill="#F2F2F2"/>
<path d="M0.804443 239.446C0.804443 239.753 1.05123 240 1.35854 240H257.576C257.883 240 258.13 239.753 258.13 239.446C258.13 239.139 257.883 238.892 257.576 238.892H1.35854C1.05123 238.892 0.804443 239.139 0.804443 239.446Z" fill="#CCCCCC"/>
</g>
<defs>
<clipPath id="clip0_88_6732">
<rect width="257.391" height="240" fill="white" transform="translate(0.804443)"/>
</clipPath>
</defs>
</svg>
