<svg width="246" height="310" viewBox="0 0 246 310" fill="none" xmlns="http://www.w3.org/2000/svg">
<g clip-path="url(#clip0_751_4521)">
<path d="M156.153 53.9752H89.9021C88.3923 53.9771 86.945 54.5776 85.8774 55.6452C84.8098 56.7127 84.2093 58.1601 84.2075 59.6699V206.914L83.4482 207.146L67.1957 212.123C66.4254 212.358 65.5934 212.277 64.8824 211.899C64.1714 211.521 63.6393 210.877 63.4031 210.107L15.0593 52.1947C14.8241 51.4244 14.9043 50.5923 15.2823 49.8811C15.6603 49.1699 16.3052 48.638 17.0753 48.4021L42.1204 40.7333L114.727 18.509L139.772 10.8402C140.153 10.7229 140.554 10.6819 140.951 10.7196C141.348 10.7573 141.733 10.8729 142.085 11.0598C142.438 11.2467 142.75 11.5012 143.004 11.8088C143.257 12.1164 143.448 12.471 143.565 12.8523L155.922 53.2159L156.153 53.9752Z" fill="#EBF0F4"/>
<path d="M170.61 53.2158L155.717 4.56839C155.469 3.75784 155.064 3.00405 154.525 2.35011C153.986 1.69616 153.323 1.15488 152.574 0.75719C151.826 0.359498 151.006 0.113188 150.163 0.0323437C149.319 -0.0485007 148.467 0.0377049 147.657 0.286026L112.445 11.0641L39.8425 33.2921L4.63068 44.074C2.99492 44.5763 1.62528 45.7071 0.822393 47.2181C0.0195025 48.7292 -0.151043 50.4971 0.348199 52.1338L51.2507 218.391C51.6562 219.712 52.4746 220.868 53.5856 221.69C54.6966 222.512 56.0418 222.956 57.4238 222.958C58.0634 222.958 58.6994 222.862 59.3105 222.673L83.4482 215.285L84.2075 215.05V214.256L83.4482 214.488L59.0866 221.948C57.6427 222.388 56.0832 222.237 54.7502 221.529C53.4172 220.821 52.4194 219.613 51.9759 218.17L1.07727 51.9098C0.85749 51.1949 0.780891 50.4437 0.851856 49.6991C0.922821 48.9546 1.13995 48.2314 1.49082 47.5709C1.8417 46.9103 2.31942 46.3255 2.89663 45.8499C3.47383 45.3743 4.13919 45.0172 4.8546 44.7991L40.0664 34.0173L112.669 11.793L147.881 1.01115C148.424 0.845549 148.988 0.761113 149.555 0.760584C150.773 0.763318 151.958 1.15585 152.936 1.88069C153.914 2.60553 154.635 3.62458 154.992 4.78859L169.817 53.2158L170.052 53.9751H170.842L170.61 53.2158Z" fill="#D6DAE0"/>
<path d="M46.6398 48.5264C45.9081 48.5259 45.1958 48.2909 44.6074 47.8559C44.019 47.4209 43.5856 46.8088 43.3706 46.1094L38.4806 30.1371C38.3492 29.7081 38.3036 29.2574 38.3465 28.8107C38.3893 28.364 38.5197 27.9302 38.7302 27.5339C38.9407 27.1377 39.2272 26.7867 39.5733 26.5012C39.9195 26.2157 40.3185 26.0012 40.7476 25.8699L107.541 5.42089C108.408 5.15648 109.344 5.24666 110.144 5.67163C110.944 6.0966 111.543 6.82164 111.809 7.68762L116.699 23.66C116.963 24.5265 116.873 25.4624 116.448 26.2625C116.023 27.0625 115.298 27.6613 114.432 27.9275L47.638 48.3765C47.3146 48.4757 46.9781 48.5263 46.6398 48.5264Z" fill="#0077C1"/>
<path d="M72.2553 17.0666C76.4487 17.0666 79.8481 13.6671 79.8481 9.47371C79.8481 5.28029 76.4487 1.88086 72.2553 1.88086C68.0618 1.88086 64.6624 5.28029 64.6624 9.47371C64.6624 13.6671 68.0618 17.0666 72.2553 17.0666Z" fill="#0077C1"/>
<path d="M72.2553 14.2821C74.9107 14.2821 77.0633 12.1294 77.0633 9.47404C77.0633 6.81864 74.9107 4.66602 72.2553 4.66602C69.5999 4.66602 67.4473 6.81864 67.4473 9.47404C67.4473 12.1294 69.5999 14.2821 72.2553 14.2821Z" fill="white"/>
<path d="M228.851 221.018H100.532C99.6766 221.017 98.8564 220.676 98.2514 220.071C97.6464 219.466 97.3062 218.646 97.3052 217.791V64.0356C97.3061 63.18 97.6464 62.3598 98.2514 61.7548C98.8564 61.1498 99.6766 60.8095 100.532 60.8086H228.851C229.707 60.8096 230.527 61.1499 231.132 61.7548C231.737 62.3598 232.077 63.18 232.078 64.0356V217.791C232.077 218.646 231.737 219.466 231.132 220.071C230.527 220.676 229.707 221.017 228.851 221.018Z" fill="#EBF0F4"/>
<path d="M169.817 53.2158H89.9021C88.1912 53.2182 86.551 53.899 85.3412 55.1088C84.1313 56.3186 83.4506 57.9588 83.4482 59.6697V214.488L84.2075 214.256V59.6697C84.2093 58.16 84.8099 56.7126 85.8774 55.6451C86.945 54.5775 88.3924 53.9769 89.9021 53.9751H170.052L169.817 53.2158ZM239.481 53.2158H89.9021C88.1912 53.2182 86.551 53.899 85.3412 55.1088C84.1313 56.3186 83.4506 57.9588 83.4482 59.6697V233.546C83.4506 235.257 84.1313 236.897 85.3412 238.107C86.551 239.317 88.1912 239.997 89.9021 240H239.481C241.192 239.997 242.832 239.317 244.042 238.107C245.252 236.897 245.933 235.257 245.935 233.546V59.6697C245.933 57.9588 245.252 56.3186 244.042 55.1088C242.832 53.899 241.192 53.2182 239.481 53.2158ZM245.176 233.546C245.174 235.056 244.573 236.503 243.506 237.571C242.438 238.638 240.991 239.239 239.481 239.241H89.9021C88.3924 239.239 86.945 238.638 85.8774 237.571C84.8099 236.503 84.2093 235.056 84.2075 233.546V59.6697C84.2093 58.16 84.8099 56.7126 85.8774 55.6451C86.945 54.5775 88.3924 53.9769 89.9021 53.9751H239.481C240.991 53.9769 242.438 54.5775 243.506 55.6451C244.573 56.7126 245.174 58.16 245.176 59.6697V233.546Z" fill="#D6DAE0"/>
<path d="M199.619 69.9202H129.765C128.859 69.9191 127.99 69.5588 127.35 68.9183C126.709 68.2777 126.349 67.4092 126.348 66.5034V49.7991C126.349 48.8932 126.709 48.0248 127.35 47.3842C127.99 46.7437 128.859 46.3833 129.765 46.3823H199.619C200.525 46.3833 201.393 46.7437 202.034 47.3842C202.674 48.0248 203.035 48.8932 203.036 49.7991V66.5034C203.035 67.4092 202.674 68.2777 202.034 68.9183C201.393 69.5588 200.525 69.9191 199.619 69.9202Z" fill="#0077C1"/>
<path d="M164.692 47.5211C168.885 47.5211 172.285 44.1217 172.285 39.9283C172.285 35.7349 168.885 32.3354 164.692 32.3354C160.498 32.3354 157.099 35.7349 157.099 39.9283C157.099 44.1217 160.498 47.5211 164.692 47.5211Z" fill="#0077C1"/>
<path d="M164.692 44.5532C167.246 44.5532 169.316 42.4826 169.316 39.9285C169.316 37.3743 167.246 35.3037 164.692 35.3037C162.137 35.3037 160.067 37.3743 160.067 39.9285C160.067 42.4826 162.137 44.5532 164.692 44.5532Z" fill="white"/>
</g>
<path d="M16.2955 299V282.2H22.1995C23.3835 282.2 24.3595 282.392 25.1275 282.776C25.9115 283.144 26.4955 283.656 26.8795 284.312C27.2635 284.952 27.4555 285.672 27.4555 286.472C27.4555 287.56 27.1595 288.416 26.5675 289.04C25.9915 289.664 25.2955 290.096 24.4795 290.336C25.1035 290.448 25.6715 290.696 26.1835 291.08C26.6955 291.464 27.0955 291.944 27.3835 292.52C27.6875 293.096 27.8395 293.728 27.8395 294.416C27.8395 295.264 27.6315 296.04 27.2155 296.744C26.7995 297.432 26.1835 297.984 25.3675 298.4C24.5515 298.8 23.5595 299 22.3915 299H16.2955ZM18.3115 289.544H22.0555C23.1275 289.544 23.9515 289.296 24.5275 288.8C25.1035 288.288 25.3915 287.584 25.3915 286.688C25.3915 285.84 25.1035 285.16 24.5275 284.648C23.9675 284.136 23.1195 283.88 21.9835 283.88H18.3115V289.544ZM18.3115 297.32H22.1755C23.3275 297.32 24.2155 297.056 24.8395 296.528C25.4635 295.984 25.7755 295.232 25.7755 294.272C25.7755 293.328 25.4475 292.576 24.7915 292.016C24.1355 291.44 23.2475 291.152 22.1275 291.152H18.3115V297.32ZM35.965 299.288C34.829 299.288 33.821 299.032 32.941 298.52C32.061 297.992 31.365 297.264 30.853 296.336C30.357 295.408 30.109 294.312 30.109 293.048C30.109 291.8 30.357 290.712 30.853 289.784C31.349 288.84 32.037 288.112 32.917 287.6C33.813 287.072 34.845 286.808 36.013 286.808C37.165 286.808 38.157 287.072 38.989 287.6C39.837 288.112 40.485 288.792 40.933 289.64C41.381 290.488 41.605 291.4 41.605 292.376C41.605 292.552 41.597 292.728 41.581 292.904C41.581 293.08 41.581 293.28 41.581 293.504H32.101C32.149 294.416 32.357 295.176 32.725 295.784C33.109 296.376 33.581 296.824 34.141 297.128C34.717 297.432 35.325 297.584 35.965 297.584C36.797 297.584 37.493 297.392 38.053 297.008C38.613 296.624 39.021 296.104 39.277 295.448H41.269C40.949 296.552 40.333 297.472 39.421 298.208C38.525 298.928 37.373 299.288 35.965 299.288ZM35.965 288.512C35.005 288.512 34.149 288.808 33.397 289.4C32.661 289.976 32.237 290.824 32.125 291.944H39.613C39.565 290.872 39.197 290.032 38.509 289.424C37.821 288.816 36.973 288.512 35.965 288.512ZM44.2771 299V281.72H46.2931V299H44.2771ZM53.9414 299.288C52.5334 299.288 51.4134 298.864 50.5814 298.016C49.7494 297.152 49.3334 295.832 49.3334 294.056V287.096H51.3494V293.84C51.3494 296.32 52.3654 297.56 54.3974 297.56C55.4374 297.56 56.2934 297.192 56.9654 296.456C57.6534 295.704 57.9974 294.64 57.9974 293.264V287.096H60.0134V299H58.1894L58.0454 296.864C57.6774 297.616 57.1254 298.208 56.3894 298.64C55.6694 299.072 54.8534 299.288 53.9414 299.288ZM63.3318 299V287.096H65.1558L65.2998 288.824C65.6838 288.184 66.1958 287.688 66.8358 287.336C67.4758 286.984 68.1958 286.808 68.9958 286.808C69.9398 286.808 70.7478 287 71.4198 287.384C72.1078 287.768 72.6358 288.352 73.0038 289.136C73.4198 288.416 73.9878 287.848 74.7078 287.432C75.4438 287.016 76.2358 286.808 77.0838 286.808C78.5078 286.808 79.6438 287.24 80.4918 288.104C81.3398 288.952 81.7638 290.264 81.7638 292.04V299H79.7718V292.256C79.7718 291.024 79.5238 290.096 79.0278 289.472C78.5318 288.848 77.8198 288.536 76.8918 288.536C75.9318 288.536 75.1318 288.912 74.4918 289.664C73.8678 290.4 73.5558 291.456 73.5558 292.832V299H71.5398V292.256C71.5398 291.024 71.2918 290.096 70.7958 289.472C70.2998 288.848 69.5878 288.536 68.6598 288.536C67.7158 288.536 66.9238 288.912 66.2838 289.664C65.6598 290.4 65.3478 291.456 65.3478 292.832V299H63.3318ZM90.2161 299L96.4081 282.2H98.5441L104.712 299H102.576L101.04 294.68H93.8881L92.3281 299H90.2161ZM94.4881 293.048H100.44L97.4641 284.744L94.4881 293.048ZM111.833 299.288C110.649 299.288 109.609 299.016 108.713 298.472C107.833 297.928 107.145 297.184 106.649 296.24C106.169 295.296 105.929 294.224 105.929 293.024C105.929 291.824 106.177 290.76 106.673 289.832C107.169 288.888 107.857 288.152 108.737 287.624C109.617 287.08 110.657 286.808 111.857 286.808C112.833 286.808 113.697 287.008 114.449 287.408C115.201 287.808 115.785 288.368 116.201 289.088V281.72H118.217V299H116.393L116.201 297.032C115.817 297.608 115.265 298.128 114.545 298.592C113.825 299.056 112.921 299.288 111.833 299.288ZM112.049 297.536C112.849 297.536 113.553 297.352 114.161 296.984C114.785 296.6 115.265 296.072 115.601 295.4C115.953 294.728 116.129 293.944 116.129 293.048C116.129 292.152 115.953 291.368 115.601 290.696C115.265 290.024 114.785 289.504 114.161 289.136C113.553 288.752 112.849 288.56 112.049 288.56C111.265 288.56 110.561 288.752 109.937 289.136C109.329 289.504 108.849 290.024 108.497 290.696C108.161 291.368 107.993 292.152 107.993 293.048C107.993 293.944 108.161 294.728 108.497 295.4C108.849 296.072 109.329 296.6 109.937 296.984C110.561 297.352 111.265 297.536 112.049 297.536ZM125.464 299.288C124.472 299.288 123.648 299.12 122.992 298.784C122.336 298.448 121.848 298 121.528 297.44C121.208 296.88 121.048 296.272 121.048 295.616C121.048 294.4 121.512 293.464 122.44 292.808C123.368 292.152 124.632 291.824 126.232 291.824H129.448V291.68C129.448 290.64 129.176 289.856 128.632 289.328C128.088 288.784 127.36 288.512 126.448 288.512C125.664 288.512 124.984 288.712 124.408 289.112C123.848 289.496 123.496 290.064 123.352 290.816H121.288C121.368 289.952 121.656 289.224 122.152 288.632C122.664 288.04 123.296 287.592 124.048 287.288C124.8 286.968 125.6 286.808 126.448 286.808C128.112 286.808 129.36 287.256 130.192 288.152C131.04 289.032 131.464 290.208 131.464 291.68V299H129.664L129.544 296.864C129.208 297.536 128.712 298.112 128.056 298.592C127.416 299.056 126.552 299.288 125.464 299.288ZM125.776 297.584C126.544 297.584 127.2 297.384 127.744 296.984C128.304 296.584 128.728 296.064 129.016 295.424C129.304 294.784 129.448 294.112 129.448 293.408V293.384H126.4C125.216 293.384 124.376 293.592 123.88 294.008C123.4 294.408 123.16 294.912 123.16 295.52C123.16 296.144 123.384 296.648 123.832 297.032C124.296 297.4 124.944 297.584 125.776 297.584ZM140.96 299V282.2H146.48C147.792 282.2 148.872 282.416 149.72 282.848C150.568 283.28 151.192 283.864 151.592 284.6C152.008 285.336 152.216 286.168 152.216 287.096C152.216 288.008 152.016 288.832 151.616 289.568C151.216 290.304 150.592 290.896 149.744 291.344C148.896 291.776 147.808 291.992 146.48 291.992H142.976V299H140.96ZM142.976 290.288H146.432C147.776 290.288 148.728 290.008 149.288 289.448C149.864 288.872 150.152 288.088 150.152 287.096C150.152 286.088 149.864 285.304 149.288 284.744C148.728 284.168 147.776 283.88 146.432 283.88H142.976V290.288ZM159.387 299.288C158.251 299.288 157.243 299.032 156.363 298.52C155.483 297.992 154.787 297.264 154.275 296.336C153.779 295.408 153.531 294.312 153.531 293.048C153.531 291.8 153.779 290.712 154.275 289.784C154.771 288.84 155.459 288.112 156.339 287.6C157.235 287.072 158.267 286.808 159.435 286.808C160.587 286.808 161.579 287.072 162.411 287.6C163.259 288.112 163.907 288.792 164.355 289.64C164.803 290.488 165.027 291.4 165.027 292.376C165.027 292.552 165.019 292.728 165.003 292.904C165.003 293.08 165.003 293.28 165.003 293.504H155.523C155.571 294.416 155.779 295.176 156.147 295.784C156.531 296.376 157.003 296.824 157.563 297.128C158.139 297.432 158.747 297.584 159.387 297.584C160.219 297.584 160.915 297.392 161.475 297.008C162.035 296.624 162.443 296.104 162.699 295.448H164.691C164.371 296.552 163.755 297.472 162.843 298.208C161.947 298.928 160.795 299.288 159.387 299.288ZM159.387 288.512C158.427 288.512 157.571 288.808 156.819 289.4C156.083 289.976 155.659 290.824 155.547 291.944H163.035C162.987 290.872 162.619 290.032 161.931 289.424C161.243 288.816 160.395 288.512 159.387 288.512ZM172.259 299.288C170.835 299.288 169.651 298.928 168.707 298.208C167.763 297.488 167.211 296.512 167.051 295.28H169.115C169.243 295.904 169.571 296.448 170.099 296.912C170.643 297.36 171.371 297.584 172.283 297.584C173.131 297.584 173.755 297.408 174.155 297.056C174.555 296.688 174.755 296.256 174.755 295.76C174.755 295.04 174.491 294.56 173.963 294.32C173.451 294.08 172.723 293.864 171.779 293.672C171.139 293.544 170.499 293.36 169.859 293.12C169.219 292.88 168.683 292.544 168.251 292.112C167.819 291.664 167.603 291.08 167.603 290.36C167.603 289.32 167.987 288.472 168.755 287.816C169.539 287.144 170.595 286.808 171.923 286.808C173.187 286.808 174.219 287.128 175.019 287.768C175.835 288.392 176.307 289.288 176.435 290.456H174.443C174.363 289.848 174.099 289.376 173.651 289.04C173.219 288.688 172.635 288.512 171.899 288.512C171.179 288.512 170.619 288.664 170.219 288.968C169.835 289.272 169.643 289.672 169.643 290.168C169.643 290.648 169.891 291.024 170.387 291.296C170.899 291.568 171.587 291.8 172.451 291.992C173.187 292.152 173.883 292.352 174.539 292.592C175.211 292.816 175.755 293.16 176.171 293.624C176.603 294.072 176.819 294.728 176.819 295.592C176.835 296.664 176.427 297.552 175.595 298.256C174.779 298.944 173.667 299.288 172.259 299.288ZM183.659 299.288C182.667 299.288 181.843 299.12 181.187 298.784C180.531 298.448 180.043 298 179.723 297.44C179.403 296.88 179.243 296.272 179.243 295.616C179.243 294.4 179.707 293.464 180.635 292.808C181.563 292.152 182.827 291.824 184.427 291.824H187.643V291.68C187.643 290.64 187.371 289.856 186.827 289.328C186.283 288.784 185.555 288.512 184.643 288.512C183.859 288.512 183.179 288.712 182.603 289.112C182.043 289.496 181.691 290.064 181.547 290.816H179.483C179.563 289.952 179.851 289.224 180.347 288.632C180.859 288.04 181.491 287.592 182.243 287.288C182.995 286.968 183.795 286.808 184.643 286.808C186.307 286.808 187.555 287.256 188.387 288.152C189.235 289.032 189.659 290.208 189.659 291.68V299H187.859L187.739 296.864C187.403 297.536 186.907 298.112 186.251 298.592C185.611 299.056 184.747 299.288 183.659 299.288ZM183.971 297.584C184.739 297.584 185.395 297.384 185.939 296.984C186.499 296.584 186.923 296.064 187.211 295.424C187.499 294.784 187.643 294.112 187.643 293.408V293.384H184.595C183.411 293.384 182.571 293.592 182.075 294.008C181.595 294.408 181.355 294.912 181.355 295.52C181.355 296.144 181.579 296.648 182.027 297.032C182.491 297.4 183.139 297.584 183.971 297.584ZM192.683 299V287.096H194.507L194.627 289.232C195.011 288.48 195.563 287.888 196.283 287.456C197.003 287.024 197.819 286.808 198.731 286.808C200.139 286.808 201.259 287.24 202.091 288.104C202.939 288.952 203.363 290.264 203.363 292.04V299H201.347V292.256C201.347 289.776 200.323 288.536 198.275 288.536C197.251 288.536 196.395 288.912 195.707 289.664C195.035 290.4 194.699 291.456 194.699 292.832V299H192.683ZM210.378 299.288C209.386 299.288 208.562 299.12 207.906 298.784C207.25 298.448 206.762 298 206.442 297.44C206.122 296.88 205.962 296.272 205.962 295.616C205.962 294.4 206.426 293.464 207.354 292.808C208.282 292.152 209.546 291.824 211.146 291.824H214.362V291.68C214.362 290.64 214.09 289.856 213.546 289.328C213.002 288.784 212.274 288.512 211.362 288.512C210.578 288.512 209.898 288.712 209.322 289.112C208.762 289.496 208.41 290.064 208.266 290.816H206.202C206.282 289.952 206.57 289.224 207.066 288.632C207.578 288.04 208.21 287.592 208.962 287.288C209.714 286.968 210.514 286.808 211.362 286.808C213.026 286.808 214.274 287.256 215.106 288.152C215.954 289.032 216.378 290.208 216.378 291.68V299H214.578L214.458 296.864C214.122 297.536 213.626 298.112 212.97 298.592C212.33 299.056 211.466 299.288 210.378 299.288ZM210.69 297.584C211.458 297.584 212.114 297.384 212.658 296.984C213.218 296.584 213.642 296.064 213.93 295.424C214.218 294.784 214.362 294.112 214.362 293.408V293.384H211.314C210.13 293.384 209.29 293.592 208.794 294.008C208.314 294.408 208.074 294.912 208.074 295.52C208.074 296.144 208.298 296.648 208.746 297.032C209.21 297.4 209.858 297.584 210.69 297.584ZM219.402 299V287.096H221.226L221.346 289.232C221.73 288.48 222.282 287.888 223.002 287.456C223.722 287.024 224.538 286.808 225.45 286.808C226.858 286.808 227.978 287.24 228.81 288.104C229.658 288.952 230.082 290.264 230.082 292.04V299H228.066V292.256C228.066 289.776 227.042 288.536 224.994 288.536C223.97 288.536 223.114 288.912 222.426 289.664C221.754 290.4 221.418 291.456 221.418 292.832V299H219.402Z" fill="#232931"/>
<defs>
<clipPath id="clip0_751_4521">
<rect width="245.87" height="240" fill="white" transform="translate(0.0649414)"/>
</clipPath>
</defs>
</svg>
