<svg width="326" height="240" viewBox="0 0 326 240" fill="none" xmlns="http://www.w3.org/2000/svg">
<g clip-path="url(#clip0_751_3936)">
<path opacity="0.1" d="M3.81934 115.065C8.95706 134.921 19.8241 152.085 36.9971 160.405C72.698 177.697 153.213 168.779 213.304 158.542C244.387 153.247 271.709 138.636 291.555 118.073L3.81934 115.065Z" fill="#0077C1"/>
<path opacity="0.1" d="M318.933 21.6011H285.962C284.398 21.6011 283.114 20.4417 283.114 19.0249C283.114 17.6081 284.398 16.4456 285.962 16.4456H291.665C290.097 16.4456 288.817 15.2862 288.817 13.8664C288.817 12.4467 290.097 11.2902 291.665 11.2902H287.595C286.027 11.2902 284.744 10.1307 284.744 8.71096C284.744 7.29121 286.027 6.1347 287.595 6.1347H304.804C300.985 4.52861 296.522 3.38689 291.378 2.78646C244.452 -2.6648 227.699 0.940781 221.79 4.64692C214.424 9.32395 206.241 12.5692 197.672 14.2125C168.721 19.6164 114.578 26.1177 65.5047 12.142C41.1146 5.18228 22.9861 16.9278 12.1221 36.5617H324.66C324.251 30.8561 323.03 25.5853 320.788 20.9741C320.257 21.384 319.604 21.6047 318.933 21.6011Z" fill="#0077C1"/>
<path opacity="0.1" d="M1.02425 73.6201C-0.242147 85.1679 0.18834 96.8389 2.30203 108.262L291.777 117.842C299.746 109.578 306.516 100.237 311.891 90.0922L1.02425 73.6201ZM115.515 98.3326H109.816C111.383 98.3326 112.667 99.4951 112.667 100.912C112.667 102.329 111.383 103.488 109.816 103.488H76.8449C75.2802 103.488 73.9965 102.329 73.9965 100.912C73.9965 99.4951 75.2802 98.3326 76.8449 98.3326H82.5475C80.9799 98.3326 79.6992 97.1732 79.6992 95.7564C79.6992 94.3396 80.9799 93.1772 82.5475 93.1772H78.4746C76.907 93.1772 75.6233 92.0177 75.6233 90.6009C75.6233 89.1841 76.907 88.0217 78.4746 88.0217H111.445C113.013 88.0217 114.294 89.1812 114.294 90.6009C114.294 92.0207 113.013 93.1772 111.445 93.1772H115.515C117.083 93.1772 118.364 94.3366 118.364 95.7564C118.364 97.1761 117.083 98.3326 115.515 98.3326Z" fill="#0077C1"/>
<path opacity="0.1" d="M324.671 36.7388L8.63472 43.6896C4.78956 52.6311 2.23993 62.7409 1.06567 73.2175H319.134C321.204 67.0881 322.74 60.7911 323.725 54.3969C324.674 48.2417 325.053 42.2876 324.671 36.7388ZM65.2325 59.5287H59.5328C61.1004 59.5287 62.3841 60.6911 62.3841 62.1079C62.3841 63.5247 61.1004 64.6872 59.5328 64.6872H26.562C24.9973 64.6872 23.7137 63.5247 23.7137 62.1079C23.7137 60.6911 24.9973 59.5287 26.562 59.5287H32.2647C30.6971 59.5287 29.4163 58.3693 29.4163 56.9525C29.4163 55.5357 30.6971 54.3733 32.2647 54.3733H28.1918C26.6241 54.3733 25.3405 53.2138 25.3405 51.797C25.3405 50.3802 26.6241 49.2178 28.1918 49.2178H61.1625C62.7302 49.2178 64.0109 50.3773 64.0109 51.797C64.0109 53.2168 62.7302 54.3733 61.1625 54.3733H65.2325C66.8001 54.3733 68.0809 55.5357 68.0809 56.9525C68.0809 58.3693 66.8001 59.5287 65.2325 59.5287Z" fill="#0077C1"/>
<path opacity="0.1" d="M161.542 231.029C234.559 231.029 293.75 225.584 293.75 218.867C293.75 212.149 234.559 206.704 161.542 206.704C88.5252 206.704 29.3335 212.149 29.3335 218.867C29.3335 225.584 88.5252 231.029 161.542 231.029Z" fill="#0077C1"/>
<path d="M153.825 214.864C198.198 214.864 234.17 178.892 234.17 134.519C234.17 90.1451 198.198 54.1733 153.825 54.1733C109.452 54.1733 73.4797 90.1451 73.4797 134.519C73.4797 178.892 109.452 214.864 153.825 214.864Z" fill="#0077C1"/>
<path d="M195.982 174.894C195.982 187.578 176.043 175.978 154.666 175.978C133.289 175.978 111.668 187.098 111.668 174.415C111.668 167.183 118.559 157.125 128.445 149.819C135.894 144.314 145.04 140.371 154.229 140.371C163.677 140.371 172.933 144.639 180.317 150.499C189.635 157.888 195.982 167.816 195.982 174.894Z" fill="#444053"/>
<path d="M180.314 150.494C168.951 148.783 148.4 146.696 128.445 149.814C135.894 144.308 145.04 140.365 154.228 140.365C163.675 140.365 172.931 144.634 180.314 150.494Z" fill="#F6F8FB"/>
<path opacity="0.05" d="M111.668 77.8027C111.668 77.8027 87.4654 93.2754 87.6633 117.478C87.8613 141.68 111.668 77.8027 111.668 77.8027Z" fill="black"/>
<path d="M245.038 20.4771C245.038 20.4771 220.133 18.9775 223.07 36.4286C223.07 36.4286 222.479 39.5106 225.283 40.9126C225.283 40.9126 225.327 39.6201 227.835 40.0578C228.729 40.2074 229.638 40.251 230.542 40.188C231.764 40.1049 232.925 39.6251 233.849 38.8214C233.849 38.8214 240.85 35.9317 243.574 24.4879C243.574 24.4879 245.588 21.9915 245.508 21.3526L241.305 23.145C241.305 23.145 242.74 26.1768 241.601 28.6968C241.601 28.6968 241.465 23.2574 240.658 23.3728C240.495 23.3994 238.475 24.4228 238.475 24.4228C238.475 24.4228 240.944 29.7055 239.066 33.5417C239.066 33.5417 239.773 27.0346 237.688 24.8044L234.73 26.5317C234.73 26.5317 237.617 31.9859 235.659 36.4374C235.659 36.4374 236.162 29.6108 234.109 26.9517L231.426 29.0429C231.426 29.0429 234.138 34.4202 232.485 38.1116C232.485 38.1116 232.269 30.1639 230.846 29.5635C230.846 29.5635 228.501 31.634 228.143 32.4828C228.143 32.4828 230.001 36.3842 228.85 38.4428C228.85 38.4428 228.143 33.1484 227.563 33.1188C227.563 33.1188 225.227 36.6267 224.981 39.0344C224.981 39.0344 225.085 35.4555 226.995 32.7845C226.995 32.7845 224.736 33.172 223.419 34.6391C223.419 34.6391 223.783 32.1575 227.56 31.9416C227.56 31.9416 229.492 29.2795 230.009 29.1198C230.009 29.1198 226.238 28.8033 223.952 29.8179C223.952 29.8179 225.963 27.4782 230.699 28.5401L233.361 26.3809C233.361 26.3809 228.397 25.7006 226.291 26.4519C226.291 26.4519 228.714 24.3814 234.073 25.8899L236.957 24.1655C236.957 24.1655 232.725 23.2545 230.202 23.5739C230.202 23.5739 232.864 22.1394 237.8 23.6952L239.871 22.7694C239.871 22.7694 236.768 22.1601 235.86 22.0654C234.952 21.9708 234.905 21.7164 234.905 21.7164C236.875 21.396 238.896 21.6306 240.74 22.3937C240.74 22.3937 245.112 20.7522 245.038 20.4771Z" fill="#00D6A1"/>
<path d="M219.494 12.7188C219.494 12.7188 208.255 12.0385 209.568 19.9241C209.568 19.9241 209.305 21.3172 210.568 21.9502C210.568 21.9502 210.585 21.3586 211.721 21.5657C212.125 21.6321 212.535 21.6519 212.943 21.6248C213.495 21.5854 214.02 21.3686 214.439 21.0066C214.439 21.0066 217.601 19.6993 218.832 14.529C218.832 14.529 219.743 13.4021 219.719 13.1122L217.82 13.9227C217.82 13.9227 218.471 15.2921 217.959 16.4309C217.959 16.4309 217.897 13.9729 217.533 14.0321C217.459 14.0321 216.545 14.5054 216.545 14.5054C216.545 14.5054 217.663 16.8923 216.82 18.6256C216.82 18.6256 217.14 15.6855 216.199 14.6769L214.862 15.4578C214.862 15.4578 216.167 17.9246 215.282 19.9359C215.282 19.9359 215.507 16.8509 214.581 15.65L213.369 16.5936C213.369 16.5936 214.593 19.0219 213.848 20.6901C213.848 20.6901 213.75 17.0994 213.105 16.8272C213.105 16.8272 212.047 17.7619 211.884 18.1464C211.884 18.1464 212.724 19.9211 212.203 20.841C212.203 20.841 211.884 18.4481 211.612 18.4392C211.612 18.4392 210.556 20.0217 210.446 21.1013C210.497 20.0966 210.81 19.1227 211.354 18.2766C210.746 18.3917 210.184 18.6827 209.739 19.1136C209.739 19.1136 209.902 17.9926 211.615 17.895C211.615 17.895 212.487 16.6941 212.721 16.6202C212.721 16.6202 211.017 16.4782 209.985 16.9367C209.985 16.9367 210.893 15.8778 213.034 16.3451L214.218 15.372C214.218 15.372 211.976 15.0762 211.023 15.4016C211.023 15.4016 212.118 14.4669 214.54 15.1502L215.841 14.3693C215.841 14.3693 213.931 13.9582 212.789 14.106C212.789 14.106 213.993 13.4583 216.223 14.1622L217.155 13.7422C217.155 13.7422 215.753 13.4672 215.345 13.4258C214.936 13.3843 214.91 13.269 214.91 13.269C215.798 13.1213 216.709 13.2237 217.542 13.5648C217.542 13.5648 219.527 12.8431 219.494 12.7188Z" fill="#00D6A1"/>
<path opacity="0.1" d="M317.717 215.924C322.116 215.924 325.683 215.321 325.683 214.578C325.683 213.834 322.116 213.232 317.717 213.232C313.318 213.232 309.752 213.834 309.752 214.578C309.752 215.321 313.318 215.924 317.717 215.924Z" fill="#0077C1"/>
<path opacity="0.1" d="M14.1512 238.311C18.5503 238.311 22.1166 237.709 22.1166 236.965C22.1166 236.222 18.5503 235.62 14.1512 235.62C9.75202 235.62 6.18579 236.222 6.18579 236.965C6.18579 237.709 9.75202 238.311 14.1512 238.311Z" fill="#0077C1"/>
<path opacity="0.1" d="M60.3907 240C64.7899 240 68.3561 239.398 68.3561 238.654C68.3561 237.911 64.7899 237.309 60.3907 237.309C55.9915 237.309 52.4253 237.911 52.4253 238.654C52.4253 239.398 55.9915 240 60.3907 240Z" fill="#0077C1"/>
<path d="M300.284 231.011C306.853 231.011 312.177 230.111 312.177 229C312.177 227.889 306.853 226.989 300.284 226.989C293.715 226.989 288.391 227.889 288.391 229C288.391 230.111 293.715 231.011 300.284 231.011Z" fill="#00D6A1"/>
<path d="M305.2 225.714C305.743 225.271 306.139 224.674 306.336 224.001C306.481 223.324 306.191 222.508 305.543 222.259C304.816 221.981 304.038 222.487 303.449 222.996C302.86 223.504 302.183 224.084 301.411 223.978C301.808 223.618 302.105 223.162 302.273 222.653C302.441 222.145 302.474 221.601 302.369 221.076C302.336 220.858 302.244 220.654 302.103 220.484C301.698 220.053 300.967 220.236 300.482 220.576C298.944 221.659 298.515 223.747 298.507 225.628C298.353 224.951 298.483 224.244 298.48 223.558C298.477 222.871 298.285 222.079 297.699 221.715C297.336 221.521 296.928 221.425 296.516 221.437C295.824 221.41 295.055 221.478 294.582 221.984C293.99 222.614 294.147 223.667 294.658 224.35C295.17 225.034 295.945 225.477 296.658 225.953C297.232 226.295 297.721 226.761 298.089 227.317C298.133 227.395 298.168 227.478 298.196 227.563H302.529C303.499 227.07 304.397 226.448 305.2 225.714Z" fill="#00D6A1"/>
<path d="M17.869 200.913C17.869 200.913 19.4929 203.036 17.1177 206.237C14.7426 209.437 12.7845 212.152 13.5684 214.152C13.5684 214.152 17.1503 208.195 20.0756 208.109C23.0008 208.023 21.0753 204.495 17.869 200.913Z" fill="#00D6A1"/>
<path opacity="0.1" d="M17.8691 200.913C18.0101 201.118 18.1216 201.342 18.2003 201.578C21.0457 204.92 22.5601 208.041 19.8271 208.118C17.2775 208.192 14.2073 212.747 13.4885 213.897C13.5137 213.987 13.5433 214.074 13.5773 214.161C13.5773 214.161 17.1592 208.204 20.0845 208.118C23.0097 208.032 21.0753 204.495 17.8691 200.913Z" fill="black"/>
<path d="M20.8891 203.619C20.8891 204.367 20.8033 204.973 20.6998 204.973C20.5962 204.973 20.5134 204.382 20.5134 203.619C20.5134 202.856 20.617 203.222 20.7234 203.222C20.8299 203.222 20.8891 202.87 20.8891 203.619Z" fill="#FFD037"/>
<path d="M21.9124 204.512C21.2558 204.87 20.6849 205.086 20.6346 204.994C20.5843 204.903 21.0783 204.542 21.7349 204.184C22.3916 203.826 22.1313 204.086 22.1816 204.184C22.2318 204.282 22.5809 204.154 21.9124 204.512Z" fill="#FFD037"/>
<path d="M9.28547 200.913C9.28547 200.913 7.66163 203.036 10.0338 206.237C12.406 209.437 14.367 212.152 13.5832 214.152C13.5832 214.152 9.9983 208.195 7.07598 208.109C4.15366 208.023 6.07624 204.495 9.28547 200.913Z" fill="#00D6A1"/>
<path opacity="0.1" d="M9.28536 200.913C9.14305 201.117 9.03144 201.341 8.95409 201.578C6.10867 204.92 4.59131 208.041 7.32729 208.118C9.87397 208.192 12.9471 212.747 13.6629 213.897C13.6388 213.987 13.6102 214.074 13.5771 214.161C13.5771 214.161 9.99228 208.204 7.06996 208.118C4.14764 208.032 6.07613 204.495 9.28536 200.913Z" fill="black"/>
<path d="M6.26562 203.619C6.26562 204.367 6.34845 204.973 6.45197 204.973C6.55549 204.973 6.63831 204.382 6.63831 203.619C6.63831 202.856 6.53479 203.222 6.43126 203.222C6.32774 203.222 6.26562 202.87 6.26562 203.619Z" fill="#FFD037"/>
<path d="M5.22744 204.512C5.88407 204.87 6.45789 205.086 6.50817 204.994C6.55846 204.903 6.0645 204.542 5.40787 204.184C4.75123 203.826 5.00856 204.086 4.96124 204.184C4.91391 204.282 4.5708 204.154 5.22744 204.512Z" fill="#FFD037"/>
<path d="M6.7832 213.882C6.7832 213.882 11.3264 213.743 12.6988 212.767C14.0713 211.791 19.6881 210.629 20.0283 212.176C20.3684 213.723 26.8549 219.955 21.7261 219.996C16.5972 220.037 9.80905 219.194 8.44254 218.363C7.07603 217.532 6.7832 213.882 6.7832 213.882Z" fill="#A8A8A8"/>
<path opacity="0.2" d="M21.8119 219.467C16.683 219.508 9.89482 218.665 8.52831 217.834C7.48716 217.201 7.07307 214.926 6.93405 213.876H6.7832C6.7832 213.876 7.07899 217.541 8.43662 218.372C9.79426 219.203 16.5913 220.046 21.7202 220.005C23.1991 220.005 23.7108 219.464 23.6842 218.686C23.4771 219.162 22.9151 219.458 21.8119 219.467Z" fill="black"/>
<path d="M125.26 123.983C126.789 123.898 133.985 123.356 138.555 120.749C139.289 120.317 140.119 120.073 140.97 120.038C142.423 119.996 144.095 120.603 143.025 123.999C141.29 129.554 131.219 135.805 124.968 135.458C118.957 135.125 111.827 132.703 107.118 124.187C106.667 123.367 106.445 122.442 106.475 121.507C106.529 119.788 107.154 117.634 110.381 120.035C114.741 123.278 123.012 123.892 124.671 123.983C124.868 123.994 125.064 123.994 125.26 123.983Z" fill="#444053"/>
<path d="M183.077 123.983C184.606 123.898 191.802 123.356 196.373 120.749C197.107 120.317 197.936 120.073 198.787 120.038C200.24 119.996 201.912 120.603 200.842 123.999C199.107 129.554 189.036 135.805 182.786 135.458C176.775 135.125 169.644 132.703 164.935 124.187C164.484 123.367 164.262 122.442 164.292 121.507C164.347 119.788 164.972 117.634 168.199 120.035C172.558 123.278 180.83 123.892 182.489 123.983C182.685 123.994 182.881 123.994 183.077 123.983Z" fill="#444053"/>
</g>
<defs>
<clipPath id="clip0_751_3936">
<rect width="325.365" height="240" fill="white" transform="translate(0.317383)"/>
</clipPath>
</defs>
</svg>
