<svg width="28" height="28" viewBox="0 0 28 28" fill="none" xmlns="http://www.w3.org/2000/svg">
<g clip-path="url(#clip0_751_4891)">
<path d="M22.1667 16.3333V6.99996C22.1667 5.71663 21.1167 4.66663 19.8334 4.66663H3.50002C2.21669 4.66663 1.16669 5.71663 1.16669 6.99996V16.3333C1.16669 17.6166 2.21669 18.6666 3.50002 18.6666H19.8334C21.1167 18.6666 22.1667 17.6166 22.1667 16.3333ZM11.6667 15.1666C9.73002 15.1666 8.16669 13.6033 8.16669 11.6666C8.16669 9.72996 9.73002 8.16663 11.6667 8.16663C13.6034 8.16663 15.1667 9.72996 15.1667 11.6666C15.1667 13.6033 13.6034 15.1666 11.6667 15.1666ZM26.8334 8.16663V21C26.8334 22.2833 25.7834 23.3333 24.5 23.3333H4.66669V21H24.5V8.16663H26.8334Z" fill="#00D6A1"/>
</g>
<defs>
<clipPath id="clip0_751_4891">
<rect width="28" height="28" fill="white"/>
</clipPath>
</defs>
</svg>
