<svg width="24" height="24" viewBox="0 0 24 24" fill="none" xmlns="http://www.w3.org/2000/svg">
<g clip-path="url(#clip0_447_6816)">
<path fill-rule="evenodd" clip-rule="evenodd" d="M7.10079 6.44445H21.4503C21.6199 6.44504 21.7868 6.48896 21.9369 6.57246C22.087 6.65597 22.2158 6.77659 22.3124 6.92408C22.409 7.07156 22.4705 7.24155 22.4917 7.41959C22.5129 7.59762 22.4932 7.77844 22.4342 7.94667L19.2841 16.8356C19.1298 17.2678 18.7381 17.5556 18.3003 17.5556H9.90014C9.47698 17.5556 9.09372 17.2856 8.93097 16.8722L3.95074 4.22223H1.5V2.00001H3.94969C4.3645 1.99902 4.77026 2.12837 5.11552 2.37167C5.46078 2.61498 5.73001 2.96128 5.88907 3.36667L7.10079 6.44445ZM15.1502 13.1111H17.2503V10.8889H15.1502V8.66667H13.0502V10.8889H10.9502V13.1111H13.0502V15.3333H15.1502V13.1111ZM10.4251 22C11.295 22 12.0002 21.2538 12.0002 20.3333C12.0002 19.4129 11.295 18.6667 10.4251 18.6667C9.55528 18.6667 8.85012 19.4129 8.85012 20.3333C8.85012 21.2538 9.55528 22 10.4251 22ZM17.7753 22C18.6451 22 19.3503 21.2538 19.3503 20.3333C19.3503 19.4129 18.6451 18.6667 17.7753 18.6667C16.9054 18.6667 16.2002 19.4129 16.2002 20.3333C16.2002 21.2538 16.9054 22 17.7753 22Z" fill="#0077C1"/>
</g>
<defs>
<clipPath id="clip0_447_6816">
<rect width="24" height="24" fill="white"/>
</clipPath>
</defs>
</svg>
