<svg width="24" height="24" viewBox="0 0 24 24" fill="none" xmlns="http://www.w3.org/2000/svg">
<circle cx="12" cy="12" r="11.5" stroke="#0077C1"/>
<path d="M11.9998 16.2C11.8698 16.2 11.7623 16.1575 11.6773 16.0725C11.5923 15.9875 11.5498 15.88 11.5498 15.75V12.45H8.2498C8.1198 12.45 8.0123 12.4075 7.9273 12.3225C7.8423 12.2375 7.7998 12.13 7.7998 12C7.7998 11.87 7.8423 11.7625 7.9273 11.6775C8.0123 11.5925 8.1198 11.55 8.2498 11.55H11.5498V8.25005C11.5498 8.12005 11.5923 8.01255 11.6773 7.92755C11.7623 7.84255 11.8698 7.80005 11.9998 7.80005C12.1298 7.80005 12.2373 7.84255 12.3223 7.92755C12.4073 8.01255 12.4498 8.12005 12.4498 8.25005V11.55H15.7498C15.8798 11.55 15.9873 11.5925 16.0723 11.6775C16.1573 11.7625 16.1998 11.87 16.1998 12C16.1998 12.13 16.1573 12.2375 16.0723 12.3225C15.9873 12.4075 15.8798 12.45 15.7498 12.45H12.4498V15.75C12.4498 15.88 12.4073 15.9875 12.3223 16.0725C12.2373 16.1575 12.1298 16.2 11.9998 16.2Z" fill="#0077C1"/>
</svg>
