<svg width="25" height="24" viewBox="0 0 25 24" fill="none" xmlns="http://www.w3.org/2000/svg">
<path fill-rule="evenodd" clip-rule="evenodd" d="M6.62132 3.29289C6.2308 2.90237 5.59763 2.90237 5.20711 3.29289C4.81658 3.68342 4.81658 4.31658 5.20711 4.70711L6.79977 6.29976C4.20115 8.34026 2.5 11 2.5 11C2.5 11 6.97715 18 12.5 18C14.1305 18 15.6699 17.3899 17.0298 16.5298L19.3492 18.8492C19.7398 19.2398 20.3729 19.2398 20.7635 18.8492C21.154 18.4587 21.154 17.8256 20.7635 17.435L6.62132 3.29289ZM9.21584 8.71584L14.7841 14.2841C14.1365 14.7354 13.3492 15 12.5 15C10.2909 15 8.5 13.2091 8.5 11C8.5 10.1508 8.7646 9.36344 9.21584 8.71584Z" fill="#232931"/>
<path d="M22.5 11C22.5 11 21.5361 12.5071 19.9511 14.1226L10.2139 4.38549C10.9481 4.14198 11.7135 4 12.5 4C18.0228 4 22.5 11 22.5 11Z" fill="#232931"/>
</svg>
