<svg width="20" height="20" viewBox="0 0 20 20" fill="none" xmlns="http://www.w3.org/2000/svg">
<path fill-rule="evenodd" clip-rule="evenodd" d="M1.10305 3.53281e-08H18.896C19.5054 -0.000152517 19.9996 0.493774 19.9999 1.10306V18.896V18.8965C19.9998 19.5061 19.5055 20.0002 18.896 20H1.10397C0.494536 20.0002 0.000305245 19.5062 3.5328e-08 18.8969V1.10397C-0.000152517 0.494537 0.493773 0.000305246 1.10305 3.53281e-08ZM13.8086 12.2649V19.9995H10.6836V12.2649H8.08594V9.2375H10.6836V7.0095C10.6836 4.42582 12.2609 3.01953 14.5656 3.01953C15.6694 3.01953 16.618 3.10178 16.8945 3.13855V5.83897H15.3053C14.0513 5.83897 13.8086 6.43484 13.8086 7.30935V9.2375H16.8066L16.416 12.2649H13.8086Z" fill="#63605A"/>
</svg>
