<svg width="24" height="24" viewBox="0 0 24 24" fill="none" xmlns="http://www.w3.org/2000/svg">
<path fill-rule="evenodd" clip-rule="evenodd" d="M7.47603 4.42337L3.37404 6.47437L12.0144 11.1546L16.1164 9.10356L7.47603 4.42337ZM2.25 7.57143V16.4999C2.25 16.784 2.4105 17.0437 2.66459 17.1707L11.2499 21.4634V12.4464L2.25 7.57143ZM12.7499 21.4635L21.3354 17.1707C21.5895 17.0437 21.75 16.784 21.75 16.4999V7.96379L18.2499 9.71385V12.5C18.2499 12.9142 17.9141 13.25 17.4999 13.25C17.0857 13.25 16.7499 12.9142 16.7499 12.5V10.4638L12.7499 12.4638V21.4635ZM21.0004 6.66156L12.3354 2.32909C12.1243 2.22352 11.8757 2.22352 11.6646 2.32909L9.11371 3.60453L17.7541 8.28472L21.0004 6.66156Z" fill="#FFB74A"/>
</svg>
