<svg width="24" height="24" viewBox="0 0 24 24" fill="none" xmlns="http://www.w3.org/2000/svg">
<path fill-rule="evenodd" clip-rule="evenodd" d="M0 6.75C0 6.33579 0.335786 6 0.75 6H3.25C3.2938 6 3.3373 6.00125 3.38048 6.00372L3.37036 6H13C13.5523 6 14 6.44772 14 7V18L9.46939 18.0698C9.32383 17.0561 8.67138 16.206 7.77711 15.7846C7.3899 15.6021 6.95711 15.5 6.5 15.5C6.04289 15.5 5.6101 15.6021 5.22289 15.7846C4.87144 15.9502 4.55734 16.182 4.29668 16.464C4.16584 16.4876 4.03108 16.5 3.89342 16.5H3.79098C3.37676 16.5 3.04098 16.1642 3.04098 15.75C3.04098 15.3358 3.37676 15 3.79098 15H3.89342C4.30763 15 4.64342 14.6642 4.64342 14.25C4.64342 13.8358 4.30763 13.5 3.89342 13.5H2.79098H2.75C2.33579 13.5 2 13.1642 2 12.75C2 12.3358 2.33579 12 2.75 12H2.79098H3.89342H3.9344C4.34861 12 4.6844 11.6642 4.6844 11.25C4.6844 10.8358 4.34861 10.5 3.9344 10.5H3.25H1.75H1.63118C1.21697 10.5 0.881181 10.1642 0.881181 9.75C0.881181 9.33579 1.21697 9 1.63118 9H1.75H3.25C3.66421 9 4 8.66421 4 8.25C4 7.83579 3.66421 7.5 3.25 7.5H0.75C0.335786 7.5 0 7.16421 0 6.75ZM4.73006 6.55529L4.73 6.5L4.60611 6.45444C4.64863 6.4866 4.68997 6.52025 4.73006 6.55529ZM22 14.2432C22 13.9948 21.9075 13.7552 21.7406 13.5712L18.7976 10.328C18.6081 10.1191 18.3391 10 18.0571 10H15.5V18H15.5415C15.7064 17.0171 16.3492 16.1962 17.2229 15.7846C17.6101 15.6021 18.0429 15.5 18.5 15.5C18.5818 15.5 18.6629 15.5033 18.7431 15.5097C19.1106 15.5391 19.4592 15.6348 19.7771 15.7846C20.6205 16.182 21.2488 16.9607 21.4397 17.8984C21.7715 17.7357 22 17.3945 22 17V14.2432ZM6.5 17C7.15322 17 7.70891 17.4175 7.91475 18.0003C7.96996 18.1566 8 18.3248 8 18.5C8 19.3284 7.32843 20 6.5 20C5.67157 20 5 19.3284 5 18.5C5 18.3248 5.03004 18.1566 5.08525 18.0003C5.29109 17.4175 5.84678 17 6.5 17ZM18.5 17C19.1532 17 19.7089 17.4175 19.9148 18.0003C19.97 18.1566 20 18.3248 20 18.5C20 19.3284 19.3284 20 18.5 20C17.6716 20 17 19.3284 17 18.5C17 18.3248 17.03 18.1566 17.0852 18.0003C17.2911 17.4175 17.8468 17 18.5 17Z" fill="#7248F7"/>
</svg>
