<svg width="20" height="20" viewBox="0 0 20 20" fill="none" xmlns="http://www.w3.org/2000/svg">
<path fill-rule="evenodd" clip-rule="evenodd" d="M14.0419 0H5.95811C2.67279 0 0 2.67279 0 5.95811V14.0419C0 17.3272 2.67279 20 5.95811 20H14.0419C17.3272 20 20 17.3272 20 14.0419V5.95811C20 2.67279 17.3272 0 14.0419 0ZM17.988 14.0419C17.988 16.2213 16.2213 17.988 14.0419 17.988H5.95811C3.77875 17.988 2.012 16.2213 2.012 14.0419V5.95811C2.012 3.77871 3.77875 2.012 5.95811 2.012H14.0419C16.2213 2.012 17.988 3.77871 17.988 5.95811V14.0419ZM10.0009 4.82812C7.14861 4.82812 4.82812 7.14866 4.82812 10.0009C4.82812 12.8532 7.14861 15.1738 10.0009 15.1738C12.8531 15.1738 15.1736 12.8533 15.1736 10.0009C15.1736 7.14863 12.8531 4.82812 10.0009 4.82812ZM10.0009 13.1618C8.25522 13.1618 6.84013 11.7467 6.84013 10.001C6.84013 8.25531 8.25526 6.84018 10.0009 6.84018C11.7465 6.84018 13.1616 8.25531 13.1616 10.001C13.1616 11.7466 11.7465 13.1618 10.0009 13.1618ZM16.4223 4.86451C16.4223 5.54907 15.8674 6.10401 15.1829 6.10401C14.4983 6.10401 13.9434 5.54907 13.9434 4.86451C13.9434 4.17995 14.4983 3.625 15.1829 3.625C15.8674 3.625 16.4223 4.17995 16.4223 4.86451Z" fill="#63605A"/>
</svg>
