<svg width="20" height="20" viewBox="0 0 20 20" fill="none" xmlns="http://www.w3.org/2000/svg">
<g clip-path="url(#clip0_751_4768)">
<path fill-rule="evenodd" clip-rule="evenodd" d="M9.59962 1.70339C9.21582 1.63793 8.82155 1.6604 8.44829 1.76899L3.44829 3.22367C2.93338 3.37347 2.48197 3.68025 2.16103 4.09849C1.84009 4.51674 1.66671 5.02417 1.66663 5.54551V14.4547C1.66671 14.976 1.84009 15.4834 2.16103 15.9017C2.48197 16.3199 2.93338 16.6267 3.44829 16.7765L8.44829 18.2312C8.82155 18.3398 9.21582 18.3622 9.59962 18.2968C9.98343 18.2313 10.3461 18.0798 10.6588 17.8542C10.9715 17.6286 11.2254 17.3353 11.4004 16.9976C11.5754 16.6599 11.6666 16.2873 11.6666 15.9093V4.09083C11.6666 3.71291 11.5754 3.34023 11.4004 3.00256C11.2254 2.66488 10.9715 2.37155 10.6588 2.14598C10.3461 1.92041 9.98343 1.76885 9.59962 1.70339ZM12.744 2.96336C12.5878 3.11492 12.5 3.32048 12.5 3.53481C12.5 3.74915 12.5878 3.95471 12.744 4.10627C12.9003 4.25783 13.1123 4.34297 13.3333 4.34297H15.8333C16.0543 4.34297 16.2663 4.42812 16.4225 4.57968C16.5788 4.73124 16.6666 4.93679 16.6666 5.15113V5.95929C16.6666 6.17363 16.7544 6.37918 16.9107 6.53074C17.067 6.6823 17.2789 6.76745 17.5 6.76745C17.721 6.76745 17.9329 6.6823 18.0892 6.53074C18.2455 6.37918 18.3333 6.17363 18.3333 5.95929V5.15113C18.3333 4.50812 18.0699 3.89144 17.6011 3.43677C17.1322 2.98209 16.4963 2.72665 15.8333 2.72665H13.3333C13.1123 2.72665 12.9003 2.8118 12.744 2.96336ZM18.0892 13.4694C17.9329 13.3179 17.721 13.2327 17.5 13.2327C17.2789 13.2327 17.067 13.3179 16.9107 13.4694C16.7544 13.621 16.6666 13.8265 16.6666 14.0409V14.849C16.6666 15.0634 16.5788 15.2689 16.4225 15.4205C16.2663 15.572 16.0543 15.6572 15.8333 15.6572H13.3333C13.1123 15.6572 12.9003 15.7423 12.744 15.8939C12.5878 16.0455 12.5 16.251 12.5 16.4654C12.5 16.6797 12.5878 16.8852 12.744 17.0368C12.9003 17.1884 13.1123 17.2735 13.3333 17.2735H15.8333C16.4963 17.2735 17.1322 17.0181 17.6011 16.5634C18.0699 16.1087 18.3333 15.492 18.3333 14.849V14.0409C18.3333 13.8265 18.2455 13.621 18.0892 13.4694ZM6.9107 9.42863C7.06698 9.27707 7.27895 9.19192 7.49996 9.19192H7.50079C7.72181 9.19192 7.93377 9.27707 8.09005 9.42863C8.24633 9.58019 8.33413 9.78574 8.33413 10.0001C8.33413 10.2144 8.24633 10.42 8.09005 10.5715C7.93377 10.7231 7.72181 10.8082 7.50079 10.8082H7.49996C7.27895 10.8082 7.06698 10.7231 6.9107 10.5715C6.75442 10.42 6.66663 10.2144 6.66663 10.0001C6.66663 9.78574 6.75442 9.58019 6.9107 9.42863ZM16.4225 7.81232C16.0971 7.49672 15.5695 7.49672 15.244 7.81232C14.9186 8.12793 14.9186 8.63963 15.244 8.95523L15.4881 9.19194H13.3333C12.8731 9.19194 12.5 9.55376 12.5 10.0001C12.5 10.4464 12.8731 10.8083 13.3333 10.8083H15.4881L15.244 11.045C14.9186 11.3606 14.9186 11.8723 15.244 12.1879C15.5695 12.5035 16.0971 12.5035 16.4225 12.1879L18.089 10.5718L18.0892 10.5715L18.091 10.5698C18.17 10.4927 18.2297 10.4041 18.2701 10.3094C18.3108 10.2142 18.3333 10.1097 18.3333 10.0001C18.3333 9.89052 18.3108 9.78603 18.2701 9.69074C18.2297 9.59613 18.17 9.50744 18.091 9.43036L18.0892 9.42864L18.089 9.42841L16.4225 7.81232Z" fill="#FF4B4B"/>
</g>
<defs>
<clipPath id="clip0_751_4768">
<rect width="20" height="20" fill="white"/>
</clipPath>
</defs>
</svg>
