<svg width="20" height="20" viewBox="0 0 20 20" fill="none" xmlns="http://www.w3.org/2000/svg">
<path fill-rule="evenodd" clip-rule="evenodd" d="M9.99996 1.66675C5.39996 1.66675 1.66663 5.40008 1.66663 10.0001C1.66663 14.6001 5.39996 18.3334 9.99996 18.3334C14.6 18.3334 18.3333 14.6001 18.3333 10.0001C18.3333 5.40008 14.6 1.66675 9.99996 1.66675ZM9.99996 4.16675C11.3833 4.16675 12.5 5.28341 12.5 6.66675C12.5 8.05008 11.3833 9.16675 9.99996 9.16675C8.61663 9.16675 7.49996 8.05008 7.49996 6.66675C7.49996 5.28341 8.61663 4.16675 9.99996 4.16675ZM9.99996 16.0001C7.91663 16.0001 6.07496 14.9334 4.99996 13.3167C5.02496 11.6584 8.33329 10.7501 9.99996 10.7501C11.6583 10.7501 14.975 11.6584 15 13.3167C13.925 14.9334 12.0833 16.0001 9.99996 16.0001Z" fill="#232931"/>
</svg>
