<svg width="24" height="24" viewBox="0 0 24 24" fill="none" xmlns="http://www.w3.org/2000/svg">
<g clip-path="url(#clip0_88_7068)">
<path d="M1 6.5C1 5.77065 1.28973 5.07118 1.80546 4.55546C2.32118 4.03973 3.02065 3.75 3.75 3.75H20.25C20.9793 3.75 21.6788 4.03973 22.1945 4.55546C22.7103 5.07118 23 5.77065 23 6.5V7.875H1V6.5ZM1 10.625V17.5C1 18.2293 1.28973 18.9288 1.80546 19.4445C2.32118 19.9603 3.02065 20.25 3.75 20.25H20.25C20.9793 20.25 21.6788 19.9603 22.1945 19.4445C22.7103 18.9288 23 18.2293 23 17.5V10.625H1ZM5.125 13.375H6.5C6.86467 13.375 7.21441 13.5199 7.47227 13.7777C7.73013 14.0356 7.875 14.3853 7.875 14.75V16.125C7.875 16.4897 7.73013 16.8394 7.47227 17.0973C7.21441 17.3551 6.86467 17.5 6.5 17.5H5.125C4.76033 17.5 4.41059 17.3551 4.15273 17.0973C3.89487 16.8394 3.75 16.4897 3.75 16.125V14.75C3.75 14.3853 3.89487 14.0356 4.15273 13.7777C4.41059 13.5199 4.76033 13.375 5.125 13.375Z" fill="#00D6A1"/>
</g>
<defs>
<clipPath id="clip0_88_7068">
<rect width="24" height="24" fill="white"/>
</clipPath>
</defs>
</svg>
