<svg width="24" height="24" viewBox="0 0 24 24" fill="none" xmlns="http://www.w3.org/2000/svg">
<path fill-rule="evenodd" clip-rule="evenodd" d="M7.47603 4.42346L3.37404 6.47446L12.0144 11.1546L16.1164 9.10365L7.47603 4.42346ZM2.25 7.57152V16.5C2.25 16.7841 2.4105 17.0438 2.66459 17.1708L11.2499 21.4635V12.4465L2.25 7.57152ZM12.7499 21.4636L21.3354 17.1708C21.5895 17.0438 21.75 16.7841 21.75 16.5V7.96388L18.2499 9.71394V12.5001C18.2499 12.9143 17.9141 13.2501 17.4999 13.2501C17.0857 13.2501 16.7499 12.9143 16.7499 12.5001V10.4639L12.7499 12.4639V21.4636ZM21.0004 6.66165L12.3354 2.32918C12.1243 2.22361 11.8757 2.22361 11.6646 2.32918L9.11371 3.60462L17.7541 8.28481L21.0004 6.66165Z" fill="#00D6A1"/>
</svg>
