<svg width="20" height="20" viewBox="0 0 20 20" fill="none" xmlns="http://www.w3.org/2000/svg">
<g clip-path="url(#clip0_88_6727)">
<path fill-rule="evenodd" clip-rule="evenodd" d="M4.23077 8.84615C4.23077 6.29715 6.29715 4.23077 8.84615 4.23077C11.3952 4.23077 13.4615 6.29715 13.4615 8.84615C13.4615 11.3952 11.3952 13.4615 8.84615 13.4615C6.29715 13.4615 4.23077 11.3952 4.23077 8.84615ZM8.84615 2.5C5.34127 2.5 2.5 5.34127 2.5 8.84615C2.5 12.351 5.34127 15.1923 8.84615 15.1923C10.2866 15.1923 11.6149 14.7124 12.68 13.9038L16.0227 17.2465C16.3607 17.5845 16.9086 17.5845 17.2465 17.2465C17.5845 16.9086 17.5845 16.3607 17.2465 16.0227L13.9038 12.68C14.7124 11.6149 15.1923 10.2866 15.1923 8.84615C15.1923 5.34127 12.351 2.5 8.84615 2.5Z" fill="white"/>
</g>
<defs>
<clipPath id="clip0_88_6727">
<rect width="20" height="20" fill="white"/>
</clipPath>
</defs>
</svg>
