<svg width="20" height="20" viewBox="0 0 20 20" fill="none" xmlns="http://www.w3.org/2000/svg">
<g clip-path="url(#clip0_447_5974)">
<path fill-rule="evenodd" clip-rule="evenodd" d="M5.91733 5.37021H17.8753C18.0166 5.37071 18.1557 5.4073 18.2808 5.47689C18.4059 5.54648 18.5132 5.647 18.5937 5.7699C18.6742 5.89281 18.7255 6.03446 18.7431 6.18283C18.7608 6.33119 18.7443 6.48187 18.6952 6.62206L16.0701 14.0295C15.9415 14.3897 15.6151 14.6295 15.2502 14.6295H8.25011C7.89748 14.6295 7.5781 14.4045 7.44247 14.06L3.29228 3.51836H1.25V1.66651H3.29141C3.63709 1.66568 3.97521 1.77348 4.26293 1.97623C4.55065 2.17899 4.77501 2.46757 4.90756 2.8054L5.91733 5.37021ZM12.6252 10.9258H14.3752V9.07392H12.6252V7.22206H10.8752V9.07392H9.12513V10.9258H10.8752V12.7776H12.6252V10.9258ZM8.68762 18.3332C9.4125 18.3332 10.0001 17.7113 10.0001 16.9443C10.0001 16.1772 9.4125 15.5554 8.68762 15.5554C7.96273 15.5554 7.3751 16.1772 7.3751 16.9443C7.3751 17.7113 7.96273 18.3332 8.68762 18.3332ZM14.8127 18.3332C15.5376 18.3332 16.1252 17.7113 16.1252 16.9443C16.1252 16.1772 15.5376 15.5554 14.8127 15.5554C14.0878 15.5554 13.5002 16.1772 13.5002 16.9443C13.5002 17.7113 14.0878 18.3332 14.8127 18.3332Z" fill="#0077C1"/>
</g>
<defs>
<clipPath id="clip0_447_5974">
<rect width="20" height="20" fill="white"/>
</clipPath>
</defs>
</svg>
