<svg width="28" height="28" viewBox="0 0 28 28" fill="none" xmlns="http://www.w3.org/2000/svg">
<path fill-rule="evenodd" clip-rule="evenodd" d="M15.6145 3.50213C9.76249 3.33879 4.96821 8.09879 4.96821 14.0021H2.91024C2.39287 14.0021 2.13993 14.6321 2.50784 14.9938L5.71552 18.2605C5.94546 18.4938 6.30187 18.4938 6.53181 18.2605L9.7395 14.9938C10.1074 14.6321 9.84297 14.0021 9.3371 14.0021H7.26763C7.26763 9.45213 10.9237 5.77713 15.4305 5.83546C19.7075 5.89379 23.306 9.54546 23.3635 13.8855C23.421 18.4471 19.7994 22.1688 15.3156 22.1688C13.4645 22.1688 11.7515 21.5271 10.3948 20.4421C9.93495 20.0805 9.29111 20.1155 8.87722 20.5355C8.39434 21.0371 8.42883 21.8538 8.96919 22.2855C10.7167 23.6738 12.9242 24.5021 15.3156 24.5021C21.1216 24.5021 25.8239 19.6371 25.6629 13.6988C25.5135 8.22713 21.0066 3.65379 15.6145 3.50213ZM15.0281 9.33551C14.5567 9.33551 14.1658 9.73218 14.1658 10.2105V14.5038C14.1658 14.9122 14.3843 15.2972 14.7292 15.5072L18.3163 17.6655C18.7302 17.9105 19.259 17.7705 19.5005 17.3622C19.7419 16.9422 19.6039 16.4055 19.2016 16.1605L15.8904 14.1655V10.1988C15.8904 9.73218 15.511 9.33551 15.0281 9.33551Z" fill="#FF4B4B"/>
</svg>
