<svg width="25" height="20" viewBox="0 0 25 20" fill="none" xmlns="http://www.w3.org/2000/svg">
<path d="M7.86229 19.9999C17.2967 19.9999 22.456 12.306 22.456 5.63437C22.456 5.41585 22.4514 5.19824 22.4415 4.98183C23.4429 4.26908 24.3132 3.37966 25 2.36728C24.081 2.76956 23.0918 3.03999 22.0545 3.16235C23.1134 2.53704 23.9264 1.54829 24.3099 0.369615C23.3189 0.947966 22.2213 1.36815 21.053 1.59509C20.117 0.613718 18.7843 0 17.3088 0C14.4764 0 12.1793 2.26103 12.1793 5.0482C12.1793 5.4446 12.2244 5.82987 12.3123 6.19948C8.04943 5.98834 4.26918 3.97938 1.73968 0.924339C1.29937 1.67034 1.04528 2.53719 1.04528 3.46213C1.04528 5.21359 1.95082 6.76022 3.32771 7.6647C2.48623 7.63926 1.69581 7.41187 1.00476 7.03337C1.004 7.05459 1.004 7.07521 1.004 7.09778C1.004 9.54302 2.77197 11.5846 5.11922 12.0473C4.68808 12.1627 4.23447 12.2248 3.76664 12.2248C3.43671 12.2248 3.11504 12.1929 2.80255 12.1338C3.45552 14.1399 5.34916 15.5997 7.59413 15.6406C5.83855 16.9951 3.62706 17.8019 1.22354 17.8019C0.810141 17.8019 0.401477 17.7785 0 17.7319C2.27004 19.1642 4.96557 20 7.86245 20" fill="#63605A"/>
</svg>
