<svg width="157" height="31" viewBox="0 0 157 31" fill="none" xmlns="http://www.w3.org/2000/svg">
<path d="M16.0271 12.8559C14.4032 10.9931 12.0277 9.87448 9.47116 9.87448C4.66919 9.87448 0.776367 13.7653 0.776367 18.5648V28.6463C0.776367 29.6787 1.61418 30.5161 2.64715 30.5161H16.0216V13.2185C16.0216 13.0971 16.024 12.9765 16.0271 12.8566V12.8559Z" fill="#00D6A1"/>
<path d="M40.1612 8.2334C38.1705 3.62505 33.6295 0.639767 28.6073 0.639767C21.7786 0.639767 16.2203 6.07688 16.0283 12.8559C16.6091 13.5217 17.0934 14.2823 17.4555 15.1205L24.1047 30.5161H46.9405C48.2854 30.5161 49.1914 29.1398 48.6585 27.9052L40.1627 8.2334H40.1612Z" fill="#D8A7FF"/>
<path d="M16.027 12.8559C16.0238 12.9765 16.0215 13.0971 16.0215 13.2177V30.5153H27.8293L26.9248 30.3383C24.9436 29.9505 23.2805 28.611 22.4803 26.7584L17.4534 15.1197C17.0913 14.2815 16.6069 13.5209 16.0262 12.8551L16.027 12.8559Z" fill="#0077C1"/>
<path d="M56.7514 30.4997V14.1656H60.5933V17.9491L60.1591 17.3483C60.4686 16.1474 61.0886 15.2568 62.0181 14.6755C62.9476 14.0951 64.0417 13.8045 65.302 13.8045C66.6853 13.8045 67.9048 14.1546 68.9581 14.8557C70.0114 15.5568 70.6933 16.4772 71.0029 17.6185L69.8563 17.7086C70.3727 16.4075 71.1471 15.4314 72.18 14.7813C73.213 14.1311 74.4004 13.8053 75.7429 13.8053C76.9405 13.8053 78.0095 14.0653 78.9492 14.5862C79.8889 15.1071 80.6272 15.8325 81.164 16.7631C81.7009 17.6937 81.9697 18.77 81.9697 19.9912V30.5004H77.9107V20.9218C77.9107 20.2012 77.7759 19.5808 77.5079 19.0599C77.2391 18.5397 76.8621 18.1394 76.377 17.859C75.891 17.5786 75.3181 17.4384 74.6574 17.4384C73.9967 17.4384 73.4489 17.5786 72.9536 17.859C72.4583 18.1394 72.075 18.5397 71.807 19.0599C71.5382 19.5808 71.4041 20.2012 71.4041 20.9218V30.5004H67.3452V20.9218C67.3452 20.2012 67.2104 19.5808 66.9423 19.0599C66.6735 18.5397 66.2965 18.1394 65.8114 17.859C65.3255 17.5786 64.7526 17.4384 64.0919 17.4384C63.4312 17.4384 62.8833 17.5786 62.388 17.859C61.8919 18.1394 61.5094 18.5397 61.2414 19.0599C60.9726 19.5808 60.8386 20.2012 60.8386 20.9218V30.5004H56.749L56.7514 30.4997Z" fill="#2B2B2B"/>
<path d="M90.5212 30.86C89.3441 30.86 88.3166 30.6696 87.4388 30.2897C86.5602 29.9098 85.8846 29.3638 85.4097 28.6533C84.934 27.9428 84.6973 27.1172 84.6973 26.1764C84.6973 25.2356 84.9089 24.4703 85.3321 23.7591C85.7553 23.0486 86.4011 22.4533 87.2687 21.9723C88.1363 21.4921 89.2304 21.1513 90.5526 20.9516L96.0364 20.0805V23.083L91.3269 23.8938C90.5212 24.034 89.9217 24.2792 89.5298 24.6293C89.1371 24.9795 88.9412 25.4456 88.9412 26.0253C88.9412 26.6049 89.163 27.031 89.6074 27.3616C90.051 27.6922 90.6035 27.8575 91.265 27.8575C92.1114 27.8575 92.8607 27.6828 93.5112 27.3318C94.1617 26.9817 94.6625 26.496 95.0136 25.8756C95.3647 25.2552 95.5403 24.5847 95.5403 23.864V19.6301C95.5403 18.9298 95.2613 18.3439 94.704 17.8739C94.146 17.4039 93.403 17.1681 92.4735 17.1681C91.6059 17.1681 90.8363 17.3984 90.1654 17.859C89.4937 18.3196 89.0039 18.9102 88.6935 19.6309L85.3783 18.0697C85.7083 17.2096 86.2303 16.4631 86.9427 15.8325C87.6551 15.2019 88.4968 14.7069 89.4679 14.3465C90.4381 13.9862 91.4915 13.806 92.6279 13.806C94.0112 13.806 95.2307 14.0512 96.2841 14.5416C97.3374 15.0319 98.1587 15.7174 98.7473 16.5986C99.3359 17.4799 99.6306 18.4904 99.6306 19.6309V30.5004H95.7887V27.7078L96.6563 27.6781C96.2221 28.3588 95.7009 28.9393 95.092 29.4194C94.4822 29.8996 93.8012 30.26 93.0472 30.5004C92.2933 30.7409 91.4515 30.8608 90.522 30.8608L90.5212 30.86Z" fill="#2B2B2B"/>
<path d="M108.49 30.86C107.313 30.86 106.285 30.6696 105.408 30.2897C104.53 29.9098 103.853 29.3638 103.378 28.6533C102.903 27.9428 102.666 27.1172 102.666 26.1764C102.666 25.2356 102.878 24.4703 103.301 23.7591C103.724 23.0486 104.37 22.4533 105.237 21.9723C106.105 21.4921 107.2 21.1513 108.521 20.9516L114.005 20.0805V23.083L109.296 23.8938C108.49 24.034 107.891 24.2792 107.499 24.6293C107.106 24.9795 106.91 25.4456 106.91 26.0253C106.91 26.6049 107.132 27.031 107.576 27.3616C108.02 27.6922 108.572 27.8575 109.234 27.8575C110.08 27.8575 110.829 27.6828 111.48 27.3318C112.13 26.9817 112.631 26.496 112.982 25.8756C113.333 25.2552 113.509 24.5847 113.509 23.864V19.6301C113.509 18.9298 113.23 18.3439 112.673 17.8739C112.115 17.4039 111.372 17.1681 110.442 17.1681C109.575 17.1681 108.805 17.3984 108.134 17.859C107.462 18.3196 106.973 18.9102 106.662 19.6309L103.347 18.0697C103.677 17.2096 104.199 16.4631 104.911 15.8325C105.624 15.2019 106.466 14.7069 107.437 14.3465C108.407 13.9862 109.461 13.806 110.597 13.806C111.98 13.806 113.199 14.0512 114.253 14.5416C115.306 15.0319 116.127 15.7174 116.716 16.5986C117.305 17.4799 117.599 18.4904 117.599 19.6309V30.5004H113.757V27.7078L114.625 27.6781C114.191 28.3588 113.67 28.9393 113.061 29.4194C112.451 29.8996 111.77 30.26 111.016 30.5004C110.262 30.7409 109.42 30.8608 108.491 30.8608L108.49 30.86Z" fill="#2B2B2B"/>
<path d="M121.315 30.4996V7.76966H125.405V17.378L124.847 16.8078C125.239 15.827 125.884 15.0813 126.783 14.5706C127.682 14.0598 128.73 13.8052 129.928 13.8052C131.125 13.8052 132.267 14.0653 133.227 14.5862C134.187 15.1071 134.936 15.8325 135.473 16.7631C136.01 17.6937 136.279 18.77 136.279 19.9912V30.5004H132.22V20.9218C132.22 20.2012 132.075 19.5808 131.787 19.0599C131.498 18.5397 131.099 18.1394 130.594 17.859C130.088 17.5786 129.494 17.4383 128.812 17.4383C128.131 17.4383 127.562 17.5786 127.047 17.859C126.53 18.1394 126.127 18.5397 125.838 19.0599C125.548 19.5808 125.404 20.2012 125.404 20.9218V30.5004H121.314L121.315 30.4996Z" fill="#2B2B2B"/>
<path d="M139.688 12.3334V8.13H143.777V12.3334H139.688ZM139.688 30.4996V14.1656H143.777V30.4996H139.688Z" fill="#2B2B2B"/>
<path d="M147.495 30.4996V14.1656H151.337V17.7987L151.027 17.2582C151.419 16.0378 152.035 15.1863 152.871 14.7061C153.707 14.2259 154.714 13.9854 155.891 13.9854H156.883V17.4987H155.427C154.27 17.4987 153.34 17.8394 152.638 18.5193C151.936 19.2001 151.585 20.1612 151.585 21.402V30.4996H147.495Z" fill="#2B2B2B"/>
</svg>
