<svg width="284" height="87" viewBox="0 0 284 87" fill="none" xmlns="http://www.w3.org/2000/svg">
<path d="M47.8726 35.7838C45.4453 32.9896 41.8945 31.3117 38.0731 31.3117C30.8955 31.3117 25.0767 37.148 25.0767 44.3472V59.4694C25.0767 61.0181 26.329 62.2742 27.873 62.2742H47.8644V36.3278C47.8644 36.1457 47.8679 35.9647 47.8726 35.785V35.7838Z" fill="#00D6A1"/>
<path d="M83.946 28.8501C80.9705 21.9376 74.1829 17.4597 66.6761 17.4597C56.4689 17.4597 48.1608 25.6153 47.8738 35.7838C48.7418 36.7825 49.4658 37.9235 50.007 39.1807L59.9459 62.2742H94.0794C96.0896 62.2742 97.4439 60.2097 96.6473 58.3579L83.9484 28.8501H83.946Z" fill="#D8A7FF"/>
<path d="M47.8726 35.7838C47.8679 35.9647 47.8644 36.1457 47.8644 36.3266V62.273H65.5139L64.162 62.0074C61.2005 61.4258 58.7146 59.4166 57.5186 56.6377L50.0047 39.1795C49.4635 37.9223 48.7395 36.7814 47.8714 35.7826L47.8726 35.7838Z" fill="#0077C1"/>
<path d="M108.745 62.2495V37.7484H114.488V43.4236L113.839 42.5224C114.301 40.7211 115.228 39.3852 116.617 38.5133C118.007 37.6426 119.642 37.2067 121.526 37.2067C123.594 37.2067 125.416 37.7319 126.991 38.7836C128.565 39.8352 129.585 41.2158 130.047 42.9278L128.333 43.0629C129.105 41.1112 130.263 39.6472 131.807 38.6719C133.351 37.6967 135.126 37.2079 137.132 37.2079C138.922 37.2079 140.52 37.598 141.925 38.3794C143.33 39.1607 144.433 40.2488 145.236 41.6447C146.038 43.0406 146.44 44.655 146.44 46.4869V62.2507H140.373V47.8828C140.373 46.8018 140.171 45.8712 139.771 45.0898C139.369 44.3096 138.805 43.7092 138.08 43.2885C137.354 42.8679 136.497 42.6575 135.51 42.6575C134.522 42.6575 133.704 42.8679 132.963 43.2885C132.223 43.7092 131.65 44.3096 131.249 45.0898C130.847 45.8712 130.647 46.8018 130.647 47.8828V62.2507H124.58V47.8828C124.58 46.8018 124.379 45.8712 123.978 45.0898C123.576 44.3096 123.013 43.7092 122.287 43.2885C121.561 42.8679 120.705 42.6575 119.717 42.6575C118.73 42.6575 117.911 42.8679 117.17 43.2885C116.429 43.7092 115.857 44.3096 115.457 45.0898C115.055 45.8712 114.854 46.8018 114.854 47.8828V62.2507H108.742L108.745 62.2495Z" fill="#2B2B2B"/>
<path d="M159.222 62.79C157.462 62.79 155.927 62.5045 154.614 61.9346C153.301 61.3647 152.291 60.5457 151.581 59.48C150.87 58.4143 150.517 57.1758 150.517 55.7647C150.517 54.3535 150.833 53.2055 151.465 52.1386C152.098 51.0729 153.063 50.1799 154.36 49.4584C155.657 48.7382 157.292 48.227 159.269 47.9274L167.466 46.6208V51.1246L160.426 52.3407C159.222 52.551 158.326 52.9188 157.74 53.444C157.153 53.9693 156.86 54.6684 156.86 55.5379C156.86 56.4074 157.192 57.0466 157.856 57.5424C158.519 58.0383 159.345 58.2862 160.334 58.2862C161.599 58.2862 162.719 58.0242 163.691 57.4978C164.663 56.9726 165.412 56.2441 165.937 55.3135C166.462 54.3829 166.724 53.3771 166.724 52.2961V45.9452C166.724 44.8947 166.307 44.0158 165.474 43.3108C164.64 42.6058 163.529 42.2522 162.14 42.2522C160.843 42.2522 159.693 42.5976 158.69 43.2885C157.686 43.9794 156.954 44.8654 156.49 45.9464L151.535 43.6046C152.028 42.3144 152.808 41.1947 153.873 40.2488C154.938 39.3029 156.196 38.5603 157.647 38.0198C159.098 37.4793 160.672 37.2091 162.371 37.2091C164.439 37.2091 166.261 37.5768 167.836 38.3124C169.41 39.0479 170.638 40.0761 171.518 41.3979C172.398 42.7198 172.838 44.2356 172.838 45.9464V62.2507H167.095V58.0618L168.392 58.0171C167.743 59.0382 166.964 59.9089 166.054 60.6292C165.143 61.3494 164.125 61.8899 162.998 62.2507C161.871 62.6114 160.612 62.7912 159.223 62.7912L159.222 62.79Z" fill="#2B2B2B"/>
<path d="M186.08 62.79C184.321 62.79 182.785 62.5045 181.473 61.9346C180.161 61.3647 179.15 60.5457 178.44 59.48C177.73 58.4143 177.375 57.1758 177.375 55.7647C177.375 54.3535 177.691 53.2055 178.324 52.1386C178.957 51.0729 179.922 50.1799 181.219 49.4584C182.516 48.7382 184.152 48.227 186.127 47.9274L194.324 46.6208V51.1246L187.285 52.3407C186.08 52.551 185.185 52.9188 184.599 53.444C184.012 53.9693 183.719 54.6684 183.719 55.5379C183.719 56.4074 184.05 57.0466 184.715 57.5424C185.378 58.0383 186.203 58.2862 187.192 58.2862C188.457 58.2862 189.577 58.0242 190.55 57.4978C191.522 56.9726 192.271 56.2441 192.795 55.3135C193.32 54.3829 193.583 53.3771 193.583 52.2961V45.9452C193.583 44.8947 193.166 44.0158 192.333 43.3108C191.499 42.6058 190.388 42.2522 188.999 42.2522C187.702 42.2522 186.551 42.5976 185.549 43.2885C184.545 43.9794 183.812 44.8654 183.349 45.9464L178.393 43.6046C178.886 42.3144 179.667 41.1947 180.731 40.2488C181.796 39.3029 183.055 38.5603 184.506 38.0198C185.956 37.4793 187.532 37.2091 189.229 37.2091C191.297 37.2091 193.12 37.5768 194.694 38.3124C196.269 39.0479 197.497 40.0761 198.376 41.3979C199.256 42.7198 199.697 44.2356 199.697 45.9464V62.2507H193.954V58.0618L195.251 58.0171C194.602 59.0382 193.823 59.9089 192.913 60.6292C192.001 61.3494 190.983 61.8899 189.856 62.2507C188.729 62.6114 187.471 62.7912 186.082 62.7912L186.08 62.79Z" fill="#2B2B2B"/>
<path d="M205.252 62.2495V28.1545H211.365V42.5671L210.53 41.7117C211.116 40.2406 212.082 39.122 213.425 38.3559C214.768 37.5898 216.335 37.2079 218.125 37.2079C219.915 37.2079 221.622 37.598 223.057 38.3794C224.492 39.1607 225.611 40.2488 226.415 41.6447C227.217 43.0406 227.619 44.655 227.619 46.4869V62.2507H221.552V47.8828C221.552 46.8018 221.335 45.8712 220.904 45.0898C220.472 44.3096 219.877 43.7092 219.121 43.2885C218.364 42.8679 217.477 42.6575 216.458 42.6575C215.439 42.6575 214.59 42.8679 213.819 43.2885C213.047 43.7092 212.445 44.3096 212.012 45.0898C211.579 45.8712 211.363 46.8018 211.363 47.8828V62.2507H205.251L205.252 62.2495Z" fill="#2B2B2B"/>
<path d="M232.712 35.0001V28.695H238.825V35.0001H232.712ZM232.712 62.2495V37.7484H238.825V62.2495H232.712Z" fill="#2B2B2B"/>
<path d="M244.383 62.2495V37.7484H250.125V43.198L249.663 42.3873C250.248 40.5566 251.168 39.2794 252.418 38.5591C253.668 37.8389 255.173 37.4781 256.933 37.4781H258.415V42.748H256.238C254.509 42.748 253.12 43.2591 252.07 44.279C251.02 45.3001 250.496 46.7418 250.496 48.603V62.2495H244.383Z" fill="#2B2B2B"/>
</svg>
