<svg width="157" height="31" viewBox="0 0 157 31" fill="none" xmlns="http://www.w3.org/2000/svg">
<path d="M16.0271 12.8556C14.4032 10.9929 12.0277 9.87427 9.47116 9.87427C4.66919 9.87427 0.776367 13.7651 0.776367 18.5646V28.6461C0.776367 29.6785 1.61418 30.5159 2.64715 30.5159H16.0216V13.2183C16.0216 13.0969 16.024 12.9763 16.0271 12.8564V12.8556Z" fill="#00D6A1"/>
<path d="M40.1612 8.23328C38.1705 3.62493 33.6295 0.639648 28.6073 0.639648C21.7786 0.639648 16.2203 6.07677 16.0283 12.8557C16.6091 13.5216 17.0934 14.2822 17.4555 15.1203L24.1047 30.516H46.9405C48.2854 30.516 49.1914 29.1397 48.6585 27.9051L40.1627 8.23328H40.1612Z" fill="#D8A7FF"/>
<path d="M16.027 12.8558C16.0238 12.9764 16.0215 13.097 16.0215 13.2177V30.5152H27.8293L26.9248 30.3382C24.9436 29.9504 23.2805 28.6109 22.4803 26.7584L17.4534 15.1196C17.0913 14.2814 16.6069 13.5208 16.0262 12.855L16.027 12.8558Z" fill="#0077C1"/>
<path d="M56.7514 30.4996V14.1656H60.5933V17.9491L60.1591 17.3482C60.4686 16.1474 61.0886 15.2567 62.0181 14.6755C62.9476 14.0951 64.0417 13.8044 65.302 13.8044C66.6853 13.8044 67.9048 14.1546 68.9581 14.8557C70.0114 15.5568 70.6933 16.4772 71.0029 17.6185L69.8563 17.7086C70.3727 16.4075 71.1471 15.4314 72.18 14.7813C73.213 14.1311 74.4004 13.8052 75.7429 13.8052C76.9405 13.8052 78.0095 14.0653 78.9492 14.5862C79.8889 15.1071 80.6272 15.8325 81.164 16.7631C81.7009 17.6937 81.9697 18.77 81.9697 19.9912V30.5004H77.9107V20.9218C77.9107 20.2011 77.7759 19.5807 77.5079 19.0598C77.2391 18.5397 76.8621 18.1394 76.377 17.859C75.891 17.5785 75.3181 17.4383 74.6574 17.4383C73.9967 17.4383 73.4489 17.5785 72.9536 17.859C72.4583 18.1394 72.075 18.5397 71.807 19.0598C71.5382 19.5807 71.4041 20.2011 71.4041 20.9218V30.5004H67.3452V20.9218C67.3452 20.2011 67.2104 19.5807 66.9423 19.0598C66.6735 18.5397 66.2965 18.1394 65.8114 17.859C65.3255 17.5785 64.7526 17.4383 64.0919 17.4383C63.4312 17.4383 62.8833 17.5785 62.388 17.859C61.8919 18.1394 61.5094 18.5397 61.2414 19.0598C60.9726 19.5807 60.8386 20.2011 60.8386 20.9218V30.5004H56.749L56.7514 30.4996Z" fill="white"/>
<path d="M90.5212 30.8599C89.3441 30.8599 88.3166 30.6695 87.4388 30.2896C86.5602 29.9097 85.8846 29.3637 85.4097 28.6532C84.934 27.9427 84.6973 27.1171 84.6973 26.1763C84.6973 25.2355 84.9089 24.4702 85.3321 23.7589C85.7553 23.0485 86.4011 22.4531 87.2687 21.9722C88.1363 21.492 89.2304 21.1512 90.5526 20.9515L96.0364 20.0804V23.0829L91.3269 23.8937C90.5212 24.0339 89.9217 24.2791 89.5298 24.6292C89.1371 24.9794 88.9412 25.4455 88.9412 26.0251C88.9412 26.6048 89.163 27.0309 89.6074 27.3615C90.051 27.6921 90.6035 27.8573 91.265 27.8573C92.1114 27.8573 92.8607 27.6827 93.5112 27.3317C94.1617 26.9816 94.6625 26.4959 95.0136 25.8755C95.3647 25.2551 95.5403 24.5846 95.5403 23.8639V19.63C95.5403 18.9297 95.2613 18.3438 94.704 17.8738C94.146 17.4038 93.403 17.168 92.4735 17.168C91.6059 17.168 90.8363 17.3983 90.1654 17.8589C89.4937 18.3195 89.0039 18.9101 88.6935 19.6308L85.3783 18.0696C85.7083 17.2095 86.2303 16.463 86.9427 15.8324C87.6551 15.2018 88.4968 14.7067 89.4679 14.3464C90.4381 13.9861 91.4915 13.8059 92.6279 13.8059C94.0112 13.8059 95.2307 14.0511 96.2841 14.5415C97.3374 15.0318 98.1587 15.7172 98.7473 16.5985C99.3359 17.4797 99.6306 18.4902 99.6306 19.6308V30.5003H95.7887V27.7077L96.6563 27.678C96.2221 28.3587 95.7009 28.9391 95.092 29.4193C94.4822 29.8995 93.8012 30.2598 93.0472 30.5003C92.2933 30.7408 91.4515 30.8606 90.522 30.8606L90.5212 30.8599Z" fill="white"/>
<path d="M108.49 30.8599C107.313 30.8599 106.285 30.6695 105.408 30.2896C104.53 29.9097 103.853 29.3637 103.378 28.6532C102.903 27.9427 102.666 27.1171 102.666 26.1763C102.666 25.2355 102.878 24.4702 103.301 23.7589C103.724 23.0485 104.37 22.4531 105.237 21.9722C106.105 21.492 107.2 21.1512 108.521 20.9515L114.005 20.0804V23.0829L109.296 23.8937C108.49 24.0339 107.891 24.2791 107.499 24.6292C107.106 24.9794 106.91 25.4455 106.91 26.0251C106.91 26.6048 107.132 27.0309 107.576 27.3615C108.02 27.6921 108.572 27.8573 109.234 27.8573C110.08 27.8573 110.829 27.6827 111.48 27.3317C112.13 26.9816 112.631 26.4959 112.982 25.8755C113.333 25.2551 113.509 24.5846 113.509 23.8639V19.63C113.509 18.9297 113.23 18.3438 112.673 17.8738C112.115 17.4038 111.372 17.168 110.442 17.168C109.575 17.168 108.805 17.3983 108.134 17.8589C107.462 18.3195 106.973 18.9101 106.662 19.6308L103.347 18.0696C103.677 17.2095 104.199 16.463 104.911 15.8324C105.624 15.2018 106.466 14.7067 107.437 14.3464C108.407 13.9861 109.461 13.8059 110.597 13.8059C111.98 13.8059 113.199 14.0511 114.253 14.5415C115.306 15.0318 116.127 15.7172 116.716 16.5985C117.305 17.4797 117.599 18.4902 117.599 19.6308V30.5003H113.757V27.7077L114.625 27.678C114.191 28.3587 113.67 28.9391 113.061 29.4193C112.451 29.8995 111.77 30.2598 111.016 30.5003C110.262 30.7408 109.42 30.8606 108.491 30.8606L108.49 30.8599Z" fill="white"/>
<path d="M121.315 30.4995V7.76953H125.405V17.3779L124.847 16.8076C125.239 15.8269 125.884 15.0812 126.783 14.5704C127.682 14.0597 128.73 13.8051 129.928 13.8051C131.125 13.8051 132.267 14.0652 133.227 14.5861C134.187 15.107 134.936 15.8324 135.473 16.763C136.01 17.6936 136.279 18.7699 136.279 19.9911V30.5003H132.22V20.9217C132.22 20.201 132.075 19.5806 131.787 19.0597C131.498 18.5396 131.099 18.1393 130.594 17.8589C130.088 17.5784 129.494 17.4382 128.812 17.4382C128.131 17.4382 127.562 17.5784 127.047 17.8589C126.53 18.1393 126.127 18.5396 125.838 19.0597C125.548 19.5806 125.404 20.201 125.404 20.9217V30.5003H121.314L121.315 30.4995Z" fill="white"/>
<path d="M139.688 12.3332V8.12988H143.777V12.3332H139.688ZM139.688 30.4995V14.1655H143.777V30.4995H139.688Z" fill="white"/>
<path d="M147.495 30.4996V14.1655H151.337V17.7986L151.027 17.2581C151.419 16.0377 152.035 15.1862 152.871 14.706C153.707 14.2258 154.714 13.9854 155.891 13.9854H156.883V17.4986H155.427C154.27 17.4986 153.34 17.8394 152.638 18.5193C151.936 19.2 151.585 20.1612 151.585 21.402V30.4996H147.495Z" fill="white"/>
</svg>
