<svg width="49" height="31" viewBox="0 0 49 31" fill="none" xmlns="http://www.w3.org/2000/svg">
<path d="M16.0276 12.8556C14.4037 10.9929 12.0282 9.87427 9.47164 9.87427C4.66968 9.87427 0.776855 13.7651 0.776855 18.5646V28.6461C0.776855 29.6785 1.61467 30.5159 2.64764 30.5159H16.0221V13.2183C16.0221 13.0969 16.0245 12.9763 16.0276 12.8564V12.8556Z" fill="#00D6A1"/>
<path d="M40.1612 8.23328C38.1705 3.62493 33.6295 0.639648 28.6073 0.639648C21.7786 0.639648 16.2203 6.07677 16.0283 12.8557C16.6091 13.5216 17.0934 14.2822 17.4555 15.1203L24.1047 30.516H46.9405C48.2854 30.516 49.1914 29.1397 48.6585 27.9051L40.1627 8.23328H40.1612Z" fill="#D8A7FF"/>
<path d="M16.0275 12.8558C16.0243 12.9764 16.022 13.097 16.022 13.2177V30.5152H27.8298L26.9253 30.3382C24.944 29.9504 23.281 28.6109 22.4808 26.7584L17.4539 15.1196C17.0918 14.2814 16.6074 13.5208 16.0267 12.855L16.0275 12.8558Z" fill="#0077C1"/>
</svg>
